<svg viewBox="0 0 128 128" xmlns="http://www.w3.org/2000/svg"><path d="M39 60.1l-7-2.6c-1-.4-1.5-1.4-1.1-2.4l17.9-49c.4-1 1.4-1.5 2.4-1.1l7 2.6c1 .4 1.5 1.4 1.1 2.4L41.4 59c-.4 1-1.4 1.5-2.4 1.1z" fill="#938993"/><path d="M32 57.6l7 2.6c1 .4 2-.1 2.4-1.1L48.7 39H36.8l-5.9 16.3c-.4.8.1 1.9 1.1 2.3z" fill="#593055" opacity=".2"/><path d="M39.6 61.5c-.4 0-.7-.1-1.1-.2l-7-2.6c-1.6-.6-2.4-2.4-1.9-4l17.9-49c.4-1.2 1.6-2 2.9-2 .4 0 .7.1 1.1.2l7 2.6c.8.3 1.4.9 1.8 1.6.4.8.4 1.6.1 2.4l-17.9 49c-.4 1.1-1.6 2-2.9 2zM50.5 6.2c-.2 0-.5.1-.6.4L32 55.6c-.1.3 0 .7.4.8l7 2.6c.3.1.7 0 .8-.4l17.9-49c.1-.2 0-.4 0-.5s-.1-.2-.3-.3l-7-2.6h-.3z" fill="#62355C"/><path d="M96 57.6l-7 2.6c-1 .4-2-.1-2.4-1.1L68.7 10c-.4-1 .1-2 1.1-2.4l7-2.6c1-.4 2 .1 2.4 1.1l17.9 49c.4 1-.1 2.1-1.1 2.5z" fill="#938993"/><path d="M89 60.1l7-2.6c1-.4 1.5-1.4 1.1-2.4l-6-16.3H79.3L86.6 59c.4 1 1.4 1.5 2.4 1.1z" fill="#593055" opacity=".2"/><path d="M88.4 61.5c-1.3 0-2.5-.8-2.9-2l-17.9-49c-.6-1.6.2-3.4 1.9-4l7-2.6c.3-.1.7-.2 1.1-.2 1.3 0 2.5.8 2.9 2l17.9 49c.6 1.6-.2 3.4-1.9 4l-7 2.6c-.4.1-.8.2-1.1.2zm-11-55.3h-.2l-7 2.6c-.3.1-.5.5-.4.8l17.9 49c.1.4.5.5.8.4l7-2.6c.3-.1.5-.5.4-.8L78 6.6c-.1-.3-.4-.4-.6-.4z" fill="#62355C"/><path d="M120.8 49H7.2C5.4 49 4 50.4 4 52.2v9.5c0 1.7 1.4 3.2 3.2 3.2H12l7 51.3c.5 4 3.9 6.9 7.8 6.9h74.5c4 0 7.3-3 7.8-6.9l7-51.3h4.8c1.7 0 3.2-1.4 3.2-3.2v-9.5a3.3 3.3 0 00-3.3-3.2zm-77.3 59.1c0 1.7-1.4 3.2-3.2 3.2-1.7 0-3.2-1.4-3.2-3.2v-30c0-1.7 1.4-3.2 3.2-3.2 1.7 0 3.2 1.4 3.2 3.2v30zm23.7 0c0 1.7-1.4 3.2-3.2 3.2-1.7 0-3.2-1.4-3.2-3.2v-30c0-1.7 1.4-3.2 3.2-3.2 1.7 0 3.2 1.4 3.2 3.2v30zm23.6 0c0 1.7-1.4 3.2-3.2 3.2s-3.2-1.4-3.2-3.2v-30c0-1.7 1.4-3.2 3.2-3.2s3.2 1.4 3.2 3.2v30z" fill="#65C5B4"/><path d="M120.8 49h-7.9c1.7 0 3.2 1.4 3.2 3.2v9.5c0 1.7-1.4 3.2-3.2 3.2h-101l1.1 7.9h94.2l-6 43.4c-.5 4-.7 6.9-4.7 6.9h4.7c4 0 7.3-3 7.8-6.9l7-51.3h4.8c1.7 0 3.2-1.4 3.2-3.2v-9.5c0-1.8-1.4-3.2-3.2-3.2z" fill="#593055" opacity=".2"/><circle cx="35.5" cy="57.9" fill="#4D4F51" r="3.2"/><path d="M95.5 57.1c.6 2.4-1.5 4.4-3.8 3.8-1.1-.3-2-1.2-2.3-2.3-.6-2.4 1.5-4.4 3.8-3.8a3 3 0 012.3 2.3z" fill="#4D4F51"/><path d="M35.5 62.3c-2.4 0-4.4-2-4.4-4.4s2-4.4 4.4-4.4 4.4 2 4.4 4.4-2 4.4-4.4 4.4zm0-6.3a1.9 1.9 0 101.9 1.9c0-1.1-.8-1.9-1.9-1.9zM92.5 62.3c-.4 0-.7 0-1.1-.1-1.6-.4-2.8-1.6-3.2-3.2-.3-1.3 0-2.7.8-3.8a4.36 4.36 0 017.7 1.6c.3 1.3 0 2.7-.8 3.8-.8 1.1-2.1 1.7-3.4 1.7zm0-6.3c-.6 0-1.1.3-1.5.7-.4.5-.5 1.1-.3 1.7.2.7.7 1.2 1.4 1.4.8.2 1.5-.1 2-.7.4-.5.5-1.1.3-1.7-.2-.7-.7-1.2-1.4-1.4h-.5z" fill="#62355C"/><g fill="#62355C"><path d="M87.7 112.5c2.4 0 4.4-2 4.4-4.4v-30c0-2.4-2-4.4-4.4-4.4s-4.4 2-4.4 4.4v30c0 2.4 2 4.4 4.4 4.4zm-1.9-34.4a1.9 1.9 0 113.8 0v30a1.9 1.9 0 11-3.8 0v-30zM64 112.5c2.4 0 4.4-2 4.4-4.4v-30c0-2.4-2-4.4-4.4-4.4s-4.4 2-4.4 4.4v30c0 2.4 2 4.4 4.4 4.4zm-1.9-34.4c0-1.1.9-1.9 1.9-1.9s1.9.9 1.9 1.9v30c0 1.1-.9 1.9-1.9 1.9s-1.9-.9-1.9-1.9v-30zM40.3 112.5c2.4 0 4.4-2 4.4-4.4v-30c0-2.4-2-4.4-4.4-4.4s-4.4 2-4.4 4.4v30c0 2.4 2 4.4 4.4 4.4zm-1.9-34.4a1.9 1.9 0 113.8 0v30a1.9 1.9 0 11-3.8 0v-30z"/><path d="M120.8 47.8H7.2c-2.4 0-4.4 2-4.4 4.4v9.5c0 2.4 2 4.4 4.4 4.4H10.9l6.9 50.2c.6 4.6 4.5 8 9.1 8h74.5c4.6 0 8.5-3.4 9.1-8l6.9-50.2H121.1c2.4 0 4.4-2 4.4-4.4v-9.5c-.3-2.5-2.2-4.4-4.7-4.4zm-13 68.2a6.6 6.6 0 01-6.6 5.8H26.8c-3.3 0-6.2-2.5-6.6-5.8l-6.8-49.9h101.3l-6.9 49.9zm15-54.3c0 1.1-.9 1.9-1.9 1.9H7.2c-1.1 0-1.9-.9-1.9-1.9v-9.5c0-1.1.9-1.9 1.9-1.9h113.7c1.1 0 1.9.9 1.9 1.9v9.5z"/></g></svg>