<svg xmlns="http://www.w3.org/2000/svg" viewBox="0 0 64 64"><style>.st0{display:none}.st2{display:inline}.st3,.st4{fill:none;stroke:#4c5159;stroke-width:2;stroke-miterlimit:10}.st4,.st5{display:inline}.st5,.st6{fill:none;stroke:#4c5159;stroke-width:2;stroke-miterlimit:10;stroke-dasharray:2}.st7{fill:#4c5159}.st8{font-family:&apos;Montserrat-Bold&apos;}.st9{font-size:7px}</style><g id="bg" class="st0"><path id="XMLID_119_" display="inline" fill="#fff" d="M-218-268.2h500v600.3h-500z"/></g><g id="icons"><g id="XMLID_21_" class="st0"><g id="XMLID_419_" class="st2"><path id="XMLID_17_" class="st3" d="M51.1 18.6h2.5c.6 0 1.1.5 1.1 1.1v26.1c0 .6-.5 1.1-1.1 1.1H10.4c-.6 0-1.1-.5-1.1-1.1V19.6c0-.6.5-1.1 1.1-1.1h15.5"/><path id="XMLID_423_" class="st3" d="M9.3 40.7h45.4"/><path id="XMLID_422_" class="st3" d="M20.7 46.3V54"/><path id="XMLID_421_" class="st3" d="M42.8 46.3V54"/><path id="XMLID_420_" class="st3" d="M16.7 54H47"/></g><g id="XMLID_13_" class="st2"><g id="XMLID_4_"><path id="XMLID_357_" class="st3" d="M16 37.9v-3.5c0-.3.2-.6.5-.7l4.3-1.5v-2.4"/><path id="XMLID_9_" class="st3" d="M29.3 37.9v-3.5c0-.3-.2-.6-.5-.7l-4.3-1.5v-2.4"/><path id="XMLID_8_" class="st3" d="M25.9 24.4c0-1.8-1.4-3.2-3.2-3.2-1.8 0-3.2 1.4-3.2 3.2l.3 3.9c0 .5.3 1 .8 1.2l1.6 1h1l1.6-1c.5-.2.8-.7.8-1.2l.3-3.9z"/><path id="XMLID_7_" class="st3" d="M20.8 32.3l1.2 1.3h1.4l1.2-1.3"/></g><path id="XMLID_86_" class="st3" d="M13.2 37.9h19.2"/></g><path id="XMLID_15_" class="st4" d="M43 16.2l-6 3.5c-.1.1-.2 0-.2-.1v-6.9c0-.1.1-.2.2-.1l6 3.5c.1-.1.1 0 0 .1l-6 3.5c-.1.1-.2 0-.2-.1v-6.9c0-.1.1-.2.2-.1l6 3.5c.1-.1.1 0 0 .1z"/><path id="XMLID_14_" class="st4" d="M34.3 29.3h14.6"/><path id="XMLID_29_" class="st4" d="M37.2 33H46"/><path id="XMLID_534_" class="st4" d="M48.8 22.4H32.2l-4.1 3.5H28V10.1c0-.1.1-.1.1-.1h20.6c.1 0 .1.1.1.1v12.2c.1.1.1.1 0 .1z"/></g><g id="XMLID_44_" class="st0"><g id="XMLID_25_" class="st2"><path id="XMLID_123_" class="st3" d="M39.7 11H24.4v6.7c2.2-.6 7.7.9 7.7.9s5.9-1.4 7.6-.9V11z"/><path id="XMLID_127_" class="st3" d="M17.5 11h29.4"/><path id="XMLID_128_" class="st3" d="M43.7 11v14.3"/></g><g id="XMLID_558_" class="st2"><path id="XMLID_562_" class="st3" d="M15.9 53v-8.4c0-.8.5-1.5 1.3-1.8l10.3-3.5v-5.8"/><path id="XMLID_561_" class="st3" d="M48.1 53v-8.4c0-.8-.5-1.5-1.3-1.8l-10.3-3.5v-5.8"/><path id="XMLID_36_" class="st3" d="M24.3 20.5l.7 9.3c.1 1.3.8 2.4 1.9 3l3.8 2.5h2.5l3.9-2.5c1.1-.6 1.9-1.7 1.9-3l.7-9.3"/><path id="XMLID_559_" class="st3" d="M27.5 39.3l3.9 3.4h1.4l3.9-3.4"/></g><path id="XMLID_556_" class="st4" d="M12.1 53h39.8"/><path id="XMLID_40_" class="st4" d="M31.4 42.7l-3.7 5.1c-.1.1-.3.1-.4 0l-3-7.3"/><path id="XMLID_48_" class="st4" d="M32.3 42.7l3.7 5.1c.1.1.3.1.4 0l3-7.3"/></g><g id="XMLID_70_" class="st0"><g id="XMLID_52_" class="st2"><path id="XMLID_51_" class="st3" d="M51.4 51.2H20.2c-3.3 0-6-2.7-6-6s2.7-6 6-6h31.2"/><path id="XMLID_55_" class="st3" d="M19.2 48.2c.8-.8 1.2-1.8 1.2-3s-.5-2.2-1.2-3"/><path id="XMLID_54_" class="st3" d="M21.9 43.2h27.6"/><path id="XMLID_50_" class="st3" d="M21.9 47.1h27.6"/></g><path id="XMLID_57_" class="st4" d="M13.2 51.2H9.7c-.1 0-.2-.1-.2-.2V13.1c0-.1.1-.2.2-.2h31.5c.1 0 .2.1.2.2v4.4"/><path id="XMLID_59_" class="st4" d="M19.9 21.9h12"/><path id="XMLID_58_" class="st4" d="M19.9 26.9h8.4"/><g id="XMLID_69_" class="st2"><path id="XMLID_62_" class="st3" d="M51 31.4c0 3.8-3.2 7-8.6 7.4-.4 0-1.7-1-2.1-1-.4 0-1.8 1-2.3 1-5.3-.4-8.5-3.6-8.5-7.4 0-3.8 3.1-7 8.5-7.4.4 0 1.8 2.2 2.2 2.2.4 0 1.8-2.3 2.2-2.2 5.5.4 8.6 3.5 8.6 7.4z"/><path id="XMLID_65_" class="st3" d="M40.4 26s-.5-5.9 3.8-6.6"/><path id="XMLID_64_" class="st3" d="M40.7 21.5s-2 .8-3.4-.1c-1.4-.8-1.6-3-1.6-3s2-.8 3.4.1c1.3.9 1.6 3 1.6 3z"/></g><path id="XMLID_73_" class="st5" d="M46.7 19.2c4.7 2.2 7.9 7 7.9 12.5 0 2.1-.5 4.2-1.3 6"/></g><g id="XMLID_76_" class="st0"><g id="XMLID_79_" class="st2"><path id="XMLID_88_" class="st3" d="M28 31.6V18.9l3.5-5.5c.1-.3.5-.3.7 0l3.4 5.5v12.8"/><path id="XMLID_81_" class="st3" d="M31.8 22.2v9.4"/><path id="XMLID_80_" class="st3" d="M28 18.9l3.7 3.8 4-3.8"/></g><g id="XMLID_77_" class="st2"><path id="XMLID_68_" class="st3" d="M14.8 50.9a17.2 17.2 0 1134.4 0"/><path id="XMLID_92_" class="st6" d="M40.7 28.6c2.7 1.1 5.1 2.8 7.1 4.8s3.6 4.4 4.8 7.1c1.1 2.7 1.7 5.6 1.7 8.7"/><path id="XMLID_91_" class="st6" d="M9.8 49a21.73 21.73 0 016.5-15.8c2-2 4.4-3.6 7.1-4.8"/><path id="XMLID_72_" class="st3" d="M38.1 34.7c2.6 4.2 4.2 9.9 4.2 16.1"/><path id="XMLID_75_" class="st3" d="M26.4 34.7c-2.6 4.2-4.2 9.9-4.2 16.1"/><path id="XMLID_441_" class="st3" d="M32 50.8V33.6"/><path id="XMLID_435_" class="st3" d="M17.4 42.7h29.8"/><path id="XMLID_93_" class="st3" d="M10.9 50.9h41.3"/></g><path id="XMLID_108_" class="st4" d="M29.7 16.2h4.1"/></g><g id="XMLID_82_" class="st0"><path id="XMLID_111_" class="st4" d="M29.4 51.8h5.4v3h-5.4z"/><path id="XMLID_110_" class="st4" d="M40.4 51.8H23.7l-1.1-2.4v-7.2h19v7.1z"/><path id="XMLID_109_" class="st4" d="M45.5 27.6a13.4 13.4 0 10-20.6 11.3v3.3h14.5v-3.3c3.7-2.4 6.1-6.6 6.1-11.3z"/><path id="XMLID_94_" class="st4" d="M22.6 47h8.2"/><g id="XMLID_118_" class="st2"><g id="XMLID_121_"><path id="XMLID_126_" class="st3" d="M25.6 36.1v-3.3c0-.3.2-.6.5-.7l4-1.4v-2.3"/><path id="XMLID_125_" class="st3" d="M38.3 36.1v-3.3c0-.3-.2-.6-.5-.7l-4-1.4v-2.3"/><path id="XMLID_124_" class="st3" d="M35 23.3c0-1.7-1.4-3.1-3.1-3.1-1.7 0-3.1 1.4-3.1 3.1l.3 3.7c0 .5.3.9.8 1.2l1.5 1h1l1.5-1c.4-.2.7-.7.8-1.2l.3-3.7z"/><path id="XMLID_122_" class="st3" d="M30.2 30.7l1.1 1.3h1.4l1.1-1.3"/></g></g><path id="XMLID_84_" class="st5" d="M18.9 40.8c-3.4-3.4-5.4-8-5.4-13.1s2.1-9.7 5.4-13.1c3.4-3.4 8-5.4 13.1-5.4s9.7 2.1 13.1 5.4c3.4 3.4 5.4 8 5.4 13.1s-2.1 9.7-5.4 13.1"/></g><g id="XMLID_143_" class="st0"><path id="XMLID_576_" class="st4" d="M48.4 54H15.6c-.3 0-.6-.3-.6-.6V10.6c0-.3.3-.6.6-.6h32.7c.3 0 .6.3.6.6v42.8c0 .3-.2.6-.5.6z"/><path id="XMLID_132_" class="st4" d="M42 15.4h2.6c.1 0 .2.1.2.2v31.8c0 .1-.1.2-.2.2h-2.7"/><path id="XMLID_130_" class="st4" d="M39.9 45.8c0 1.1-.9 1.9-2.1 1.9H19.4c-.1 0-.2-.1-.2-.2v-32c0-.1.1-.2.2-.2H34"/><path id="XMLID_131_" class="st4" d="M39.9 45.9c0-1.3-.9-2-1.8-2h-1.8V13.2h1.8c1 0 1.8.8 1.8 1.8v30.9z"/><path id="XMLID_135_" class="st4" d="M28.3 12.5H34"/><path id="XMLID_134_" class="st4" d="M27.2 12.5h-1.8"/><path id="XMLID_138_" class="st4" d="M23.1 21h10.3"/><path id="XMLID_137_" class="st4" d="M23.1 26h10.3"/><path id="XMLID_139_" class="st4" d="M23.1 31h10.3"/><path id="XMLID_140_" class="st4" d="M23.1 36h10.3"/><path id="XMLID_141_" class="st4" d="M23.1 41h10.3"/></g><g id="XMLID_146_" class="st0"><path id="XMLID_152_" class="st4" d="M28.2 25.6L22 29.2c-.1.1-.3 0-.3-.1V22c0-.1.1-.2.3-.1l6.2 3.6c.1-.1.1.1 0 .1L22 29.2c-.1.1-.3 0-.3-.1V22c0-.1.1-.2.3-.1l6.2 3.6c.1-.1.1.1 0 .1z"/><path id="XMLID_117_" class="st4" d="M23.2 14.6v-3.5c0-.1.1-.2.2-.2h26.2c.1 0 .2.1.2.2V27c0 .1-.1.2-.2.2h-3.5v6.1c0 .3-.3.4-.5.2l-6.5-6.3h-1.6"/><path id="XMLID_1112_" class="st4" d="M14.1 17.1V33c0 .1.1.2.2.2h3.5v6.1c0 .3.3.4.5.2l6.5-6.3h10c.1 0 .2-.1.2-.2V17.1c0-.1-.1-.2-.2-.2H14.4c-.2 0-.3.1-.3.2z"/><path id="XMLID_113_" class="st4" d="M8.5 53.2h19.7a3.9 3.9 0 017.8 0h19.5"/><path id="XMLID_114_" class="st4" d="M52.4 53.2l-1-6.8c0-.1-.1-.2-.2-.2H34.5l-2.5 1-2.5-1H12.8c-.1 0-.2.1-.2.2l-1 6.8"/><path id="XMLID_112_" class="st4" d="M31.8 46.7l-2.3-3.5L13 41.7"/><path id="XMLID_116_" class="st4" d="M32.5 46.7l2.3-3.5 16.5-1.5"/><path id="XMLID_120_" class="st4" d="M12.3 49.2h8"/><path id="XMLID_144_" class="st4" d="M38.7 15.1h5.6"/><path id="XMLID_129_" class="st4" d="M38.7 19.3h5.6"/><path id="XMLID_145_" class="st4" d="M38.7 23.5h5.6"/></g><g id="XMLID_258_" class="st0"><g id="XMLID_269_" class="st2"><path id="XMLID_275_" class="st3" d="M37.5 53.9v-3.5c0-.3.2-.6.5-.7l4.3-1.5v-2.4"/><path id="XMLID_272_" class="st3" d="M50.9 53.9v-3.5c0-.3-.2-.6-.5-.7l-4.3-1.5v-2.4"/><path id="XMLID_271_" class="st3" d="M47.4 40.5c0-1.8-1.4-3.2-3.2-3.2-1.8 0-3.2 1.4-3.2 3.2l.3 3.9c0 .5.3 1 .8 1.2l1.6 1h1l1.6-1c.5-.2.8-.7.8-1.2l.3-3.9z"/><path id="XMLID_270_" class="st3" d="M42.3 48.3l1.2 1.3h1.4l1.2-1.3"/></g><path id="XMLID_268_" class="st4" d="M12.8 53.9h41.1"/><g id="XMLID_260_" class="st2"><path id="XMLID_279_" class="st3" d="M18.5 53.9v-3.5c0-.3.2-.6.5-.7l4.3-1.5v-2.4"/><path id="XMLID_277_" class="st3" d="M31.9 53.9v-3.5c0-.3-.2-.6-.5-.7l-4.3-1.5v-2.4"/><path id="XMLID_262_" class="st3" d="M28.4 40.5c0-1.8-1.4-3.2-3.2-3.2-1.8 0-3.2 1.4-3.2 3.2l.3 3.9c0 .5.3 1 .8 1.2l1.6 1h1l1.6-1c.5-.2.8-.7.8-1.2l.3-3.9z"/><path id="XMLID_261_" class="st3" d="M23.3 48.3l1.2 1.3h1.4l1.2-1.3"/></g><g id="XMLID_115_" class="st2"><path id="XMLID_426_" class="st3" d="M17.1 28.1v-8.5c0-.4.3-.7.7-.7h4.5c.4 0 .7.3.7.7v8.5"/><path id="XMLID_427_" class="st3" d="M17.3 23.5H23"/></g><path id="XMLID_265_" class="st4" d="M22.7 13.6v-3.3c0-.1.1-.2.2-.2h25c.1 0 .2.1.2.2v15.1c0 .1-.1.2-.2.2h-3.3v5.8c0 .3-.3.4-.5.2l-6.2-6h-5.5"/><path id="XMLID_264_" class="st4" d="M30 16v15.1c0 .1-.1.2-.2.2H19.7v5.8c0 .3-.3.4-.5.2l-6.2-6h-2.7c-.1 0-.2-.1-.2-.2V16c0-.1.1-.2.2-.2h19.6s.1.1.1.2z"/><path id="XMLID_256_" class="st4" d="M32.9 14.2h10"/><path id="XMLID_255_" class="st4" d="M32.9 18.2h10"/><path id="XMLID_254_" class="st4" d="M32.9 22.1h10"/></g><g id="XMLID_53_" class="st0"><path id="XMLID_176_" class="st4" d="M16.1 37.4V17.2c0-1 .8-1.8 1.8-1.8h6.5c1 0 1.8.8 1.8 1.8v14.3"/><path id="XMLID_175_" class="st4" d="M29.1 30.4V12.6c0-1 .8-1.8 1.8-1.8h1.9c1.1 0 1.9.9 1.9 1.9v17.6"/><path id="XMLID_174_" class="st4" d="M37.7 31.5V16c0-1 .8-1.8 1.8-1.8h5.1c1 0 1.8.8 1.8 1.8v20.2"/><path id="XMLID_173_" class="st4" d="M18.6 19.4h5.1"/><path id="XMLID_172_" class="st4" d="M18.6 23.5h5.1"/><path id="XMLID_171_" class="st4" d="M18.6 27.6h5.1"/><path id="XMLID_170_" class="st4" d="M18.6 31.7h5.1"/><path id="XMLID_169_" class="st4" d="M18.6 35.8h2.8"/><circle id="XMLID_168_" class="st4" cx="42" cy="20.4" r="2.1"/><path id="XMLID_71_" class="st4" d="M37.1 39.1A7.39 7.39 0 0027 36.8"/><path id="XMLID_67_" class="st4" d="M21 38.3c1.8 0 3.2 1.4 3.2 3.2"/><path id="XMLID_66_" class="st4" d="M50.2 43.5H50a6.57 6.57 0 00-10-3.7c-.7-4.3-4.4-7.7-8.9-7.7-4.1 0-7.5 2.7-8.7 6.4a6.15 6.15 0 00-7.7 5h-1c-2.6 0-4.6 2.1-4.6 4.6v.3c0 2.6 2.1 4.6 4.6 4.6h36.5c2.6 0 4.6-2.1 4.6-4.6v-.3c.1-2.5-2-4.6-4.6-4.6z"/></g><g id="XMLID_193_" class="st0"><g id="XMLID_194_" class="st2"><path id="XMLID_197_" class="st3" d="M54.8 48.1v4.3c0 .2-.1.3-.3.3H12.8l-3.5-2.3c-.2-.1-.2-.3 0-.4l3.5-2.2h41.7c.2 0 .3.2.3.3z"/><path id="XMLID_196_" class="st3" d="M50.1 52.9v-5.3"/><path id="XMLID_195_" class="st3" d="M13.7 52.9v-5.3"/></g><g id="XMLID_186_" class="st2"><path id="XMLID_85_" class="st3" d="M44.9 13.3v34.3h-7.4c-12.1 0-21.8-9.8-21.8-21.8V13.3"/><path id="XMLID_97_" class="st3" d="M44.9 47.6c-4.9 0-8.9-4-8.9-8.9v-7h6.8"/><circle id="XMLID_90_" class="st3" cx="22.6" cy="21.6" r="4.9"/><circle id="XMLID_178_" class="st3" cx="22.6" cy="21.6" r="1.6"/><circle id="XMLID_102_" class="st3" cx="38.1" cy="21.6" r="4.9"/><circle id="XMLID_98_" class="st3" cx="38.1" cy="21.6" r="1.4"/><path id="XMLID_167_" class="st3" d="M49.7 11.1h-5.1c-8 0-14.4 4.7-14.4 10.5"/><path id="XMLID_149_" class="st3" d="M30.2 21.6c0-5.8-6.5-10.5-14.4-10.5h-5.1"/><path id="XMLID_177_" class="st3" d="M16.5 11.1h28.1"/><path id="XMLID_136_" class="st3" d="M27.8 26.5l2.4 2.5 2.4-2.4"/><path id="XMLID_180_" class="st3" d="M23.6 34.1v2.1"/><path id="XMLID_100_" class="st3" d="M28.5 34.1v2.1"/><path id="XMLID_181_" class="st3" d="M33.5 34.1v2.1"/><path id="XMLID_184_" class="st3" d="M26.2 39v2"/><path id="XMLID_183_" class="st3" d="M31.2 39v2"/><path id="XMLID_185_" class="st3" d="M29.3 43.8v2"/></g><path id="XMLID_188_" class="st4" d="M25.7 47.7v3.2"/><path id="XMLID_187_" class="st4" d="M28.6 47.7v3.2"/><path id="XMLID_189_" class="st4" d="M31.5 47.7v3.2"/><path id="XMLID_192_" class="st4" d="M36.3 47.7v3.2"/><path id="XMLID_191_" class="st4" d="M39.2 47.7v3.2"/><path id="XMLID_190_" class="st4" d="M42.1 47.7v3.2"/></g><g id="XMLID_158_"><path id="XMLID_610_" class="st3" d="M27.3 10.4H16.2c-1.9 0-3.4 1.5-3.4 3.4v10.8h4.9"/><path id="XMLID_205_" class="st3" d="M40.6 52.7h10.5s.1 0 .1-.1v-42c0-.1-.1-.2-.2-.2H16.2c2.2 0 3.4 1.7 3.4 3.4v38.7c0 .1.1.2.2.2h10.7"/><path id="XMLID_203_" class="st3" d="M24.4 15.5h8.3"/><path id="XMLID_202_" class="st3" d="M24.4 22.1h21.8"/><path id="XMLID_201_" class="st3" d="M24.4 26.9h21.8"/><path id="XMLID_199_" class="st3" d="M24.4 31.7h21.8"/><path id="XMLID_163_" class="st3" d="M32.7 49.4v4c0 .2.2.3.3.2l2.3-.9 2.3.9c.1.1.3 0 .3-.2v-4"/><path id="XMLID_496_" class="st3" d="M41.7 42.1c0 .8-.8 1.5-1.1 2.2-.3.7-.3 1.8-.8 2.3-.6.6-1.6.5-2.3.8-.7.3-1.4 1.1-2.2 1.1-.8 0-1.5-.8-2.2-1.1-.7-.3-1.8-.3-2.3-.8-.6-.6-.5-1.6-.8-2.3-.3-.7-1.1-1.4-1.1-2.2 0-.8.8-1.5 1.1-2.2.3-.7.3-1.8.8-2.3.6-.6 1.6-.5 2.3-.8.7-.3 1.4-1.1 2.2-1.1.8 0 1.5.8 2.2 1.1.7.3 1.8.3 2.3.8.6.6.5 1.6.8 2.3.4.7 1.1 1.3 1.1 2.2z"/></g><g id="XMLID_230_" class="st0"><path id="XMLID_215_" class="st4" d="M29.4 52.2h5.4v3h-5.4z"/><path id="XMLID_214_" class="st4" d="M40.6 52.2h-17l-1.1-2.4v-7.3h19.2v7.2z"/><path id="XMLID_212_" class="st4" d="M45.7 27.8a13.5 13.5 0 10-20.8 11.4v3.4h14.7v-3.4c3.6-2.4 6.1-6.6 6.1-11.4z"/><path id="XMLID_210_" class="st4" d="M22.5 47.4h8.3"/><path id="XMLID_228_" class="st5" d="M18.4 40c-3.2-3.5-5.1-8.2-4.9-13.4.2-5.1 2.5-9.7 5.9-12.9 3.5-3.2 8.2-5.1 13.4-4.9 5.1.2 9.7 2.5 12.9 5.9 3.2 3.5 5.1 8.2 4.9 13.4-.2 5.1-2.5 9.7-5.9 12.9"/><g id="XMLID_216_" class="st2"><path id="XMLID_207_" class="st3" d="M32.1 18.3v5.4"/><path id="XMLID_206_" class="st3" d="M29.6 20.3l2.5-2.6 2.6 2.6"/></g><g id="XMLID_217_" class="st2"><path id="XMLID_219_" class="st3" d="M41.2 27.3h-5.4"/><path id="XMLID_218_" class="st3" d="M39.2 24.8l2.5 2.6-2.5 2.5"/></g><g id="XMLID_221_" class="st2"><path id="XMLID_224_" class="st3" d="M32.1 36.4V31"/><path id="XMLID_222_" class="st3" d="M34.7 34.4L32.1 37l-2.6-2.6"/></g><g id="XMLID_225_" class="st2"><path id="XMLID_227_" class="st3" d="M23 27.3h5.4"/><path id="XMLID_226_" class="st3" d="M25 29.9l-2.5-2.6 2.5-2.5"/></g></g><g id="XMLID_229_" class="st0"><path id="XMLID_232_" class="st4" d="M32.1 34.7l22.7-11.2c.2-.1.2-.3 0-.4L32.1 12h-.2L9.2 23.1c-.2.1-.2.3 0 .4l22.7 11.2c.1.1.1.1.2 0z"/><path id="XMLID_233_" class="st4" d="M18.1 30.3v10.4h7.5c2.3 0 4.5.8 6.2 2.4h.2c1.7-1.5 3.9-2.4 6.2-2.4h7.7V30.3"/><path id="XMLID_231_" class="st4" d="M51.2 28.1v16.6c-.9 1.5-1.4 3.2-1.4 5v2.4H54V46"/></g><g id="XMLID_236_" class="st0"><g id="XMLID_242_" class="st2"><path id="XMLID_245_" class="st3" d="M55.6 42.7v4.4c0 .2-.1.3-.3.3H12.1l-3.6-2.3c-.2-.1-.2-.4 0-.4l3.6-2.3h43.2c.2 0 .3.2.3.3z"/><path id="XMLID_244_" class="st3" d="M50.8 47.7v-5.5"/><path id="XMLID_243_" class="st3" d="M13.1 47.7v-5.5"/></g><path id="XMLID_240_" class="st5" d="M9.8 38.5c0-12.3 10-22.2 22.2-22.2 12.3 0 22.2 10 22.2 22.2"/><g id="XMLID_310_" class="st2"><path id="XMLID_235_" class="st3" d="M50 40.4v-2.3l-5.3-.7c-.3-1.4-.9-2.7-1.6-4l2.5-3.9-3-3-3.9 2.5c-1.2-.8-2.6-1.3-3.9-1.6L34 23h-4.2l-1.1 4.4c-1.4.3-2.7.9-4 1.6l-3.9-2.5-3 3 2.5 3.8c-.8 1.2-1.3 2.6-1.6 4l-4.6.8v2.3"/><path id="XMLID_289_" class="st3" d="M24.7 40.4c0-3.8 3.1-6.9 6.9-6.9 3.8 0 6.9 3.1 6.9 6.9"/></g></g><g id="XMLID_241_" class="st0"><path id="XMLID_266_" class="st4" d="M34.9 31.1l-6.2 3.6c-.1.1-.3 0-.3-.1v-7.1c0-.1.1-.2.3-.1l6.2 3.6c.1-.1.1.1 0 .1l-6.2 3.6c-.1.1-.3 0-.3-.1v-7.1c0-.1.1-.2.3-.1l6.2 3.6c.1-.1.1.1 0 .1z"/><path id="XMLID_252_" class="st4" d="M31.3 54.1h-4.2c-.9 0-1.6-.7-1.6-1.6 0-.9.7-1.6 1.6-1.6h4.2c.9 0 1.6.7 1.6 1.6 0 .9-.7 1.6-1.6 1.6z"/><path id="XMLID_250_" class="st4" d="M16.5 36.6h-3.4a3 3 0 01-3-3v-4.4a3 3 0 013-3h3.4v10.4z"/><path id="XMLID_248_" class="st4" d="M47.5 36.6h3.4a3 3 0 003-3v-4.4a3 3 0 00-3-3h-3.4v10.4z"/><path id="XMLID_239_" class="st4" d="M32 52.6c8.5 0 15.5-7 15.5-15.5v-3.2"/><path id="XMLID_267_" class="st4" d="M42.6 31c0 6-4.8 10.8-10.8 10.8C25.8 41.8 21 37 21 31s4.8-10.8 10.8-10.8"/><path id="XMLID_238_" class="st5" d="M31.8 20.2c6 0 10.8 4.8 10.8 10.8"/><path id="XMLID_253_" class="st4" d="M47.5 28.1v-2.7c0-8.6-6.9-15.5-15.5-15.5s-15.5 6.9-15.5 15.5v2.7"/></g><g id="XMLID_309_" class="st0"><g id="XMLID_305_" class="st2"><g id="XMLID_274_"><path id="XMLID_281_" class="st3" d="M23.4 33.4c-.9.9-2 1.4-3.4 1.4a4.76 4.76 0 01-4.8-4.8 4.76 4.76 0 014.8-4.8c1.3 0 2.5.5 3.4 1.4"/><path id="XMLID_263_" class="st3" d="M20 25.3a4.01 4.01 0 013.3-6.3c.8 0 1.5.2 2.2.6"/><path id="XMLID_283_" class="st3" d="M23.6 19c0-1.9 1.6-3.5 3.5-3.5s3.5 1.6 3.5 3.5v26.4c0 1.5-1.1 2.7-2.6 2.7s-2.7-1.2-2.7-2.7c0-.5.1-1 .4-1.4"/><path id="XMLID_282_" class="st3" d="M22.3 41.4a4.44 4.44 0 01-6.3-4c0-1.3.6-2.5 1.5-3.3"/><path id="XMLID_285_" class="st3" d="M25.6 45.3c-.6.4-1.4.6-2.2.6-2.4 0-4.3-1.9-4.3-4.3"/></g><g id="XMLID_280_"><path id="XMLID_303_" class="st3" d="M41 33.4c.9.9 2 1.4 3.4 1.4a4.76 4.76 0 004.8-4.8 4.76 4.76 0 00-4.8-4.8c-1.3 0-2.5.5-3.4 1.4"/><path id="XMLID_301_" class="st3" d="M44.4 25.3a4.01 4.01 0 00-3.3-6.3c-.8 0-1.5.2-2.2.6"/><path id="XMLID_287_" class="st3" d="M40.8 19c0-1.9-1.6-3.5-3.5-3.5S33.8 17 33.8 19v26.4c0 1.5 1.1 2.7 2.6 2.7s2.7-1.2 2.7-2.7c0-.5-.1-1-.4-1.4"/><path id="XMLID_286_" class="st3" d="M42.1 41.4a4.44 4.44 0 006.3-4c0-1.3-.6-2.5-1.5-3.3"/><path id="XMLID_284_" class="st3" d="M38.8 45.3c.6.4 1.4.6 2.2.6 2.4 0 4.3-1.9 4.3-4.3"/></g><path id="XMLID_312_" class="st3" d="M26.5 27.1c0-2.1 1.7-3.8 3.8-3.8"/><path id="XMLID_314_" class="st3" d="M36.5 32.1c0-2.1 1.7-3.8 3.8-3.8"/><path id="XMLID_316_" class="st3" d="M38.3 41.7c0-2.1-1.7-3.8-3.8-3.8"/><path id="XMLID_313_" class="st3" d="M23.7 40.3c0-2.2 1.8-3.9 3.9-3.9"/></g><path id="XMLID_311_" class="st4" d="M32 53.7C20 53.7 10.3 44 10.3 32S20 10.3 32 10.3"/><path id="XMLID_306_" class="st5" d="M32 10.3c12 0 21.7 9.7 21.7 21.7S44 53.7 32 53.7"/></g><g id="XMLID_320_" class="st0"><path id="XMLID_319_" class="st4" d="M12.8 48.4V10.5c0-.1.1-.2.2-.2h36.8c.1 0 .2.1.2.2v32.4c0 .1-.1.2-.2.2H18.1c-2.9 0-5.3 2.4-5.3 5.3s2.4 5.3 5.3 5.3h33.1"/><path id="XMLID_318_" class="st4" d="M22.7 46.5h26.2"/><path id="XMLID_317_" class="st4" d="M22.7 50.4h26.2"/><path id="XMLID_321_" class="st4" d="M18.1 46.2c1.3 0 2.3 1 2.3 2.3 0 1.3-1 2.3-2.3 2.3"/><path id="XMLID_524_" class="st4" d="M39.7 22.4c0-2.5-2-4.6-4.6-4.6-1.3 0-2.4.5-3.2 1.4-.8-.8-2-1.4-3.2-1.4a4.59 4.59 0 00-3.3 7.8l6.5 6.5 6.7-6.6.3-.3c.4-.9.8-1.8.8-2.8z"/></g><g id="XMLID_323_" class="st0"><path id="XMLID_337_" class="st4" d="M28.4 32.9V22l3-4.7c.1-.2.5-.2.6 0l3 4.7v10.9"/><path id="XMLID_333_" class="st4" d="M19.6 21.7c0 4.3 2.2 8 5.5 10.2"/><path id="XMLID_334_" class="st5" d="M43.8 21.7c0-6.7-5.4-12.1-12.1-12.1-6.7 0-12.1 5.4-12.1 12.1"/><path id="XMLID_332_" class="st4" d="M38.2 31.8c3.3-2.2 5.5-5.9 5.5-10.2"/><path id="XMLID_330_" class="st4" d="M31.7 24.8v8.1"/><path id="XMLID_329_" class="st4" d="M28.4 22l3.2 3.3L35 22"/><path id="XMLID_327_" class="st4" d="M50.1 54.4v-6.9s0-.1-.1-.1H35.7s-.1 0-.1.1v6.9"/><path id="XMLID_326_" class="st4" d="M38.1 47.5v-8.9c.1-.5.4-1.3.8-1.7l5.4-5.8c1.3-1.7 4.1.1 2.6 1.7l-4.3 6h2.1l5.2-5.6s.3-3.4.4-3.9L47.9 23c-.4-1-.5-2.2-.1-3.3.3-.8.7-1.5 1-1.7l4.3 10.7c.2.4.1 6.2.1 6.2l-6 12.5"/><path id="XMLID_325_" class="st4" d="M13.9 54.4v-6.9s0-.1.1-.1h14.3s.1 0 .1.1v6.9"/><path id="XMLID_324_" class="st4" d="M25.9 47.5v-8.9c-.1-.5-.4-1.3-.8-1.7L19.7 31c-1.3-1.7-4.1.1-2.6 1.7l4.3 6h-2.1l-5.2-5.6s-.3-3.4-.4-3.9l2.5-6.2c.4-1 .5-2.2.1-3.3-.3-.8-.7-1.5-1-1.7L11 28.7c-.2.4-.1 6.2-.1 6.2l6 12.5"/></g><g id="XMLID_340_" class="st0"><circle id="XMLID_338_" class="st4" cx="32" cy="39.9" r="13.8"/><circle id="XMLID_345_" class="st4" cx="32" cy="39.9" r="7.7"/><path id="XMLID_341_" class="st4" d="M27.8 11l7.8 15.6"/><path id="XMLID_339_" class="st4" d="M22.4 30.1L12.8 11"/><path id="XMLID_343_" class="st4" d="M35.9 11l-4.1 8"/><path id="XMLID_342_" class="st4" d="M41.2 29.7l10-19.4"/><path id="XMLID_347_" class="st4" d="M32 28.9v2.7"/><path id="XMLID_346_" class="st4" d="M37.5 30.4l-1.3 2.3"/><path id="XMLID_348_" class="st4" d="M41.5 34.4l-2.3 1.3"/><path id="XMLID_350_" class="st4" d="M43 39.9h-2.7"/><path id="XMLID_351_" class="st4" d="M41.5 45.4l-2.3-1.3"/><path id="XMLID_354_" class="st4" d="M37.5 49.4l-1.3-2.3"/><path id="XMLID_355_" class="st4" d="M32 50.9v-2.7"/><path id="XMLID_356_" class="st4" d="M26.5 49.5l1.4-2.4"/><path id="XMLID_358_" class="st4" d="M22.5 45.5l2.3-1.4"/><path id="XMLID_359_" class="st4" d="M21 40h2.7"/><path id="XMLID_360_" class="st4" d="M22.4 34.5l2.4 1.3"/><path id="XMLID_361_" class="st4" d="M26.4 30.4l1.4 2.3"/><g id="XMLID_362_" class="st2"><path id="XMLID_363_" class="st3" d="M29.2 35.7h2.7c.2 0 .4.2.4.4v8"/><path id="XMLID_364_" class="st3" d="M29.9 44.1h4.9"/></g></g><g id="XMLID_367_" class="st0"><circle id="XMLID_353_" class="st4" cx="32" cy="32" r="2.2"/><circle id="XMLID_365_" class="st4" cx="36.4" cy="16.1" r="2.2"/><circle id="XMLID_371_" class="st4" cx="48.3" cy="27.8" r="2.2"/><circle id="XMLID_368_" class="st4" cx="20.3" cy="20.1" r="2.2"/><path id="XMLID_366_" class="st4" d="M37.6 19.7c.8 3.5 1.3 7.7 1.3 12.3 0 11.6-3.1 21-6.9 21-3.8 0-6.9-9.4-6.9-21s3.1-21 6.9-21c1 0 2 .6 2.8 1.8"/><path id="XMLID_372_" class="st4" d="M45.8 30.4c-2.6 2.5-6.2 5.2-10.3 7.6-10 5.8-19.7 7.8-21.7 4.5-1.9-3.3 4.7-10.7 14.7-16.5 10-5.8 19.7-7.8 21.7-4.5.4.7.4 1.7.1 2.7"/><path id="XMLID_373_" class="st4" d="M18.1 30.3c2.6 2.6 6.2 5.3 10.4 7.7 10 5.8 19.7 7.8 21.7 4.5 1.9-3.3-4.7-10.7-14.7-16.5-4-2.3-7.9-4-11.3-5"/><path id="XMLID_349_" class="st5" d="M16.4 20c-1.2.2-2.1.7-2.5 1.5-1.1 1.9.6 5.2 4.3 8.8"/></g><g id="XMLID_380_" class="st0"><g id="XMLID_375_" class="st2"><path id="XMLID_382_" class="st3" d="M32.1 28.9l19.3-9.5c.1-.1.1-.3 0-.4L32.1 9.6h-.2l-19.3 9.5c-.1.1-.1.3 0 .4L31.9 29c.1-.1.1-.1.2-.1z"/><path id="XMLID_384_" class="st3" d="M39 33.9h4.8v-8.8"/><path id="XMLID_383_" class="st3" d="M20.2 25.1v8.8h5.5"/><path id="XMLID_378_" class="st3" d="M48.3 23.3v14.1c-.8 1.3-1.2 2.7-1.2 4.2v2h3.6v-5.1"/></g><path id="XMLID_389_" class="st4" d="M32.4 49.1a5.8 5.8 0 01-5.8-5.8v-4.7a5.8 5.8 0 0111.6 0v4.7c-.1 3.2-2.7 5.8-5.8 5.8z"/><path id="XMLID_388_" class="st4" d="M25.7 39.7h12.4"/><path id="XMLID_387_" class="st4" d="M32.4 35.2v2.4"/><path id="XMLID_385_" class="st5" d="M43.8 49.5c-3 3-7.2 4.9-11.8 4.9s-8.8-1.9-11.8-4.9"/></g><g id="XMLID_403_" class="st0"><g id="XMLID_392_" class="st2"><path id="XMLID_400_" class="st3" d="M29.1 30.7V21l2.7-4.2c.1-.2.4-.2.5 0L35 21v9.8"/><path id="XMLID_399_" class="st3" d="M29.8 40.2h4.3v2.4h-4.3z"/><path id="XMLID_398_" class="st3" d="M38.8 40.2H25.2l-.9-1.9v-5.8h15.4v5.7z"/><path id="XMLID_397_" class="st3" d="M42.9 20.7c0-6-4.8-10.8-10.8-10.8a10.8 10.8 0 00-5.8 19.9v2.7H38v-2.7c2.9-2 4.9-5.3 4.9-9.1z"/><path id="XMLID_396_" class="st3" d="M24.3 36.3H31"/><path id="XMLID_395_" class="st3" d="M32.1 23.5v7.2"/><path id="XMLID_393_" class="st3" d="M29.1 21l2.9 2.9 3-2.9"/></g><path id="XMLID_402_" class="st4" d="M32 42.7v12"/><path id="XMLID_401_" class="st4" d="M39.9 45.8s.4 3.3-1.2 4.6c-1.7 1.3-4.8.3-4.8.3s-.4-3.3 1.2-4.6c1.7-1.4 4.8-.3 4.8-.3z"/><path id="XMLID_405_" class="st4" d="M24.4 47.9s-.4 3.3 1.2 4.6c1.7 1.3 4.8.3 4.8.3s.4-3.3-1.2-4.6c-1.7-1.3-4.8-.3-4.8-.3z"/><path id="XMLID_408_" class="st4" d="M18 20.5h-3.3"/><path id="XMLID_406_" class="st4" d="M18.9 15.7l-3.4-1.2"/><path id="XMLID_409_" class="st4" d="M21.3 11.5l-2.6-2.2"/><path id="XMLID_414_" class="st4" d="M42.7 11.5l2.6-2.2"/><path id="XMLID_415_" class="st4" d="M45.1 15.7l3.2-1.2"/><path id="XMLID_416_" class="st4" d="M46 20.4h3.3"/><path id="XMLID_417_" class="st4" d="M45.1 25.2l3.2 1.1"/><path id="XMLID_418_" class="st4" d="M42.7 29.4l2.6 2.1"/><path id="XMLID_430_" class="st4" d="M21.4 29.5l-2.7 2.4"/><path id="XMLID_431_" class="st4" d="M18.9 25.4l-3.2.9"/></g><g id="XMLID_413_" class="st0"><g id="XMLID_412_" class="st2"><g id="XMLID_429_"><path id="XMLID_442_" class="st3" d="M40 33.8c.8.8 1.8 1.2 3 1.2s2.2-.5 3-1.2c.8-.8 1.2-1.8 1.2-3s-.5-2.2-1.2-3c-.8-.8-1.8-1.2-3-1.2s-2.2.5-3 1.2"/><path id="XMLID_439_" class="st3" d="M43 26.6a3.6 3.6 0 00-3-5.6c-.7 0-1.4.2-1.9.6"/><path id="XMLID_432_" class="st3" d="M39.8 21c0-1.7-1.4-3.1-3.1-3.1-1.7 0-3.1 1.4-3.1 3.1v18.4"/><path id="XMLID_433_" class="st3" d="M45.3 34.4c.8.7 1.4 1.8 1.4 3v2"/></g><g id="XMLID_437_"><path id="XMLID_446_" class="st3" d="M23.8 33.8c-.8.8-1.8 1.2-3 1.2s-2.2-.5-3-1.2c-.8-.8-1.2-1.8-1.2-3s.5-2.2 1.2-3c.8-.8 1.8-1.2 3-1.2s2.2.5 3 1.2"/><path id="XMLID_445_" class="st3" d="M20.8 26.6a3.6 3.6 0 013-5.6c.7 0 1.4.2 1.9.6"/><path id="XMLID_444_" class="st3" d="M24 21c0-1.7 1.4-3.1 3.1-3.1 1.7 0 3.1 1.4 3.1 3.1v18.4"/><path id="XMLID_443_" class="st3" d="M18.5 34.4c-.8.7-1.4 1.8-1.4 3v2"/></g><path id="XMLID_428_" class="st3" d="M26.1 28.3c0-1.9 1.5-3.4 3.4-3.4"/><path id="XMLID_425_" class="st3" d="M36 32.7c0-1.9 1.5-3.4 3.4-3.4"/></g><g id="XMLID_447_" class="st2"><path id="XMLID_453_" class="st3" d="M23.8 44.6H41"/><path id="XMLID_404_" class="st3" d="M23.6 53.5h-3.3c-.1 0-.2-.1-.2-.2v-13c0-.1.1-.2.2-.2h3.3c.1 0 .2.1.2.2v13.1s-.1.1-.2.1z"/><path id="XMLID_411_" class="st3" d="M19.7 51.8H17c-.1 0-.2-.1-.2-.2v-9.5c0-.1.1-.2.2-.2h2.7"/><path id="XMLID_424_" class="st3" d="M16.6 49.7h-2.7c-.1 0-.2-.1-.2-.2v-5.3c0-.1.1-.2.2-.2h2.7"/><path id="XMLID_450_" class="st3" d="M40.8 53.5h3.3c.1 0 .2-.1.2-.2v-13c0-.1-.1-.2-.2-.2h-3.3c-.1 0-.2.1-.2.2v13.1s.1.1.2.1z"/><path id="XMLID_449_" class="st3" d="M44.8 51.8h2.7c.1 0 .2-.1.2-.2v-9.5c0-.1-.1-.2-.2-.2h-2.7"/><path id="XMLID_448_" class="st3" d="M47.9 49.7h2.7c.1 0 .2-.1.2-.2v-5.3c0-.1-.1-.2-.2-.2h-2.7"/><path id="XMLID_407_" class="st3" d="M23.8 48.8H41"/></g><path id="XMLID_451_" class="st5" d="M13.3 38c-1-2.4-1.5-5.1-1.4-7.9A20.26 20.26 0 0118.2 16c1.9-1.8 4.1-3.2 6.5-4.1 2.4-1 5.1-1.5 7.9-1.4a20.26 20.26 0 0114.1 6.3c1.8 1.9 3.2 4.1 4.1 6.5 1 2.4 1.5 5.1 1.4 7.9-.1 2.8-.7 5.4-1.8 7.8"/></g><g id="XMLID_434_" class="st0"><path id="XMLID_518_" class="st4" d="M13.1 52.8V10.5c0-.1.1-.2.2-.2h37.5c.1 0 .2.1.2.2v34.9"/><path id="XMLID_517_" class="st4" d="M13.2 16.4h37.7"/><path id="XMLID_515_" class="st4" d="M15.6 13.5H18"/><path id="XMLID_514_" class="st4" d="M20 13.5h2.4"/><path id="XMLID_506_" class="st4" d="M24.4 13.5h2.3"/><path id="XMLID_512_" class="st4" d="M50.6 51.5l-2.2 2.2c-.1.1-.2.1-.3 0L42.6 48c-.1-.1-.1-.2 0-.3l2.2-2.2c.1-.1.2-.1.3 0l5.6 5.6c0 .2 0 .3-.1.4z"/><path id="XMLID_510_" class="st4" d="M41.3 44.3l1.9 2"/><circle id="XMLID_507_" class="st4" cx="31.6" cy="34.8" r="13.7"/><g id="XMLID_612_" class="st2"><circle id="XMLID_619_" class="st3" cx="31.6" cy="34.8" r="10.6"/><path id="XMLID_618_" class="st3" d="M35.3 24.9c1.6 2.6 2.6 6.1 2.6 9.9 0 3.9-1 7.4-2.6 10"/><path id="XMLID_617_" class="st3" d="M28.1 24.9c-1.6 2.6-2.6 6.1-2.6 9.9 0 3.9 1 7.4 2.6 10"/><path id="XMLID_616_" class="st3" d="M31.6 24.2v21.2"/><path id="XMLID_615_" class="st3" d="M21 34.8h21.2"/><path id="XMLID_614_" class="st3" d="M22.6 29.8h18.3"/><path id="XMLID_613_" class="st3" d="M22.3 39.8h18.4"/></g></g><g id="XMLID_478_" class="st0"><path id="XMLID_504_" class="st4" d="M27.6 23.5l-6 3.5c-.1.1-.2 0-.2-.1V20c0-.1.1-.2.2-.1l6 3.5c.2-.1.2 0 0 .1l-6 3.5c-.1.1-.2 0-.2-.1V20c0-.1.1-.2.2-.1l6 3.5c.2-.1.2 0 0 .1z"/><path id="XMLID_454_" class="st4" d="M54.1 54.1H9.9c-.1 0-.2-.1-.2-.2V35.4c0-.1.1-.2.2-.2H54c.1 0 .2.1.2.2v18.5c.1.1 0 .2-.1.2z"/><path id="XMLID_455_" class="st4" d="M15.3 41.7v-2.8h2.5"/><path id="XMLID_456_" class="st4" d="M20.6 41.7v-2.8h2.5"/><path id="XMLID_457_" class="st4" d="M25.9 41.7v-2.8h2.5"/><path id="XMLID_458_" class="st4" d="M31.3 41.7v-2.8h2.5"/><path id="XMLID_459_" class="st4" d="M36.6 41.7v-2.8h2.5"/><path id="XMLID_460_" class="st4" d="M41.9 41.7v-2.8h2.5"/><path id="XMLID_461_" class="st4" d="M47.3 41.7v-2.8h2.5"/><path id="XMLID_474_" class="st4" d="M15.3 46.7v-2.8h2.5"/><path id="XMLID_473_" class="st4" d="M20.6 46.7v-2.8h2.5"/><path id="XMLID_471_" class="st4" d="M25.9 46.7v-2.8h2.5"/><path id="XMLID_469_" class="st4" d="M31.3 46.7v-2.8h2.5"/><path id="XMLID_465_" class="st4" d="M36.6 46.7v-2.8h2.5"/><path id="XMLID_463_" class="st4" d="M41.9 46.7v-2.8h2.5"/><path id="XMLID_462_" class="st4" d="M47.3 46.7v-2.8h2.5"/><path id="XMLID_481_" class="st4" d="M15.3 51.7v-2.8h2.5"/><path id="XMLID_480_" class="st4" d="M20.6 51.7v-2.8h2.5"/><path id="XMLID_479_" class="st4" d="M25.9 51.7v-2.8h13.2"/><path id="XMLID_476_" class="st4" d="M41.9 51.7v-2.8h2.5"/><path id="XMLID_475_" class="st4" d="M47.3 51.7v-2.8h2.5"/><path id="XMLID_493_" class="st4" d="M15.1 33.1v-23c0-.1.1-.2.2-.2h32.5c.1 0 .2.1.2.2v23"/><path id="XMLID_492_" class="st4" d="M15.2 15.6h32.7"/><path id="XMLID_491_" class="st4" d="M18.5 12.9h2.3"/><path id="XMLID_490_" class="st4" d="M22.1 12.9h2.3"/><path id="XMLID_489_" class="st4" d="M25.8 12.9H28"/><path id="XMLID_477_" class="st4" d="M18.5 30.4h12.4v-7"/><path id="XMLID_502_" class="st4" d="M34.8 20.7h9.6"/><path id="XMLID_501_" class="st4" d="M34.8 24.7h9.6"/><path id="XMLID_503_" class="st4" d="M34.8 28.6h5.7"/></g></g><g id="Icon_text" class="st0"><g id="XMLID_16_" class="st2"><text id="XMLID_300_" transform="translate(-164.71 -76.83)"><tspan x="0" y="0" class="st7 st8 st9">ONLINE </tspan><tspan x="-6.8" y="7" class="st7 st8 st9">EDUCATION</tspan></text></g><g id="XMLID_49_" class="st2"><text id="XMLID_302_" transform="translate(-75.44 -76.83)" class="st7 st8 st9">STUDENT</text></g><g id="XMLID_74_" class="st2"><text id="XMLID_304_" transform="translate(16.24 -76.83)"><tspan x="0" y="0" class="st7 st8 st9">BACK TO</tspan><tspan x=".8" y="7" class="st7 st8 st9">SCHOOL</tspan></text></g><g id="XMLID_78_" class="st2"><text id="XMLID_307_" transform="translate(109.2 -76.83)"><tspan x="0" y="0" class="st7 st8 st9">GLOBAL</tspan><tspan x="-7.3" y="7" class="st7 st8 st9">EDUCATION</tspan></text></g><g id="XMLID_87_" class="st2"><text id="XMLID_308_" transform="translate(196.12 -76.83)"><tspan x="0" y="0" class="st7 st8 st9">CREATIVE</tspan><tspan x="-.9" y="7" class="st7 st8 st9">TEACHING</tspan></text></g><g id="XMLID_142_" class="st2"><text id="XMLID_328_" transform="translate(-164.46 18.17)" class="st7 st8 st9">E-BOOK</text></g><g id="XMLID_147_" class="st2"><text id="XMLID_331_" transform="translate(20.03 18.17)"><tspan x="0" y="0" class="st7 st8 st9">AUDIO</tspan><tspan x="1.3" y="7" class="st7 st8 st9">BOOK</tspan></text></g><g id="XMLID_56_" class="st2"><text id="XMLID_336_" transform="translate(-71.64 18.17)"><tspan x="0" y="0" class="st7 st8 st9">CLOUD</tspan><tspan x="-2.6" y="7" class="st7 st8 st9">LIBRARY</tspan></text></g><g id="XMLID_198_" class="st2"><text id="XMLID_352_" transform="translate(101.21 18.17)" class="st7 st8 st9">SMART OWL</text></g><g id="XMLID_200_" class="st2"><text id="XMLID_369_" transform="translate(197.06 18.17)" class="st7 st8 st9">DIPLOMA</text></g><g id="XMLID_204_" class="st2"><text id="XMLID_370_" transform="translate(-166.64 114.67)"><tspan x="0" y="0" class="st7 st8 st9">SHARING</tspan><tspan x="-7" y="7" class="st7 st8 st9">KNOWLEDGE</tspan></text></g><g id="XMLID_234_" class="st2"><text id="XMLID_376_" transform="translate(-78.88 114.67)"><tspan x="0" y="0" class="st7 st8 st9">GRADUATE</tspan><tspan x="12.6" y="7" class="st7 st8 st9">CAP</tspan></text></g><g id="XMLID_237_" class="st2"><text id="XMLID_377_" transform="translate(10.46 114.67)"><tspan x="0" y="0" class="st7 st8 st9">EDUCATION</tspan><tspan x="14.5" y="7" class="st7 st8 st9">APP</tspan></text></g><g id="XMLID_257_" class="st2"><text id="XMLID_379_" transform="translate(102.5 114.67)"><tspan x="0" y="0" class="st7 st8 st9">LANGUAGE</tspan><tspan x="5.1" y="7" class="st7 st8 st9">COURSE</tspan></text></g><g id="XMLID_259_" class="st2"><text id="XMLID_484_" transform="translate(201.2 114.67)"><tspan x="0" y="0" class="st7 st8 st9">GROUP</tspan><tspan x="1.4" y="7" class="st7 st8 st9">CLASS</tspan></text></g><g id="XMLID_315_" class="st2"><text id="XMLID_485_" transform="translate(-161.33 210.67)" class="st7 st8 st9">BRAIN</text></g><g id="XMLID_322_" class="st2"><text id="XMLID_486_" transform="translate(-77.04 210.67)"><tspan x="0" y="0" class="st7 st8 st9">FAVORITE</tspan><tspan x="1.4" y="7" class="st7 st8 st9">LESSONS</tspan></text></g><g id="XMLID_335_" class="st2"><text id="XMLID_487_" transform="translate(10.46 210.67)"><tspan x="0" y="0" class="st7 st8 st9">EDUCATION</tspan><tspan x="6.7" y="7" class="st7 st8 st9">FOR ALL</tspan></text></g><g id="XMLID_344_" class="st2"><text id="XMLID_488_" transform="translate(108.94 210.67)" class="st7 st8 st9">SPORTS</text></g><g id="XMLID_374_" class="st2"><text id="XMLID_494_" transform="translate(197.92 210.67)" class="st7 st8 st9">SCIENCE</text></g><g id="XMLID_390_" class="st2"><text id="XMLID_495_" transform="translate(-163.68 306.67)"><tspan x="0" y="0" class="st7 st8 st9">ONLINE</tspan><tspan x="-10.7" y="7" class="st7 st8 st9">GRADUATION</tspan></text></g><g id="XMLID_410_" class="st2"><text id="XMLID_497_" transform="translate(-82.79 306.67)" class="st7 st8 st9">INNOVATION</text></g><g id="XMLID_452_" class="st2"><text id="XMLID_498_" transform="translate(20.76 306.67)"><tspan x="0" y="0" class="st7 st8 st9">BRAIN</tspan><tspan x="-6.3" y="7" class="st7 st8 st9">TRAINING</tspan></text></g><g id="XMLID_438_" class="st2"><text id="XMLID_499_" transform="translate(103.48 306.67)" class="st7 st8 st9">RESEARCH</text></g><g id="XMLID_482_" class="st2"><text id="XMLID_500_" transform="translate(200.21 306.67)"><tspan x="0" y="0" class="st7 st8 st9">ONLINE</tspan><tspan x="-6.3" y="7" class="st7 st8 st9">TUTORIALS</tspan></text></g></g><g id="headline" class="st0"><circle id="XMLID_61_" cx="-133.5" cy="-208.4" r="18.3" display="inline" fill="#74e2f0"/><circle id="XMLID_60_" cx="-110.1" cy="-208.4" r="18.3" display="inline" fill="#fbda73"/><circle id="XMLID_63_" cx="-122.7" cy="-190.1" r="18.3" display="inline" fill="#f08e70"/><g id="XMLID_1_" class="st2"><text id="XMLID_505_" transform="translate(-183.76 -194.09)"><tspan x="0" y="0" fill="#231f20" font-family="Oswald-Bold" font-size="22.51">FLAT </tspan><tspan x="45.5" y="0" fill="#231f20" font-family="Oswald-Light" font-size="22.51">LINE </tspan><tspan x="83.9" y="0" fill="#231f20" font-family="Oswald-Bold" font-size="22.51">ICONS</tspan></text></g><g id="XMLID_2_" class="st2"><text id="XMLID_508_" transform="translate(82.59 -193.9)" fill="#231f20" font-family="Oswald-Light" font-size="16.17">EDUCATION &amp; KNOWLEDGE</text></g></g></svg>