<svg id="Layer_1" version="1.1" viewBox="0 0 65 65" xml:space="preserve" xmlns="http://www.w3.org/2000/svg"><style>.st0{fill:#1c1f20}</style><path class="st0" d="M57 62.8H45c-.4 0-.8.3-.8.8s.3.8.8.8h12c.4 0 .8-.3.8-.8s-.4-.8-.8-.8zM62 62.8h-2c-.4 0-.8.3-.8.8s.3.8.8.8h2c.4 0 .8-.3.8-.8s-.4-.8-.8-.8zM4 14.3c.4 0 .8-.3.8-.8v-8c0-.4-.3-.8-.8-.8s-.7.4-.7.8v8c0 .4.3.8.7.8zM4 3.3c.4 0 .8-.3.8-.8v-1c0-.4-.3-.8-.8-.8s-.7.4-.7.8v1c0 .4.3.8.7.8zM7 38.3c.4 0 .8-.3.8-.8s-.4-.7-.8-.7H5.8v-1.3c0-.4-.3-.8-.8-.8s-.8.3-.8.8v1.3H3c-.4 0-.8.3-.8.8s.3.8.8.8h1.3v1.3c0 .4.3.8.8.8s.8-.3.8-.8v-1.3H7zM58.1 4.8h-1.3V3.5c0-.4-.3-.8-.8-.8s-.8.3-.8.8v1.3h-1.3c-.4 0-.8.3-.8.8s.3.8.8.8h1.3v1.3c0 .4.3.8.8.8s.8-.3.8-.8V6.3h1.3c.4 0 .8-.3.8-.8s-.4-.7-.8-.7zM42.3 45.6c4.8 0 8.7-3.9 8.7-8.8 0-1.9.8-3.8 2.1-5.1 3.4-3.4 3.4-9 0-12.4a7.1 7.1 0 01-2.1-5.1c0-4.8-3.9-8.8-8.8-8.8-1.9 0-3.8-.8-5.1-2.1-3.4-3.4-9-3.4-12.4 0a7.1 7.1 0 01-5.1 2.1c-4.8 0-8.8 3.9-8.8 8.8 0 1.9-.8 3.8-2.1 5.1a8.7 8.7 0 000 12.4 7.1 7.1 0 012.1 5.1c0 4.8 3.9 8.8 8.8 8.8 1.9 0 3.8.8 5.1 2.1a8.7 8.7 0 0012.4 0 7.5 7.5 0 015.2-2.1zm-16.4 1a8.7 8.7 0 00-6.2-2.6c-4 0-7.3-3.3-7.3-7.3 0-2.3-.9-4.5-2.6-6.2a7.1 7.1 0 01-2.1-5.1c0-1.9.8-3.8 2.1-5.1a8.7 8.7 0 002.6-6.2c0-4 3.3-7.3 7.3-7.3 2.3 0 4.5-.9 6.2-2.6C27.3 3 29.1 2.3 31 2.3c1.9 0 3.7.7 5.1 2.1C37.8 6 40 6.9 42.3 6.9c4 0 7.2 3.3 7.2 7.3 0 2.3.9 4.5 2.6 6.2 2.8 2.8 2.8 7.4 0 10.3a8.7 8.7 0 00-2.6 6.2c0 4-3.3 7.3-7.3 7.3-2.3 0-4.5.9-6.2 2.6a7.13 7.13 0 01-10.1-.2z"/><path class="st0" d="M48.7 25.5c0-.4-.3-.8-.8-.8-.4 0-.8.3-.8.8 0 8.9-7.3 16.2-16.3 16.3-8.9 0-16.2-7.3-16.3-16.3 0-2.5.5-4.8 1.6-7C19 12.9 24.8 9.3 31 9.3c6.8 0 13 4.3 15.3 10.8.1.4.6.6 1 .5.2-.1.3-.2.4-.4.1-.2.1-.4 0-.6-2.5-7-9.2-11.8-16.7-11.8-3.4 0-6.7 1-9.6 2.8-2.8 1.8-5 4.3-6.4 7.3-1.1 2.4-1.7 5-1.7 7.7 0 9.8 8 17.8 17.8 17.8s17.6-8.1 17.6-17.9z"/><path class="st0" d="M47.1 22.2c-.1.2-.1.4-.1.6.1.4.4.6.7.6h.1c.2 0 .4-.1.5-.3.1-.2.2-.4.1-.6-.1-.4-.5-.7-.9-.6-.1.1-.2.2-.4.3zM43.1 21.6c-.1-.3-.3-.5-.6-.5L35 20l-3.3-6.8c-.3-.5-1.1-.5-1.3 0L27 20l-7.4 1.1c-.3 0-.5.2-.6.5-.1.3 0 .6.2.8l5.4 5.3-1.4 7.3c0 .3.1.6.3.7.2.2.5.2.8.1l6.7-3.5 6.7 3.5c.1.1.2.1.3.1.2 0 .3 0 .4-.1.2-.2.3-.5.3-.7l-1.3-7.4 5.4-5.3c.3-.2.3-.5.3-.8zm-7 5.2c-.2.2-.3.4-.2.7l1.1 6.3-5.7-3c-.1-.1-.2-.1-.3-.1s-.2 0-.3.1l-5.7 3 1.1-6.3c0-.2 0-.5-.2-.7l-4.6-4.5 6.3-.9c.2 0 .5-.2.6-.4l2.8-5.7 2.8 5.7c.1.2.3.4.6.4l6.3.9-4.6 4.5zM26 51.6c-.4-.2-.8 0-1 .4l-4.5 9.6-2.8-7.8c-.1-.2-.2-.3-.4-.4-.2-.1-.4-.1-.6 0l-7.8 2.8 4.3-9.3c.2-.4 0-.8-.4-1-.4-.2-.8 0-1 .4l-5.1 11c-.1.3-.1.6.1.8.2.2.5.3.8.2l8.8-3.2 3.2 8.8c.1.3.4.5.7.5.3 0 .6-.2.7-.4l5.2-11.2c.4-.6.2-1-.2-1.2zM53.6 58c.2-.2.3-.5.1-.8L48.9 47c-.2-.4-.6-.5-1-.4-.4.2-.5.6-.4 1l4 8.6-7.8-2.8c-.2-.1-.4-.1-.6 0-.2.1-.3.2-.4.4L40 61.5l-4.2-9.1c-.2-.4-.6-.5-1-.4-.4.2-.5.6-.4 1l5 10.7c.1.3.4.4.7.4.3 0 .6-.2.7-.5l3.2-8.8 8.8 3.2c.3.3.6.2.8 0z"/></svg>