<svg xmlns="http://www.w3.org/2000/svg" viewBox="0 0 64 64"><path d="M42.48 12.01l-5.98 5.98-5.99-5.98z" fill="#e6e9ed"/><path d="M50.49 12.01L38.84 23.66a4.43 4.43 0 00-4.68 0L22.51 12.01h8l5.99 5.98 5.98-5.98z" fill="#ccd1d9"/><path d="M36.5 40.01L42.48 46H30.51z" fill="#e6e9ed"/><path d="M56.51 46h-6.02L37.52 33.02c.82-.83 1.94-2.07 2.69-3.31z" fill="#fff"/><path d="M37.52 33.02c-.59.6-1.02.99-1.02.99s-.43-.39-1.02-.99a19.32 19.32 0 01-2.69-3.31 4.54 4.54 0 01-.79-2.2v-.01a4.49 4.49 0 019-.03v.03a4.6 4.6 0 01-.79 2.21 19.4 19.4 0 01-2.69 3.31z" fill="#ed5565"/><path d="M5 23V12.01h9V23z" fill="#545c66"/><path d="M37.52 33.02L50.49 46h-8.01l-5.98-5.99L30.51 46H22.5l12.98-12.98c.59.6 1.02.99 1.02.99s.43-.39 1.02-.99z" fill="#ccd1d9"/><path d="M14 46H5V23h9v17.49z" fill="#545c66"/><path d="M16.5 12.01L32 27.51c0 .66.32 1.43.79 2.2L16.5 46H14v-5.51L25.49 29 14 17.51v-5.5z" fill="#ccd1d9"/><path d="M59 17.52v22.97L47.51 29z" fill="#e6e9ed"/><path d="M56.5 12.01L41.03 27.47H41a4.5 4.5 0 00-2.16-3.81l11.65-11.65z" fill="#fff"/><path d="M25.49 29L14 40.49V17.51z" fill="#e6e9ed"/><path d="M22.51 12.01l11.65 11.65A4.49 4.49 0 0032 27.5v.01l-15.5-15.5zM35.48 33.02L22.5 46h-6l16.29-16.29a19.4 19.4 0 002.69 3.31z" fill="#fff"/><path d="M59 40.49V46h-2.49l-16.3-16.29A4.6 4.6 0 0041 27.5v-.03h.03L56.5 12.01H59v5.51L47.51 29z" fill="#ccd1d9"/><path d="M63 46v6c0 2.2-1.8 4-4 4H5c-2.2 0-4-1.8-4-4v-6c0 2.2 1.8 4 4 4h54c2.2 0 4-1.8 4-4z" fill="#545c66"/><path d="M16.5 46H59V12.01H5V46h9zM63 18v28c0 2.2-1.8 4-4 4H5c-2.2 0-4-1.8-4-4V12c0-2.2 1.8-4 4-4h54c2.2 0 4 1.8 4 4z" fill="#656d78"/><g><path d="M8 20a1 1 0 01-1-1v-3a1 1 0 112 0v3a1 1 0 01-1 1z" fill="#aab2bd"/></g><g><path d="M11 17H8a1 1 0 110-2h3a1 1 0 110 2z" fill="#aab2bd"/></g><g><path d="M11 28H8a1 1 0 110-2h3a1 1 0 110 2z" fill="#434a54"/></g><g><path d="M11 31H8a1 1 0 110-2h3a1 1 0 110 2z" fill="#434a54"/></g><g><path d="M11 36H8a1 1 0 110-2h3a1 1 0 110 2z" fill="#434a54"/></g><g><path d="M11 41H8a1 1 0 110-2h3a1 1 0 110 2z" fill="#434a54"/></g><g><path d="M11 44H8a1 1 0 110-2h3a1 1 0 110 2z" fill="#434a54"/></g><g><path d="M36.53 28.96c-.83 0-1.5-.67-1.5-1.5s.66-1.49 1.49-1.49h.01a1.5 1.5 0 110 3z" fill="#da4453"/></g><path d="M5 22h9v2H5z" fill="#434a54"/></svg>