<svg viewBox="0 0 512 512" xmlns="http://www.w3.org/2000/svg"><style>.st1{fill:none;stroke:#000;stroke-width:16;stroke-linecap:round;stroke-linejoin:round;stroke-miterlimit:10}</style><path d="M434.16 333.1c-9.8-16.16-35.67-23.28-50.22-26.1-26.55-5.12-60.76-4.73-77.35 7.7-5.45 4.1-8.17 12.57-8.8 27.46-.1 1.96-.13 3.87-.14 5.69a239.68 239.68 0 01-76.39-47.68l-9.75-9.7a237.88 237.88 0 01-47.9-75.84c1.83-.01 3.76-.05 5.74-.13 14.94-.63 23.44-3.33 27.55-8.75 12.45-16.42 12.9-50.32 7.83-76.63-2.82-14.59-9.98-40.53-26.32-50.33-16.25-9.76-41.37-7.4-51.41-5.94-20.73 3.02-37.97 10.35-46.13 19.59-7.1 8.05-9.6 31.04-10.35 40.55-.02.25-.02.5-.02.76a312.43 312.43 0 0083.89 208.21l.21.25 14.82 14.8c.08.08.15.28.23.34C226.77 409.92 301.1 439 378.96 441h.13c.2 0 .41-.26.62-.27 9.55-.74 32.63-3.47 40.72-10.53 9.3-8.11 16.67-25.27 19.71-45.9 1.48-10 3.84-35.02-5.98-51.2zm-9.85 48.86c-2.39 16.21-8.18 30.76-14.4 36.18-2.78 2.3-17.24 5.25-31.07 6.35a300 300 0 01-198.24-79.06L166 330.91a296.4 296.4 0 01-79.5-197.06c1.11-13.71 4.07-28.06 6.37-30.83 5.47-6.2 20.11-11.96 36.44-14.34 17.12-2.5 32.78-1.03 40.87 3.82 7.8 4.69 15.02 19.88 18.84 39.65 5 25.95 2.98 53.23-4.7 63.7-3.1 2.18-17.16 3.35-30.35 2.56a7.97 7.97 0 00-7.8 2.3 7.98 7.98 0 00-1.15 9.65 253.4 253.4 0 0051.76 87.73c.28.44.6.85.96 1.24 2.37 2.53 4.8 5 7.26 7.43 2.45 2.46 4.94 4.88 7.5 7.24.38.36.8.68 1.24.95a255.46 255.46 0 0088.19 51.45 7.96 7.96 0 009.67-1.2l.38-.39.1-.12a7.94 7.94 0 001.8-7.26c-.8-13.08.37-27.02 2.55-30.1 10.62-7.7 38.23-9.69 64.48-4.61 19.73 3.81 34.9 10.97 39.57 18.67 4.87 8.03 6.34 23.57 3.83 40.57z" id="layer_copy"/></svg>