<svg xmlns="http://www.w3.org/2000/svg" viewBox="0 0 512 512"><g fill="#1ba389"><path d="M58.42 479.93c-11.98-4.25-23.22-16.46-25.67-27.87-.82-3.81-1.05-59.34-.83-198l.32-192.7 2.93-5.98c3.76-7.67 12.1-16 19.71-19.67 5.26-2.55 7.4-2.94 17.74-3.3l11.76-.39 2.27 4.66a15.02 15.02 0 0027.37-.08l2.05-4.3 147.4-.04 147.4-.04.69 2.3c.88 2.94 5.29 7.69 8.85 9.55 3.57 1.86 9.35 1.84 13.01-.06 3.74-1.93 8.25-7.3 8.25-9.82 0-1.55.73-1.97 3.41-1.97 13.73 0 29.45 12.42 34.44 27.21 2 5.93 2.03 8.8 1.77 199.74l-.26 193.73-2.94 5.98c-5.9 12-19.35 22-30.92 22.95-4.64.39-5.5.19-5.5-1.25 0-6.59-8.31-12.38-16.61-11.58-6.1.59-9.82 3.2-12.53 8.8l-2.04 4.23h-66.96l-.02-28.37c-.02-25.45-.22-28.8-1.93-32.56a17.09 17.09 0 00-10.06-9.03c-2.22-.69-2.3-1.16-2.3-12.83v-12.12l3.4-1.13c4-1.31 8.28-5.5 9.82-9.58.6-1.58 1.09-6.54 1.09-11.01 0-7.55-.17-8.2-2.35-9.03-3.33-1.27-167.2-1.25-169.57.01-1.57.84-1.87 2.3-1.87 9.08 0 4.44.49 9.37 1.08 10.95 1.55 4.08 5.83 8.27 9.82 9.58l3.4 1.13v23.86l-4.85 2.56c-3.57 1.88-5.46 3.76-7.15 7.12-2.22 4.4-2.3 5.54-2.3 32.97v28.4L142.9 482l-26.83-.04-2.05-4.3c-3-6.34-7.84-9.2-14.59-8.67-6.08.5-10.64 3.86-13.15 9.72l-1.42 3.32-10.47-.07c-7.55-.06-12-.62-15.97-2.03zm98.96-137.78c1.43-2.69 1.5-167.23.07-169.91-.94-1.75-2.16-2-9.47-2-10.79.03-15.47 2.36-18.99 9.45l-2.4 4.85H61.27l-2.5 2.51c-2.72 2.71-3.32 7.38-1.41 10.94 2.4 4.48 6.11 4.95 38.73 4.95h30.7v23.52H96.9c-17.42 0-31.5.45-33.7 1.07-7.05 1.95-9.34 9.6-4.3 14.34l2.63 2.48 32.64.3 32.63.29V269.39H62.24l-2.99 3c-5.26 5.25-3.31 12.32 3.94 14.34 2.22.61 16.29 1.06 33.7 1.06h29.91v24.54H61.65l-2.7 2.7c-3.56 3.57-3.64 8.7-.18 12.17l2.51 2.51h65.3l2.41 4.85c3.73 7.53 7.5 9.46 18.37 9.46 7.7 0 9.16-.27 10.02-1.87zm221.01-.43c1.91-1.27 4.56-4.49 5.88-7.16l2.41-4.85H452l2.5-2.5c3.45-3.45 3.35-8.27-.23-12.01l-2.75-2.87H386.46V287.8l29.4-.03c16.16-.01 31.23-.45 33.48-.97 7.84-1.82 10.15-8.94 4.68-14.42l-3-2.99h-64.56V244.94l32.64-.3 32.63-.3 2.64-2.47c5.04-4.74 2.75-12.39-4.3-14.34-2.21-.62-16.28-1.06-33.7-1.07h-29.9v-23.52h30.92c27.4 0 31.33-.2 34.5-1.79 5.75-2.88 6.72-9.89 2.02-14.59-1.92-1.92-3.52-2.02-34.68-2.02h-32.67l-1.96-4.44c-3.16-7.12-7.17-9.29-18-9.72-7.84-.32-9.33-.1-10.47 1.45-1.06 1.45-1.32 18.4-1.31 85.07 0 54.05.37 83.94 1.04 85.2.89 1.66 2.26 1.92 10.04 1.92 7.64 0 9.55-.35 12.5-2.3zm-195.95-2.37c1.9-1.9 2.12-6.68.38-8.41-3.15-3.15-10.02-.32-10.02 4.13 0 4.93 6.23 7.7 9.64 4.28zm156.15-.09c3.89-3.51 1.28-9.55-4.13-9.55-3.64 0-5.24 1.72-5.24 5.62 0 1.75.55 3.72 1.22 4.4 1.76 1.75 5.96 1.51 8.15-.47zM182.82 183.32c3.15-3.15.32-10.02-4.13-10.02-4.93 0-7.7 6.22-4.28 9.64 1.9 1.9 6.68 2.11 8.41.38zm155.77-.47c2.29-2.07 2.37-4.29.28-7.28a5.3 5.3 0 00-8.05-.67c-1.9 1.9-2.11 6.68-.38 8.42 1.76 1.75 5.96 1.51 8.15-.47zm3.9-25.37c.84-1.02 1.13-4.43.89-10.48-.43-10.66-2.63-14.7-9.73-17.84l-4.43-1.96V63l-2.43-2.81a8.11 8.11 0 00-12.53 0L311.84 63V127.3H287.3V97.4c0-17.56-.45-31.48-1.07-33.73a8.72 8.72 0 00-14.92-3.67c-1.75 1.93-1.92 4.62-2.2 34.7l-.3 32.6h-24.36l-.3-32.6c-.27-30.08-.44-32.77-2.2-34.7a8.72 8.72 0 00-14.91 3.67c-.63 2.25-1.07 16.17-1.07 33.73v29.9h-24.54V62.73l-2.99-2.99c-3.7-3.7-7.12-3.8-11.25-.34l-3.14 2.65v65.03l-4.86 2.4c-7.05 3.5-9.42 8.22-9.44 18.82 0 5.06.46 8.7 1.21 9.46.94.93 21.38 1.23 85.75 1.23 73.21 0 84.69-.2 85.77-1.51zM201.66 434.75l.27-47.28 12.01-.29 12.01-.29v24.65l-2.8 1.07a19.2 19.2 0 00-5.22 3.3c-5.12 4.77-5.27 5.77-5.27 36.94v29.18h-11.26l.26-47.28zm41.68 20.45c0-14.76.3-36.15.67-47.54l.67-20.7h23.89l.67 20.7c.37 11.39.67 32.78.67 47.54v26.83h-26.58V455.2zm57.24-2.35c0-31.17-.14-32.17-5.27-36.94a19.2 19.2 0 00-5.2-3.3l-2.82-1.07V386.9l12.01.3 12.02.28.26 47.28.27 47.28h-11.27v-29.18z"/><path d="M155.6 44.24h202.94V482H155.6z"/><path d="M474.56 148.3v202.92H36.8V148.3z"/></g><g fill="#e6e6e6"><g transform="translate(900.77 -168.66) scale(1.0223)"><rect width="180.09" height="69.61" x="-720.36" y="295.87" ry="29.7"/><rect width="93.22" height="19.89" x="210.51" y="674.9" ry="8.49" transform="rotate(90)"/><rect width="93.36" height="19.89" x="210.37" y="638.61" ry="8.49" transform="rotate(90)"/><rect width="93.36" height="19.89" x="210.37" y="602.75" ry="8.49" transform="rotate(90)"/><rect width="93.36" height="19.89" x="210.24" y="566.59" ry="8.49" transform="rotate(90)"/></g><g transform="rotate(90 -108.68 790.62) scale(1.0223)"><rect width="180.09" height="69.61" x="-720.36" y="295.87" ry="29.7"/><rect width="93.22" height="19.89" x="210.51" y="674.9" ry="8.49" transform="rotate(90)"/><rect width="93.36" height="19.89" x="210.37" y="638.61" ry="8.49" transform="rotate(90)"/><rect width="93.36" height="19.89" x="210.37" y="602.75" ry="8.49" transform="rotate(90)"/><rect width="93.36" height="19.89" x="210.24" y="566.59" ry="8.49" transform="rotate(90)"/></g><g transform="matrix(0 1.0223 1.0223 0 -169.02 900.1)"><rect width="180.09" height="69.61" x="-720.36" y="295.87" ry="29.7"/><rect width="93.22" height="19.89" x="210.51" y="674.9" ry="8.49" transform="rotate(90)"/><rect width="93.36" height="19.89" x="210.37" y="638.61" ry="8.49" transform="rotate(90)"/><rect width="93.36" height="19.89" x="210.37" y="602.75" ry="8.49" transform="rotate(90)"/><rect width="93.36" height="19.89" x="210.24" y="566.59" ry="8.49" transform="rotate(90)"/></g><g transform="matrix(1.0223 0 0 -1.0223 901.42 683.37)"><rect width="180.09" height="69.61" x="-720.36" y="295.87" ry="29.7"/><rect width="93.22" height="19.89" x="210.51" y="674.9" ry="8.49" transform="rotate(90)"/><rect width="93.36" height="19.89" x="210.37" y="638.61" ry="8.49" transform="rotate(90)"/><rect width="93.36" height="19.89" x="210.37" y="602.75" ry="8.49" transform="rotate(90)"/><rect width="93.36" height="19.89" x="210.24" y="566.59" ry="8.49" transform="rotate(90)"/></g></g><path d="M164.16 353.38c-6.42-3.11-6.06 2.68-5.99-97.33l.07-91.2 2.32-2.48a21 21 0 014.07-3.43c2.34-1.26 181.23-1.26 183.58 0 .96.52 2.8 2.08 4.1 3.46l2.34 2.5.02 91.07c.02 99.32.33 94.08-5.66 97.28-3.83 2.05-180.62 2.18-184.85.13zm175.28-16c1.47-3.22.19-7.52-2.55-8.53-7.04-2.63-11.58 7.37-4.88 10.78 3.04 1.55 6.13.61 7.43-2.25zm-156.83 1.4c2.26-2.27 1.48-7.76-1.37-9.63-5.13-3.36-10.5 2.41-7.78 8.37.87 1.9 1.92 2.48 4.53 2.48 1.86 0 3.94-.55 4.62-1.22zm0-156.42c2-2 1.51-7.74-.75-8.96-4.48-2.4-9.27.2-9.27 5.03 0 3.56 1.74 5.16 5.62 5.16 1.75 0 3.72-.55 4.4-1.23zm156.03-.38c2.08-2.08 2.05-5.4-.08-7.77-4.69-5.17-12.87 1.13-9.05 6.96 1.87 2.85 6.67 3.28 9.13.81z" fill="#223656"/><g transform="translate(-6.72 -7.84) scale(1.0223)" fill="#f9de69" fill-rule="evenodd"><path d="M172.17 439.82h31.05v39.4h-31.05z"/><rect ry="13.64" y="410.8" x="172.16" height="41.99" width="31.05"/><path d="M214.18 439.79h31.05v39.4h-31.05z"/><rect ry="13.64" y="410.78" x="214.17" height="41.99" width="31.05"/><path d="M270.15 439.82h31.05v39.4h-31.05z"/><rect ry="13.64" y="410.81" x="270.14" height="41.99" width="31.05"/><path d="M311.15 439.81h31.05v39.4h-31.05z"/><rect ry="13.64" y="410.8" x="311.14" height="41.99" width="31.05"/></g></svg>