<svg viewBox="0 0 512 512" fill="none" xmlns="http://www.w3.org/2000/svg"><path d="M448 0H64A64 64 0 000 64v384a64 64 0 0064 64h384a64 64 0 0064-64V64a64 64 0 00-64-64z" fill="#2ED54B"/><path d="M91.47 217.78C68.89 175.98 60 141.85 60 118.86c0-22.98 5.47-29.25 10.94-34.82 5.48-5.58 30.79-20.9 35.58-24.38 4.1-2.79 20.52-9.06 30.78 6.27 10.26 15.32 29.41 45.27 43.1 65.47 21.2 28.56 4.1 41.1-1.38 48.76-10.26 13.93-15.73 17.42-15.73 34.13 0 16.72 46.52 65.48 57.46 77.32 10.95 11.84 57.46 52.94 71.83 55.73 14.36 2.09 34.2-13.24 38.3-17.42 21.2-16.72 32.84-4.18 42.41 1.4 9.58 5.57 53.36 33.43 67.04 42.49 13 9.05 11.63 23.68 11.63 23.68s-8.9 27.16-29.41 47.37c-4.8 4.87-13.69 11.14-34.9 11.14-21.2 0-44.45-4.18-99.18-34.83-44.46-25.07-86.87-64.08-109.45-87.07-22.57-22.29-61.56-68.26-87.55-116.32z" fill="#fff"/></svg>