<svg viewBox="0 0 128 128" xmlns="http://www.w3.org/2000/svg"><path d="M115.7 124H82.3c-4.6 0-8.3-3.7-8.3-8.3V32.3c0-4.6 3.7-8.3 8.3-8.3h33.3c4.6 0 8.3 3.7 8.3 8.3v83.3c.1 4.7-3.6 8.4-8.2 8.4z" fill="#E1EAEC"/><path fill="#FFF" d="M74 32.3h50v79.4z" opacity=".5"/><path d="M74 111.5v4.2c0 4.6 3.7 8.3 8.3 8.3h33.3c4.6 0 8.3-3.7 8.3-8.3v-4.2H74z" fill="#EAE6EC"/><circle cx="99" cy="117.8" fill="#FFF" r="2.9"/><path d="M115.7 24H82.3c-4.6 0-8.3 3.7-8.3 8.3h50c0-4.6-3.7-8.3-8.3-8.3z" fill="#EAE6EC"/><path d="M79 37.3c0-4.6 3.7-8.3 8.3-8.3l33.3-3c1 0 1.9 3.2 2.8 3.5a8.34 8.34 0 00-7.8-5.5H82.3c-4.6 0-8.3 3.7-8.3 8.3v83.3c0 3.6 2.3 6.7 5.5 7.8-.3-.9-3.5-1.8-3.5-2.8l3-83.3z" fill="#FFF"/><path d="M82.3 24c-4.6 0-8.3 3.7-8.3 8.3v83.3c0 4.6 3.7 8.3 8.3 8.3h6.5c.8-1.5 1.2-3.2 1.2-5V24h-7.7z" fill="#62345B" opacity=".1"/><path d="M115.7 22.5H82.3c-5.4 0-9.8 4.4-9.8 9.8v83.3c0 5.4 4.4 9.8 9.8 9.8h33.3c5.4 0 9.8-4.4 9.8-9.8V32.3c.1-5.4-4.3-9.8-9.7-9.8zM75.5 33.8h47V110h-47V33.8zm6.8-8.3h33.3c3.3 0 6 2.3 6.7 5.3H75.7c.7-3 3.4-5.3 6.6-5.3zm33.4 97H82.3a6.8 6.8 0 01-6.8-6.8V113h47v2.7c0 3.7-3.1 6.8-6.8 6.8z" fill="#B09AAC"/><path d="M94.8 29.7h8.3c.8 0 1.5-.7 1.5-1.5s-.7-1.5-1.5-1.5h-8.3c-.8 0-1.5.7-1.5 1.5s.7 1.5 1.5 1.5zM99 113.3c-2.4 0-4.4 2-4.4 4.4s2 4.4 4.4 4.4 4.4-2 4.4-4.4-2-4.4-4.4-4.4zm0 5.9c-.8 0-1.4-.6-1.4-1.4s.6-1.4 1.4-1.4 1.4.6 1.4 1.4-.6 1.4-1.4 1.4z" fill="#B09AAC"/><path d="M79 124H9c-2.8 0-5-2.2-5-5V9c0-2.8 2.2-5 5-5h70c2.8 0 5 2.2 5 5v110c0 2.8-2.2 5-5 5z" fill="#E6E985"/><path d="M4 9v1h80V9c0-2.8-2.2-5-5-5H9C6.2 4 4 6.2 4 9z" fill="#EAE6EC"/><path d="M6.4 123.3L9 20c0-5.5 4.5-10 10-10l64.2-3.7C82.3 4.9 80.8 4 79 4H9C6.2 4 4 6.2 4 9v110c0 1.8 1 3.4 2.4 4.3z" fill="#FFF"/><path d="M4 114v5c0 2.8 2.2 5 5 5h70c2.8 0 5-2.2 5-5v-5H4z" fill="#EAE6EC"/><path d="M79 125.5H9c-3.6 0-6.5-2.9-6.5-6.5v-6.5h83v6.5c0 3.6-2.9 6.5-6.5 6.5zm-73.5-10v3.5c0 1.9 1.6 3.5 3.5 3.5h70c1.9 0 3.5-1.6 3.5-3.5v-3.5h-77z" fill="#62355C"/><path d="M49 120.5H39c-.8 0-1.5-.7-1.5-1.5s.7-1.5 1.5-1.5h10c.8 0 1.5.7 1.5 1.5s-.7 1.5-1.5 1.5z" fill="#62355C"/><path fill="#FFF" d="M84 109L4 10h80v99z" opacity=".2"/><path d="M79 125.5H9c-3.6 0-6.5-2.9-6.5-6.5V9c0-3.6 2.9-6.5 6.5-6.5h70c3.6 0 6.5 2.9 6.5 6.5v110c0 3.6-2.9 6.5-6.5 6.5zM9 5.5C7.1 5.5 5.5 7.1 5.5 9v110c0 1.9 1.6 3.5 3.5 3.5h70c1.9 0 3.5-1.6 3.5-3.5V9c0-1.9-1.6-3.5-3.5-3.5H9z" fill="#62355C"/><path d="M85.5 11.5h-83V9c0-3.6 2.9-6.5 6.5-6.5h70c3.6 0 6.5 2.9 6.5 6.5v2.5zm-80-3h76.9c-.2-1.7-1.7-3-3.5-3H9c-1.8 0-3.2 1.3-3.5 3z" fill="#62355C"/></svg>