<svg xmlns="http://www.w3.org/2000/svg" viewBox="0 0 333.52 333.52"><path d="M332.68 171.27c-1.38-1.52-5.5-3.55-10.18-5.02-.17-1.35-.5-2.66-1-3.87a10.65 10.65 0 00-8.81-6.78c-7.07-.85-14.75 2.48-20.27 5.61-11.12-38.81-43.64-71.05-87.1-84.62 3.18-6.68 5-14.11 5-21.99a51.53 51.53 0 00-51.47-51.47A51.52 51.52 0 00107.4 54.6c0 8.16 1.96 15.85 5.35 22.71-14.75 4.89-28.67 11.94-40.72 20.97-13.68-7.14-28.62-7.04-38.74.52l-5.15 3.84 17 22.76a113.03 113.03 0 00-18.02 37.9h-7.17A19.96 19.96 0 000 183.25v57.43c0 11 8.95 19.94 19.94 19.94h28.43a129.07 129.07 0 0030.16 27.45v26.86c0 8.14 5.91 14.76 13.18 14.76h24.5c7.26 0 13.17-6.62 13.17-14.76V309a149.86 149.86 0 0057.54.66v5.97c0 8.14 5.91 14.75 13.18 14.75h24.5c7.26 0 13.17-6.61 13.17-14.75v-25.11c36.93-22.7 58.84-59.7 58.84-99.66 0-7.88-.96-15.6-2.63-23.15 5.02-3.08 12.16-6.46 17.91-5.72a4.22 4.22 0 013.59 2.63c-3.95-.56-7.54-.34-9.47 1.27a9.3 9.3 0 00-3 9.52c1.04 3.66 4.24 6.15 8.81 6.83.37.05.74.08 1.1.08 2.43 0 4.7-1.2 6.46-3.47a15.59 15.59 0 002.77-6.01c2.73.91 5.03 1.94 5.78 2.74a3.2 3.2 0 104.75-4.31zM158.85 15.99a38.66 38.66 0 0138.62 38.62c0 7.94-2.41 15.33-6.54 21.47l-.22.3-.55.75a38.7 38.7 0 01-2.35 2.93c-.22.26-.45.5-.68.75-.81.88-1.66 1.71-2.54 2.5l-.6.54a38.43 38.43 0 01-7.3 4.97l-.27.13c-1.2.61-2.4 1.15-3.65 1.63-.27.11-.55.2-.82.3-1.08.4-2.18.74-3.3 1.03a44.56 44.56 0 01-4.36.88c-.36.05-.7.13-1.06.16a37.77 37.77 0 01-8.75 0c-.3-.03-.6-.1-.9-.13a37.6 37.6 0 01-3.48-.64c-.27-.05-.52-.13-.78-.2a39 39 0 01-3.59-1.1l-.5-.17a39.09 39.09 0 01-14.58-9.8c-.11-.1-.2-.22-.32-.35a36.1 36.1 0 01-2.59-3.15l-.61-.82-.35-.48a38.36 38.36 0 01-6.56-21.5A38.68 38.68 0 01158.85 16zm69.17 265.37l-3.43 1.98.32 32.29c0 1-.37 1.66-.59 1.9l-23.87.08c-.18-.13-.68-.81-.68-1.98v-21.96l-7.89 1.83a138.36 138.36 0 01-67.29-.82l-8.06-2.1v22.35c0 1.17-.5 1.86-.33 1.9l-24.13.08c-.18-.12-.68-.8-.68-1.98l-.01-27.87 1.16-5.37-3.85-2.38a116.6 116.6 0 01-32.01-28.99l-1.93-2.56H19.94a7.1 7.1 0 01-7.09-7.09v-57.43a7.1 7.1 0 017.09-7.09H37.4l1.08-5.1A100.46 100.46 0 0158.2 129.4l3.05-3.88-14.33-19.2c6.35-1.54 14.65.34 22.21 5.1l3.89 2.46 3.57-2.88a129.67 129.67 0 0143.46-22.68c.14.17.32.32.46.49.98 1.09 2 2.15 3.07 3.16.27.26.55.5.83.75 1.07.96 2.17 1.88 3.31 2.76l.82.61c.5.36.96.76 1.47 1.1a116.8 116.8 0 00-24.22 9 6.42 6.42 0 105.83 11.45 107.4 107.4 0 0148.44-11.37c17.95 0 35.48 4.34 50.68 12.54a6.43 6.43 0 106.12-11.3c-8.91-4.8-18.52-8.4-28.52-10.77l.93-.7a50.6 50.6 0 004.2-3.44l1.18-1.06c1.02-1 2-2.04 2.93-3.12.2-.22.41-.4.6-.64 50.6 14.38 85.6 56.24 85.6 103.07-.03 36.5-20.86 70.33-55.76 90.5zm86.3-106.46c-.4.49-.9.97-1.56.98-1.15-.17-3.13-.68-3.56-2.22-.27-.97.12-2.17.79-2.75.37-.18.95-.26 1.69-.26 1.13 0 2.61.2 4.22.52a9.64 9.64 0 01-1.59 3.73zm-225.7-5.45a10.7 10.7 0 11-21.38 0 10.7 10.7 0 0121.39 0z"/></svg>