<svg viewBox="0 0 64 64" xmlns="http://www.w3.org/2000/svg"><defs><style>.cls-1{fill:#fff}</style></defs><g data-name="19-telegram" id="_19-telegram"><rect class="cls-1" height="64" rx="11.2" ry="11.2" width="64"/><path d="M52.8 1.07A10.14 10.14 0 0162.93 11.2v41.6A10.14 10.14 0 0152.8 62.93H11.2A10.14 10.14 0 011.07 52.8V11.2A10.14 10.14 0 0111.2 1.07h41.6m0-1.07H11.2A11.19 11.19 0 000 11.2v41.6A11.19 11.19 0 0011.2 64h41.6A11.19 11.19 0 0064 52.8V11.2A11.19 11.19 0 0052.8 0z" fill="#808285"/><circle cx="32" cy="32" r="28" fill="#04acde"/><path fill="#a8cae1" d="M26.4 46.2l6.7-5.6-5.77-2.91-.93 8.51z"/><path class="cls-1" d="M45.43 20.56L14.78 32a.8.8 0 00.06 1.52l11 3.15a.87.87 0 01.27.14l13.8 10.6a.8.8 0 001.27-.47l5.3-25.41a.8.8 0 00-1.05-.97z"/><path fill="#c1d8e9" d="M23.24 35.88L26.4 46.2l.93-8.51L41.8 24.7 23.24 35.88z"/></g></svg>