<svg viewBox="0 0 512 512" xmlns="http://www.w3.org/2000/svg"><rect height="512" rx="64" ry="64" width="512" fill="#7b519d"/><g fill="#fff" fill-rule="evenodd"><path d="M421.91 345.46c-12.2-9.82-25.23-18.64-38.06-27.64-25.59-17.97-49-19.37-68.09 9.55-10.72 16.23-25.73 16.94-41.43 9.82-43.27-19.62-76.68-49.85-96.26-93.83-8.65-19.46-8.54-36.9 11.72-50.67 10.72-7.27 21.53-15.89 20.66-31.79-1.12-20.74-51.47-90.03-71.35-97.35-8.23-3.02-16.42-2.83-24.8-.01-46.61 15.67-65.92 54.01-47.43 99.41C122.04 298.4 219.13 392.7 352.78 450.24c7.62 3.27 16.08 4.58 20.37 5.76 30.43.3 66.07-29.01 76.37-58.1 9.9-28-11.04-39.1-27.6-52.44zM272.06 77.44c97.7 15.02 142.77 61.48 155.21 159.9 1.15 9.08-2.23 22.76 10.74 23.01 13.55.26 10.29-13.21 10.4-22.31 1.14-92.69-79.67-178.6-173.52-181.78-7.09 1.02-21.74-4.88-22.65 11-.61 10.7 11.72 8.93 19.82 10.18z"/><path d="M291.17 104.42c-9.4-1.13-21.8-5.56-24 7.48-2.3 13.69 11.54 12.3 20.42 14.29 60.35 13.48 81.36 35.45 91.3 95.3 1.45 8.74-1.44 22.32 13.4 20.07 10.99-1.68 7.02-13.32 7.93-20.12.5-57.47-48.75-109.78-109.05-117.02z"/><path d="M296.71 151.42c-6.27.15-12.43.83-14.73 7.53-3.47 10.02 3.82 12.41 11.23 13.6 24.76 3.98 37.79 18.58 40.26 43.26.67 6.7 4.92 12.13 11.4 11.37 8.96-1.07 9.77-9.06 9.5-16.64.44-27.73-30.9-59.79-57.66-59.12z"/></g></svg>