<?xml version="1.0" encoding="iso-8859-1"?>
<!-- Generator: Adobe Illustrator 16.0.0, SVG Export Plug-In . SVG Version: 6.00 Build 0)  -->
<!DOCTYPE svg PUBLIC "-//W3C//DTD SVG 1.1//EN" "http://www.w3.org/Graphics/SVG/1.1/DTD/svg11.dtd">
<svg version="1.1" id="Capa_1" xmlns="http://www.w3.org/2000/svg" xmlns:xlink="http://www.w3.org/1999/xlink" x="0px" y="0px"
	 width="485.213px" height="485.212px" viewBox="0 0 485.213 485.212" style="enable-background:new 0 0 485.213 485.212;"
	 xml:space="preserve">
<g>
	<path d="M257.769,90.978c-73.329,0-134.51,52.094-148.548,121.304H90.977c-8.352,0-15.161,6.781-15.161,15.164v30.327
		c0,8.382,6.81,15.158,15.161,15.158h18.244c14.039,69.213,75.219,121.307,148.548,121.307c83.756,0,151.629-67.882,151.629-151.631
		C409.397,158.855,341.524,90.978,257.769,90.978z M257.769,363.906c-66.87,0-121.304-54.399-121.304-121.3
		c0-66.872,54.435-121.302,121.304-121.302c66.931,0,121.307,54.435,121.307,121.302
		C379.075,309.506,324.699,363.906,257.769,363.906z M257.769,409.396c31.335,0,60.532-8.825,85.585-23.896l-24.932,99.712H197.115
		L172.179,385.5C197.237,400.571,226.495,409.396,257.769,409.396z M257.769,75.816c-31.274,0-60.532,8.823-85.589,23.898L197.115,0
		h121.307l24.932,99.714C318.301,84.64,289.104,75.816,257.769,75.816z M348.744,227.445v30.327H242.605V151.628h30.326v75.817
		H348.744z"/>
</g>
<g>
</g>
<g>
</g>
<g>
</g>
<g>
</g>
<g>
</g>
<g>
</g>
<g>
</g>
<g>
</g>
<g>
</g>
<g>
</g>
<g>
</g>
<g>
</g>
<g>
</g>
<g>
</g>
<g>
</g>
</svg>
