<svg xmlns="http://www.w3.org/2000/svg" viewBox="0 0 320.55 320.55"><path d="M160.27 0C71.77 0 0 71.76 0 160.27s71.76 160.27 160.27 160.27 160.27-71.75 160.27-160.27S248.78 0 160.27 0zm0 307.69c-81.29 0-147.42-66.14-147.42-147.42S79 12.85 160.27 12.85c81.28 0 147.42 66.13 147.42 147.42 0 81.28-66.14 147.41-147.42 147.41zm83.56-77.1a9.64 9.64 0 01-13.63 13.64L161.97 176c-.5.05-.97.15-1.48.15a15.67 15.67 0 01-15.67-15.67c0-5 2.38-9.4 6.02-12.26V72.97a9.64 9.64 0 0119.3 0v75.25a15.59 15.59 0 016.02 12.26c0 .76-.12 1.48-.22 2.2l67.9 67.9z"/></svg>