<svg data-name="Your Icons" id="Your_Icons" viewBox="0 0 48 48" xmlns="http://www.w3.org/2000/svg"><defs><style>.cls-1{fill:#939598}</style></defs><circle class="cls-1" cx="24" cy="14" r="1.5"/><path class="cls-1" d="M26.77 10a4 4 0 0 0-5.65 0l-8 7.91A4 4 0 0 0 12 20.7v16.17a4 4 0 0 0 4 4h16a4 4 0 0 0 4-4V20.71a3.91 3.91 0 0 0-1.18-2.81ZM34 36.87a2 2 0 0 1-2 2H16a2 2 0 0 1-2-2V20.7a1.94 1.94 0 0 1 .57-1.38l8-7.91a2 2 0 0 1 1.43-.58 2 2 0 0 1 1.42.58l8.05 7.92a2 2 0 0 1 .53 1.38Z"/><path class="cls-1" d="m28.79 22.29-10.5 10.5a1 1 0 0 0 0 1.42 1 1 0 0 0 1.42 0l10.5-10.5a1 1 0 0 0-1.42-1.42ZM20.5 28a3 3 0 1 0-3-3 3 3 0 0 0 3 3Zm0-4a1 1 0 1 1-1 1 1 1 0 0 1 1-1ZM27.5 29a3 3 0 1 0 3 3 3 3 0 0 0-3-3Zm0 4a1 1 0 1 1 1-1 1 1 0 0 1-1 1Z"/></svg>