<svg data-name="Your Icons" id="Your_Icons" viewBox="0 0 48 48" xmlns="http://www.w3.org/2000/svg"><defs><style>.cls-1{fill:#939598}</style></defs><path class="cls-1" d="M37.8 16.45a3 3 0 0 0-.67-3.16l-8.42-8.42a3 3 0 0 0-4.21 0L13.37 16H12a4 4 0 0 0-4 4v16a4 4 0 0 0 4 4h24a4 4 0 0 0 4-4V20a4 4 0 0 0-2.2-3.55ZM25.91 6.28a1 1 0 0 1 1.39 0l8.42 8.42a1 1 0 0 1 .07 1.3H16.2ZM32 28a2 2 0 0 1 2-2h4v4h-4a2 2 0 0 1-2-2Zm2-4a4 4 0 0 0 0 8v1a1 1 0 0 1-1 1H10V22h23a1 1 0 0 1 1 1Zm4 12a2 2 0 0 1-2 2H12a2 2 0 0 1-2-2h23a3 3 0 0 0 3-3v-1h2Zm-2-12v-1a3 3 0 0 0-3-3H10a2 2 0 0 1 2-2h24a2 2 0 0 1 2 2v4Z"/><circle class="cls-1" cx="34" cy="28" r="1"/></svg>