<svg xmlns="http://www.w3.org/2000/svg" xmlns:xlink="http://www.w3.org/1999/xlink" xml:space="preserve" width="84.6666mm" height="84.6666mm" style="shape-rendering:geometricPrecision; text-rendering:geometricPrecision; image-rendering:optimizeQuality; fill-rule:evenodd; clip-rule:evenodd" viewBox="0 0 8467 8467"> <defs> <style type="text/css"> <![CDATA[ .fil1 {fill:gray} .fil2 {fill:#FF4545} .fil0 {fill:white} ]]> </style> </defs> <g id="&#x421;&#x43B;&#x43E;&#x439;_x0020_1"> <metadata id="CorelCorpID_0Corel-Layer"></metadata> <circle class="fil0" cx="4233" cy="4233" r="4233"></circle> <g id="_2844373092464"> <path class="fil1" d="M969 4255l0 476c38,90 80,486 125,638 169,565 442,1012 819,1403 867,895 1836,881 2022,967l541 0c97,-37 418,-62 565,-101 827,-218 1451,-688 1920,-1378 113,-166 392,-664 402,-900 -93,-46 -624,-203 -718,-202 -103,238 -144,400 -269,605 -317,521 -801,925 -1445,1114 -1945,570 -3766,-1346 -3036,-3283 288,-764 1083,-1501 1856,-1567l-2 649c132,-44 345,-189 470,-258l911 -525c130,-70 334,-179 453,-265l-1349 -790c-94,-54 -391,-210 -451,-279l-24 0 -15 691c-736,40 -1596,650 -1896,996 -223,256 -407,494 -585,874 -265,568 -226,954 -294,1135z"></path> <path class="fil2" d="M3261 3072c80,233 322,650 452,846 41,63 253,368 256,392 17,123 -156,282 62,501 109,108 304,164 475,70 250,-138 137,-305 213,-440 20,-36 454,-412 612,-719l-167 -166c-160,48 -565,484 -673,617 -103,-4 -181,-29 -287,-9 -83,-112 -563,-1070 -767,-1202 -59,21 -137,61 -176,110z"></path> <path class="fil2" d="M7498 4694l0 -408 -763 23c-19,270 -22,448 -57,715 65,47 265,94 358,122 117,35 264,87 374,106l88 -558z"></path> <path class="fil2" d="M7498 4165l0 -11c-62,-114 -64,-326 -98,-468 -39,-159 -86,-278 -133,-428l-712 256 180 685 763 -34z"></path> <path class="fil2" d="M5544 2331c78,81 365,241 522,443 83,-36 522,-387 600,-465 -76,-122 -488,-486 -661,-573 -67,64 -428,525 -461,595z"></path> <path class="fil2" d="M6155 2850c66,140 236,294 334,558 178,-14 528,-199 720,-247 -41,-202 -336,-608 -452,-755 -121,35 -455,353 -602,444z"></path> <path class="fil1" d="M2526 2892c32,49 386,420 462,446 70,-60 97,-77 134,-162 -126,-111 -316,-354 -448,-428l-148 144z"></path> <path class="fil1" d="M5321 3094l141 147c73,-49 421,-389 448,-461l-136 -140c-94,54 -251,235 -350,333l-103 121z"></path> <polygon class="fil1" points="1973,4577 2623,4577 2621,4358 1978,4354 "></polygon> <path class="fil1" d="M2630 5987c35,69 92,123 163,158l437 -443 -149 -160 -451 445z"></path> <path class="fil1" d="M5419 5579c10,11 15,12 17,20l43 53c84,91 329,345 403,380l134 -135c-32,-63 -388,-412 -448,-457l-149 139z"></path> <polygon class="fil1" points="4242,6686 4448,6682 4448,6056 4247,6059 "></polygon> <polygon class="fil1" points="5922,4416 6565,4420 6566,4219 5924,4221 "></polygon> <path class="fil1" d="M4242 6686l5 -627 201 -3 0 626 -206 4zm0 0c63,34 148,23 216,10 28,-97 28,-554 2,-654l-228 -7c-22,110 -9,229 -9,335 0,76 -17,253 19,316z"></path> <path class="fil1" d="M5922 4416c34,48 -14,15 51,27 9,2 74,2 88,2l514 -5c25,-91 28,-155 -3,-242 -77,-4 -582,-33 -648,23l642 -2 -1 201 -643 -4z"></path> </g> </g> </svg>