<svg xmlns="http://www.w3.org/2000/svg" xmlns:xlink="http://www.w3.org/1999/xlink" xml:space="preserve" width="84.6666mm" height="84.6666mm" style="shape-rendering:geometricPrecision; text-rendering:geometricPrecision; image-rendering:optimizeQuality; fill-rule:evenodd; clip-rule:evenodd" viewBox="0 0 8467 8467"> <defs> <style type="text/css"> <![CDATA[ .fil1 {fill:gray} .fil2 {fill:#FF4545} .fil0 {fill:white} ]]> </style> </defs> <g id="&#x421;&#x43B;&#x43E;&#x439;_x0020_1"> <metadata id="CorelCorpID_0Corel-Layer"></metadata> <circle class="fil0" cx="4233" cy="4233" r="4233"></circle> <g id="_2844320815248"> <path class="fil1" d="M5614 6529c51,-23 659,-31 447,109 -47,32 -254,15 -323,16 -254,4 -166,-105 -124,-125zm-716 0c51,-23 658,-31 448,109 -48,32 -254,16 -323,16 -254,4 -168,-105 -125,-125zm-734 76c-25,-117 147,-84 234,-84 90,0 266,-30 281,53 20,106 -141,80 -228,80 -85,-1 -271,29 -287,-49zm-705 -63c84,-38 403,-31 492,-9l6 108c-86,21 -214,12 -310,13 -115,1 -232,28 -188,-112zm-760 99c-50,-133 39,-122 161,-120 68,0 279,-20 321,18 184,166 -433,116 -482,102zm-732 -36c-24,-115 144,-84 232,-84 90,0 269,-31 284,52 22,112 -154,81 -230,81 -87,0 -269,29 -286,-49zm-76 -113c-142,23 -109,-86 -108,-208 1,-68 -23,-261 35,-295 167,-97 90,470 73,503zm-81 -1206c163,-155 110,453 83,480 -159,152 -123,-443 -83,-480zm-27 -558c0,-62 -13,-167 15,-205 31,-42 118,-33 118,44 0,114 13,369 -23,448l-86 -4c-36,-67 -24,-190 -24,-283zm0 -715c0,-152 -41,-254 126,-221 4,105 29,415 -17,500 -138,31 -109,-77 -109,-279zm4009 -484c96,0 212,-9 292,18l-3 97c-89,34 -413,32 -504,-2 -16,-149 80,-114 215,-113zm-715 0c95,0 212,-9 291,19l-2 95c-89,34 -412,32 -505,1 -15,-152 76,-116 216,-115zm-910 86c-52,-165 503,-70 503,-70 41,151 -92,117 -326,117 -75,0 -157,19 -177,-47zm-1006 38c0,0 -466,62 -478,-53 -11,-107 234,-71 410,-71 114,0 152,85 68,124zm-730 5c0,0 -553,63 -456,-97 33,-54 290,-32 403,-32 137,0 147,100 53,129zm1180 4c-245,0 -209,-131 -37,-135 118,-2 283,-15 380,18 41,154 -61,117 -343,117zm-2181 -712l0 3621c55,108 47,186 144,266 99,82 186,72 291,126l4208 0c92,-54 361,-103 395,-431 18,-170 15,-626 0,-799 -545,9 -1096,1 -1641,1 -277,0 -522,19 -691,-136 -170,-157 -157,-368 -157,-655 0,-299 -13,-501 171,-659 195,-167 399,-128 695,-128 534,0 1094,16 1625,-1 12,-420 98,-1032 -481,-1052 -495,-16 -1021,0 -1520,0l-2306 0c-140,1 -220,12 -243,-132 -19,-117 14,-220 71,-290 142,-5 316,24 438,-29l912 -420c-419,-19 -898,-6 -1322,-2 -533,5 -545,606 -589,720z"></path> <path class="fil1" d="M6618 4383c-491,-17 -1011,-1 -1505,-1 -866,0 -910,-84 -910,579 0,231 -19,483 209,539 108,27 1891,-4 2205,12l1 -1129z"></path> <path class="fil2" d="M7294 3863l0 -29c-72,-80 -823,-1858 -1005,-2249l-157 -332 -4068 1685c61,29 509,21 618,23 198,5 336,-83 498,-148 246,-99 2669,-1107 2793,-1126l884 2022 -223 129 -4 379 664 -354z"></path> </g> </g> </svg>