<svg viewBox="0 0 50 50" fill="none" xmlns="http://www.w3.org/2000/svg"><rect width="50" height="50" rx="16" fill="#70E1C6" fill-opacity=".12"/><path d="M33.45 22.67h-1.068a7.296 7.296 0 00-.423-1.056l.772-.772c.287-.287 1.159-1.159.068-2.25l-1.131-1.13c-.133-.134-.543-.53-1.1-.531-.523.006-.913.35-1.15.598l-.717.718a8.61 8.61 0 00-1.36-.585v-1.033c0-.403 0-1.629-1.538-1.629h-1.606c-1.035 0-1.539.533-1.539 1.629v.976c-.472.15-.928.346-1.366.59l-.71-.711c-.267-.267-.636-.577-1.122-.597-.511-.019-.89.291-1.128.529l-1.13 1.131c-1.091 1.091-.22 1.963.067 2.25l.779.778c-.171.35-.314.701-.427 1.05H16.55c-1.035 0-1.539.532-1.539 1.628v1.426c0 1.096.504 1.629 1.539 1.629h1.075c.151.49.354.963.606 1.416l-.78.796c-.77.769-.793 1.526-.069 2.25l1.131 1.13c.978.978 1.753.43 2.25-.067l.862-.863c.335.166.687.307 1.056.424v.977c0 1.096.503 1.629 1.539 1.629h1.606c1.035 0 1.538-.533 1.538-1.63v-.977a7.327 7.327 0 001.056-.423l.885.885c.769.769 1.526.792 2.25.068l1.13-1.131c.234-.234.544-.602.539-1.098-.005-.517-.355-.91-.606-1.151l-.824-.824c.244-.438.44-.895.59-1.367h1.066c1.035 0 1.539-.532 1.539-1.628v-1.426c0-.402 0-1.628-1.539-1.628zm.181 3.054c0 .133-.008.214-.016.263a1.323 1.323 0 01-.165.009h-1.584a.678.678 0 00-.66.523 6.05 6.05 0 01-.835 1.933.679.679 0 00.088.851l1.21 1.21c.093.089.145.151.173.19-.023.03-.058.072-.116.13l-1.131 1.13a1.2 1.2 0 01-.124.11 1.463 1.463 0 01-.206-.177l-1.244-1.245a.679.679 0 00-.83-.102 5.932 5.932 0 01-1.664.67.678.678 0 00-.52.659v1.493c0 .132-.008.214-.017.263a1.324 1.324 0 01-.164.008H24.22c-.076 0-.129-.003-.164-.008a1.592 1.592 0 01-.017-.263v-1.493a.678.678 0 00-.52-.66 5.931 5.931 0 01-1.665-.669.678.678 0 00-.83.102l-1.22 1.222c-.098.096-.163.15-.205.181a1.442 1.442 0 01-.126-.113l-1.131-1.131a1.216 1.216 0 01-.11-.124c.027-.041.081-.11.183-.211l1.154-1.177a.678.678 0 00.083-.847 6.054 6.054 0 01-.818-1.863.68.68 0 00-.678-.638H16.55a1.3 1.3 0 01-.164-.008 1.577 1.577 0 01-.017-.263v-1.426c0-.132.008-.214.017-.263.035-.005.088-.009.164-.009h1.584a.678.678 0 00.66-.519c.132-.548.36-1.114.679-1.683a.679.679 0 00-.113-.811l-1.131-1.132a1.544 1.544 0 01-.179-.204c.021-.028.055-.07.111-.126l1.131-1.13c.056-.056.096-.09.124-.111.04.027.107.08.206.178l1.086 1.086a.68.68 0 00.852.088c.6-.393 1.25-.674 1.933-.834a.679.679 0 00.523-.66v-1.494c0-.132.008-.214.017-.263.035-.005.088-.008.164-.008h1.606c.077 0 .13.004.165.008.009.049.016.13.016.263v1.539c0 .308.208.577.505.656a7.23 7.23 0 011.965.848.68.68 0 00.838-.097l1.097-1.097a1.28 1.28 0 01.19-.17c.028.02.07.055.13.113l1.13 1.131c.056.056.09.097.111.126-.027.04-.08.105-.179.204l-1.13 1.131a.68.68 0 00-.103.83c.296.493.521 1.053.669 1.665.073.304.346.52.66.52h1.583c.077 0 .13.003.165.008.008.049.016.13.016.263v1.425z" fill="#70E1C6"/><path d="M25.034 21.584A3.42 3.42 0 0021.618 25a3.42 3.42 0 003.416 3.416A3.42 3.42 0 0028.451 25a3.42 3.42 0 00-3.417-3.416zm0 5.475A2.061 2.061 0 0122.975 25c0-1.135.924-2.059 2.06-2.059 1.135 0 2.058.924 2.058 2.059a2.061 2.061 0 01-2.059 2.059z" fill="#70E1C6"/></svg>