<svg viewBox="0 0 24 24" fill="none" xmlns="http://www.w3.org/2000/svg"><circle cx="12" cy="12" r="12" fill="#FF7262" fill-opacity=".12"/><path d="M13.101 12l3.74-3.739a.544.544 0 000-.773l-.328-.328a.542.542 0 00-.387-.16.542.542 0 00-.387.16L12 10.9 8.261 7.16A.542.542 0 007.874 7a.542.542 0 00-.386.16l-.328.328a.547.547 0 000 .773l3.739 3.74-3.739 3.738a.544.544 0 00-.16.387c0 .146.057.284.16.387l.328.327c.103.103.24.16.386.16a.542.542 0 00.387-.16l3.74-3.739 3.738 3.74c.103.102.24.159.387.159a.543.543 0 00.386-.16l.328-.327a.544.544 0 00.16-.387.544.544 0 00-.16-.387L13.101 12z" fill="#FF7262"/></svg>