<svg viewBox="0 0 46 46" fill="none" xmlns="http://www.w3.org/2000/svg"><rect width="46" height="46" rx="10" fill="#2D2D3A"/><g clip-path="url(#clip0)"><path d="M30.313 16.25H15.688A1.69 1.69 0 0014 17.938v10.125c0 .93.757 1.687 1.688 1.687h14.624A1.69 1.69 0 0032 28.062V17.938a1.69 1.69 0 00-1.688-1.687zm0 1.125c.076 0 .149.016.215.044L23 23.943l-7.528-6.524a.56.56 0 01.216-.044h14.624zm0 11.25H15.688a.563.563 0 01-.563-.563v-9.455l7.506 6.506a.562.562 0 00.738 0l7.506-6.506v9.456c0 .31-.252.562-.563.562z" fill="#fff"/></g><defs><clipPath id="clip0"><path fill="#fff" transform="translate(14 14)" d="M0 0h18v18H0z"/></clipPath></defs></svg>