<svg viewBox="0 0 50 50" fill="none" xmlns="http://www.w3.org/2000/svg"><rect opacity=".12" width="50" height="50" rx="16" fill="#5157E1"/><path d="M32.654 24.287l-6.892-6.992a.992.992 0 00-1.413 0 1.015 1.015 0 000 1.427L30.54 25l-6.19 6.278a1.015 1.015 0 000 1.427.992.992 0 001.413 0l6.892-6.992a1.042 1.042 0 000-1.426z" fill="#5157E1"/><path d="M25.662 24.287l-6.892-6.992a.992.992 0 00-1.412 0 1.015 1.015 0 000 1.427L23.546 25l-6.19 6.278a1.015 1.015 0 000 1.427.992.992 0 001.413 0l6.892-6.992a1.042 1.042 0 000-1.426z" fill="#5157E1"/></svg>