<svg viewBox="0 0 50 50" fill="none" xmlns="http://www.w3.org/2000/svg"><rect width="50" height="50" rx="16" fill="#FF7262" fill-opacity=".12"/><path d="M32.956 18.238L25.3 15.06a.782.782 0 00-.6 0l-7.656 3.178a.781.781 0 00-.482.722v3.864c0 5.321 3.216 10.107 8.143 12.118.189.077.401.077.59 0a13.083 13.083 0 008.142-12.118V18.96c0-.316-.19-.6-.481-.722zm-1.081 4.586c0 4.523-2.656 8.688-6.875 10.546a11.524 11.524 0 01-6.875-10.546v-3.342L25 16.627l6.875 2.855v3.342zm-7.738 2.634l3.357-3.358a.781.781 0 111.105 1.105l-3.91 3.91a.781.781 0 01-1.105 0l-2.183-2.183a.781.781 0 011.105-1.105l1.63 1.63z" fill="#FF7262"/></svg>