<svg viewBox="0 0 50 50" fill="none" xmlns="http://www.w3.org/2000/svg"><rect width="50" height="50" rx="16" fill="#FEBB26" fill-opacity=".12"/><path d="M33.25 30.25h-1.997a2.62 2.62 0 00-2.503-1.875 2.62 2.62 0 00-2.503 1.875H16.75a.75.75 0 000 1.5h9.497a2.62 2.62 0 002.503 1.875 2.62 2.62 0 002.503-1.875h1.997a.75.75 0 100-1.5zm-4.5 1.875c-.62 0-1.125-.505-1.125-1.125s.505-1.125 1.125-1.125 1.125.505 1.125 1.125-.505 1.125-1.125 1.125zM33.25 18.25h-1.997a2.62 2.62 0 00-2.503-1.875 2.62 2.62 0 00-2.503 1.875H16.75a.75.75 0 000 1.5h9.497a2.62 2.62 0 002.503 1.875 2.62 2.62 0 002.503-1.875h1.997a.75.75 0 100-1.5zm-4.5 1.875c-.62 0-1.125-.505-1.125-1.125s.505-1.125 1.125-1.125 1.125.505 1.125 1.125-.505 1.125-1.125 1.125zM33.25 24.25h-9.497a2.62 2.62 0 00-2.503-1.875 2.62 2.62 0 00-2.503 1.875H16.75a.75.75 0 000 1.5h1.997a2.62 2.62 0 002.503 1.875 2.62 2.62 0 002.503-1.875h9.497a.75.75 0 100-1.5zm-12 1.875c-.62 0-1.125-.505-1.125-1.125s.505-1.125 1.125-1.125 1.125.505 1.125 1.125-.505 1.125-1.125 1.125z" fill="#FEBB26"/></svg>