<svg viewBox="0 0 24 24" fill="none" xmlns="http://www.w3.org/2000/svg"><circle cx="12" cy="12" r="12" fill="#70E1C6" fill-opacity=".18"/><path d="M17.808 8.548l-.393-.393a.651.651 0 00-.464-.191.651.651 0 00-.464.191l-5.523 5.523-3.451-3.45a.652.652 0 00-.464-.192.652.652 0 00-.464.191l-.393.393a.653.653 0 00-.192.465c0 .175.068.34.192.464l3.896 3.896a.15.15 0 00.017.02l.393.387a.648.648 0 00.465.184h.002c.176 0 .341-.061.464-.184l.394-.39.015-.017 5.97-5.97a.655.655 0 000-.927z" fill="#70E1C6"/></svg>