<svg viewBox="0 0 46 46" fill="none" xmlns="http://www.w3.org/2000/svg"><rect width="46" height="46" rx="10" fill="#2D2D3A"/><g clip-path="url(#clip0)"><path d="M31.722 15.788c-.22-.269-.55-.417-.927-.417a1.82 1.82 0 00-.648.129l-15.236 5.816c-.809.309-.918.772-.91 1.02.006.249.141.705.966.968l.015.004 3.16.904 1.71 4.888c.233.666.756 1.08 1.365 1.08.384 0 .762-.16 1.093-.465l1.954-1.8 2.836 2.283.028.023.007.005c.316.245.66.374.995.374.657 0 1.18-.486 1.332-1.238l2.497-12.327c.1-.495.016-.938-.237-1.247zM19.2 24.041l6.097-3.115L21.5 24.96a.526.526 0 00-.128.235l-.732 2.965-1.44-4.12zm2.395 4.898a1.01 1.01 0 01-.076.063l.68-2.75 1.235.994-1.839 1.693zm9.33-12.114L28.43 29.153c-.024.118-.101.392-.298.392-.098 0-.22-.053-.346-.15l-3.213-2.587h-.001l-1.912-1.54 5.49-5.834a.527.527 0 00-.623-.831l-9.03 4.613-3.204-.916 15.232-5.815a.775.775 0 01.27-.06c.033 0 .09.005.112.03.028.035.063.152.02.37z" fill="#fff"/></g><defs><clipPath id="clip0"><path fill="#fff" transform="translate(14 14)" d="M0 0h18v18H0z"/></clipPath></defs></svg>