<svg viewBox="0 0 46 46" fill="none" xmlns="http://www.w3.org/2000/svg"><rect width="46" height="46" rx="10" fill="#2D2D3A"/><path d="M23 13c-3.994 0-7.243 3.25-7.243 7.243 0 4.957 6.482 12.233 6.758 12.54.259.29.712.289.97 0 .276-.307 6.758-7.583 6.758-12.54C30.243 16.25 26.993 13 23 13zm0 18.349c-2.181-2.591-5.939-7.704-5.939-11.106A5.946 5.946 0 0123 14.304a5.946 5.946 0 015.939 5.94c0 3.401-3.757 8.513-5.939 11.105z" fill="#fff"/><path d="M23 16.6a3.648 3.648 0 00-3.644 3.643A3.648 3.648 0 0023 23.888a3.648 3.648 0 003.644-3.645A3.648 3.648 0 0023 16.6zm0 5.983c-1.29 0-2.34-1.05-2.34-2.34 0-1.29 1.05-2.34 2.34-2.34 1.29 0 2.34 1.05 2.34 2.34 0 1.29-1.05 2.34-2.34 2.34z" fill="#fff"/></svg>