<svg viewBox="0 0 46 46" fill="none" xmlns="http://www.w3.org/2000/svg"><rect width="46" height="46" rx="10" fill="#2D2D3A"/><g clip-path="url(#clip0)"><path d="M31.537 27.276l-2.238-2.238a1.584 1.584 0 00-2.237 0l-1.018 1.018a1.2 1.2 0 01-1.695 0l-4.408-4.413a1.198 1.198 0 010-1.695l1.017-1.017a1.581 1.581 0 000-2.238l-2.238-2.23a1.584 1.584 0 00-2.236-.002l-.815.809a5.712 5.712 0 000 8.069l6.985 6.989a5.702 5.702 0 008.07 0l.813-.814a1.584 1.584 0 000-2.238zM17.229 15.21a.528.528 0 01.746 0l2.237 2.23a.527.527 0 010 .746l-.373.373-2.981-2.982.37-.367zM23.4 29.582l-6.985-6.99a4.637 4.637 0 01-.291-6.257l2.973 2.973a2.251 2.251 0 00.098 3.081l4.408 4.412c.846.846 2.195.88 3.082.099l2.973 2.973a4.628 4.628 0 01-6.258-.291zm7.391-.814l-.373.373-2.983-2.984.373-.373a.528.528 0 01.745 0l2.238 2.238a.528.528 0 010 .746z" fill="#fff"/></g><defs><clipPath id="clip0"><path fill="#fff" transform="translate(14 14)" d="M0 0h18v18H0z"/></clipPath></defs></svg>