<svg viewBox="0 0 50 50" fill="none" xmlns="http://www.w3.org/2000/svg"><rect width="50" height="50" rx="16" fill="#FEBB26" fill-opacity=".12"/><g clip-path="url(#clip0)" fill="#FEBB26"><path d="M35.873 24.577l-1.395-2.116.14-2.535a.768.768 0 00-.421-.727l-2.256-1.14-1.14-2.256a.771.771 0 00-.727-.42l-2.536.139-2.116-1.395a.767.767 0 00-.845 0l-2.116 1.395-2.535-.14a.765.765 0 00-.727.42l-1.14 2.257-2.256 1.14a.768.768 0 00-.42.727l.139 2.535-1.395 2.117a.767.767 0 000 .844l1.395 2.116-.14 2.536a.768.768 0 00.42.727l2.257 1.14 1.14 2.256a.77.77 0 00.727.42l2.535-.14 2.116 1.396a.767.767 0 00.845 0l2.116-1.396 2.536.14a.768.768 0 00.727-.42l1.14-2.256 2.256-1.14a.768.768 0 00.42-.727l-.14-2.536 1.396-2.116a.768.768 0 000-.845zm-2.817 2.328a.768.768 0 00-.125.465l.125 2.287-2.033 1.028a.767.767 0 00-.339.339l-1.027 2.033-2.288-.126a.774.774 0 00-.464.126L25 34.313l-1.906-1.256a.769.769 0 00-.422-.127l-.043.001-2.287.126-1.027-2.034a.767.767 0 00-.34-.338l-2.033-1.028.126-2.287a.768.768 0 00-.125-.465L15.686 25l1.257-1.906c.09-.137.134-.3.125-.464l-.125-2.287 2.033-1.028a.768.768 0 00.339-.339l1.027-2.033 2.288.126a.759.759 0 00.464-.126L25 15.687l1.905 1.256c.137.09.3.134.465.125l2.287-.126 1.027 2.034a.768.768 0 00.34.339l2.033 1.027-.126 2.288a.767.767 0 00.125.464L34.313 25l-1.257 1.905z"/><path d="M21.802 19.372a2.69 2.69 0 00-2.686 2.686 2.69 2.69 0 002.686 2.686 2.69 2.69 0 002.686-2.686 2.69 2.69 0 00-2.686-2.686zm0 3.837a1.153 1.153 0 01-1.151-1.15c0-.636.516-1.152 1.151-1.152a1.152 1.152 0 010 2.302zM27.942 25.512a2.689 2.689 0 00-2.686 2.686 2.689 2.689 0 002.686 2.686 2.689 2.689 0 002.686-2.686 2.689 2.689 0 00-2.686-2.686zm0 3.837a1.153 1.153 0 01-1.151-1.151c0-.635.516-1.151 1.15-1.151a1.152 1.152 0 010 2.302zM29.917 20.083c-.3-.3-.786-.3-1.085 0l-8.75 8.749a.767.767 0 101.086 1.085l8.749-8.749c.3-.3.3-.785 0-1.085z"/></g><defs><clipPath id="clip0"><path fill="#fff" transform="translate(14 14)" d="M0 0h22v22H0z"/></clipPath></defs></svg>