<svg viewBox="0 0 50 50" fill="none" xmlns="http://www.w3.org/2000/svg"><rect opacity=".12" width="50" height="50" rx="16" fill="#5157E1"/><g clip-path="url(#clip0)"><path d="M32.656 18.073h-.729v-.73A2.346 2.346 0 0029.583 15H17.318A2.32 2.32 0 0015 17.318v15.221A2.464 2.464 0 0017.46 35h15.196A2.346 2.346 0 0035 32.656v-12.24a2.346 2.346 0 00-2.344-2.343zm.782 9.987h-3.06c-.84 0-1.524-.683-1.524-1.524 0-.84.684-1.523 1.524-1.523h3.06v3.047zm-16.12-11.497h12.265c.431 0 .782.35.782.78v.73H17.317a.756.756 0 010-1.51zm15.338 16.875H17.461a.9.9 0 01-.898-.899V19.51c.236.082.49.126.755.126h15.338c.431 0 .782.35.782.782v3.034h-3.06a3.09 3.09 0 00-3.086 3.085 3.09 3.09 0 003.086 3.086h3.06v3.034c0 .431-.351.782-.782.782z" fill="#5157E1"/></g><defs><clipPath id="clip0"><path fill="#fff" transform="translate(15 15)" d="M0 0h20v20H0z"/></clipPath></defs></svg>