<svg viewBox="0 0 50 50" fill="none" xmlns="http://www.w3.org/2000/svg"><rect width="50" height="50" rx="16" fill="#FF7262" fill-opacity=".12"/><g clip-path="url(#clip0)" fill="#FF7262"><path d="M34.976 16.493a1.555 1.555 0 00-1.47-1.47c-1.602-.087-4.74-.002-7.739 1.55-1.529.79-3.146 2.132-4.437 3.679l-.047.057-2.929.226c-.482.038-.911.29-1.178.694l-1.998 3.022a1.066 1.066 0 00-.086 1.024c.148.335.453.569.815.625l2.468.382-.025.144c-.083.492.08.997.435 1.352l3.437 3.437a1.558 1.558 0 001.352.435l.144-.025.382 2.468a1.066 1.066 0 001.06.907c.205 0 .41-.06.589-.178l3.022-1.998c.404-.267.656-.696.694-1.178l.226-2.93.057-.046c1.547-1.29 2.888-2.908 3.68-4.437 1.55-3 1.636-6.137 1.548-7.74zm-6.851 15.353l-2.891 1.912-.373-2.405a13.13 13.13 0 003.583-1.706l-.148 1.908a.382.382 0 01-.171.291zm-5.074-1.46l-3.437-3.437a.38.38 0 01-.109-.33c.103-.61.261-1.192.458-1.74l5.157 5.157a10.13 10.13 0 01-1.74.459.38.38 0 01-.329-.109zm-4.606-8.682l1.908-.148a13.122 13.122 0 00-1.706 3.583l-2.405-.373 1.912-2.891a.382.382 0 01.29-.171zm10.552 6.066a13.43 13.43 0 01-2.712 1.774l-5.829-5.83a13.668 13.668 0 011.774-2.711c1.195-1.432 2.68-2.668 4.076-3.39 2.753-1.423 5.653-1.5 7.137-1.42.196.011.352.168.363.364.081 1.484.004 4.385-1.42 7.137-.722 1.396-1.957 2.881-3.389 4.076z"/><path d="M28.7 24.228c.75 0 1.5-.285 2.072-.856a2.91 2.91 0 00.858-2.072 2.91 2.91 0 00-.858-2.072 2.933 2.933 0 00-4.143 0 2.91 2.91 0 00-.859 2.072c0 .782.305 1.518.859 2.072a2.92 2.92 0 002.071.856zm-1.243-4.17a1.752 1.752 0 011.243-.515 1.752 1.752 0 011.758 1.757 1.76 1.76 0 01-3.515 0c0-.47.182-.91.514-1.243zM15.598 31.482c.15 0 .3-.057.414-.172l1.913-1.913a.586.586 0 00-.829-.828l-1.913 1.913a.586.586 0 00.415 1zM19.678 30.322a.586.586 0 00-.828 0L15.172 34a.586.586 0 00.828.828l3.678-3.678a.586.586 0 000-.828zM20.603 32.075l-1.913 1.913a.586.586 0 00.828.829l1.913-1.913a.586.586 0 00-.828-.83z"/></g><defs><clipPath id="clip0"><path fill="#fff" transform="translate(15 15)" d="M0 0h20v20H0z"/></clipPath></defs></svg>