<svg width="32" height="32" viewBox="0 0 32 32" fill="none" xmlns="http://www.w3.org/2000/svg">
<g clip-path="url(#clip0)">
<path d="M0.195312 15.5288L10.1953 5.52883C10.3867 5.33871 10.6712 5.28077 10.9219 5.38427C11.1712 5.48715 11.3333 5.73065 11.3333 6.00015V7.33346C11.3333 7.51052 11.263 7.67983 11.138 7.80483L4.276 14.6668H31.3333C31.7018 14.6669 32 14.965 32 15.3335V16.6668C32 17.0353 31.7018 17.3335 31.3333 17.3335H4.276L11.138 24.1955C11.263 24.3205 11.3333 24.4898 11.3333 24.6669V26.0002C11.3333 26.2698 11.1712 26.5132 10.9219 26.6161C10.8392 26.6506 10.7526 26.6669 10.6667 26.6669C10.4935 26.6669 10.3229 26.5992 10.1953 26.4716L0.195312 16.4716C-0.0651245 16.2111 -0.0651245 15.7893 0.195312 15.5288Z" fill="white"/>
</g>
<defs>
<clipPath id="clip0">
<rect width="32" height="32" fill="white" transform="matrix(-1 0 0 1 32 0)"/>
</clipPath>
</defs>
</svg>
