<svg width="18" height="18" viewBox="0 0 18 18" fill="none" xmlns="http://www.w3.org/2000/svg">
<path d="M15.1312 16.2157C12.2608 14.9602 10.4062 12.1281 10.4062 9C10.4062 5.87194 12.2608 3.03975 15.1312 1.78425C15.3366 1.69481 15.4688 1.49287 15.4688 1.269C15.4688 1.04513 15.3366 0.84375 15.1312 0.75375C13.9877 0.253688 12.7761 0 11.5312 0C6.56888 0 2.53125 4.03763 2.53125 9C2.53125 13.9624 6.56888 18 11.5312 18C12.7761 18 13.9877 17.7463 15.1312 17.2463C15.336 17.1562 15.4688 16.9543 15.4688 16.7304C15.4688 16.5066 15.3366 16.3052 15.1312 16.2157ZM11.5312 16.875C7.18875 16.875 3.65625 13.3425 3.65625 9C3.65625 4.6575 7.18875 1.125 11.5312 1.125C12.2017 1.125 12.861 1.20881 13.5028 1.37587C10.9018 3.00544 9.28125 5.87306 9.28125 9C9.28125 12.1269 10.9018 14.9946 13.5028 16.6241C12.861 16.7912 12.2017 16.875 11.5312 16.875Z" fill="#8C939D"/>
</svg>
