<svg width="32" height="32" viewBox="0 0 32 32" fill="none" xmlns="http://www.w3.org/2000/svg">
<g clip-path="url(#clip0)">
<path d="M31.8047 15.5288L21.8047 5.52883C21.6133 5.33871 21.3288 5.28077 21.0781 5.38427C20.8288 5.48715 20.6667 5.73065 20.6667 6.00015V7.33346C20.6667 7.51052 20.737 7.67983 20.862 7.80483L27.724 14.6668H0.666687C0.298187 14.6669 0 14.965 0 15.3335V16.6668C0 17.0353 0.298187 17.3335 0.666687 17.3335H27.724L20.862 24.1955C20.737 24.3205 20.6667 24.4898 20.6667 24.6669V26.0002C20.6667 26.2698 20.8288 26.5132 21.0781 26.6161C21.1608 26.6506 21.2474 26.6669 21.3333 26.6669C21.5065 26.6669 21.6771 26.5992 21.8047 26.4716L31.8047 16.4716C32.0651 16.2111 32.0651 15.7893 31.8047 15.5288Z" fill="white"/>
</g>
<defs>
<clipPath id="clip0">
<rect width="32" height="32" fill="white"/>
</clipPath>
</defs>
</svg>
