<svg width="20" height="20" viewBox="0 0 20 20" fill="none" xmlns="http://www.w3.org/2000/svg">
<g clip-path="url(#clip0)">
<path d="M13.5449 6.45503C12.6455 5.55556 11.3756 4.97355 9.99997 4.97355C8.62431 4.97355 7.35446 5.5291 6.45499 6.45503C5.55552 7.3545 4.97351 8.62434 4.97351 10C4.97351 11.3757 5.55552 12.6455 6.45499 13.545C7.35446 14.4444 8.62431 15.0265 9.99997 15.0265C11.3756 15.0265 12.6455 14.4709 13.5449 13.545C14.4444 12.6455 15.0264 11.3757 15.0264 10C15.0264 8.62434 14.4709 7.3545 13.5449 6.45503ZM12.5926 12.5926C11.9312 13.254 11.0053 13.6508 9.99997 13.6508C8.99468 13.6508 8.06875 13.254 7.40737 12.5926C6.746 11.9312 6.34917 11.0053 6.34917 10C6.34917 8.99471 6.746 8.06878 7.40737 7.40741C8.06875 6.74603 8.99468 6.34921 9.99997 6.34921C11.0053 6.34921 11.9312 6.74603 12.5926 7.40741C13.2539 8.06878 13.6508 8.99471 13.6508 10C13.6508 11.0053 13.2539 11.9312 12.5926 12.5926Z" fill="#5157E1"/>
<path d="M19.3122 9.31217H17.2751C16.9047 9.31217 16.5873 9.62963 16.5873 10C16.5873 10.3704 16.9047 10.6878 17.2751 10.6878H19.3122C19.6825 10.6878 20 10.3704 20 10C20 9.62963 19.6825 9.31217 19.3122 9.31217Z" fill="#5157E1"/>
<path d="M9.99996 16.5873C9.62959 16.5873 9.31213 16.9047 9.31213 17.2751V19.3122C9.31213 19.6825 9.62959 20 9.99996 20C10.3703 20 10.6878 19.6825 10.6878 19.3122V17.2751C10.6878 16.9047 10.3703 16.5873 9.99996 16.5873Z" fill="#5157E1"/>
<path d="M17.0636 16.1111L15.6086 14.6561C15.3705 14.3915 14.9207 14.3915 14.6562 14.6561C14.3916 14.9206 14.3916 15.3439 14.6562 15.6085L16.1112 17.0635C16.3758 17.328 16.799 17.328 17.0636 17.0635C17.3281 16.7989 17.3281 16.3757 17.0636 16.1111Z" fill="#5157E1"/>
<path d="M9.99996 0C9.62959 0 9.31213 0.31746 9.31213 0.687829V2.72486C9.31213 3.09523 9.62959 3.41269 9.99996 3.41269C10.3703 3.41269 10.6878 3.09523 10.6878 2.72486V0.687829C10.6878 0.31746 10.3703 0 9.99996 0Z" fill="#5157E1"/>
<path d="M17.0898 2.93652C16.8253 2.67197 16.402 2.67197 16.1374 2.93652L14.6824 4.39155C14.4179 4.6561 14.4179 5.07938 14.6824 5.34393C14.9205 5.60848 15.3703 5.60848 15.6348 5.34393L17.0898 3.8889C17.3544 3.62435 17.3544 3.20107 17.0898 2.93652Z" fill="#5157E1"/>
<path d="M2.72486 9.31217H0.687829C0.31746 9.31217 0 9.62963 0 10C0 10.3704 0.291005 10.6878 0.687829 10.6878H2.72486C3.09523 10.6878 3.41269 10.3704 3.41269 10C3.41269 9.62963 3.09523 9.31217 2.72486 9.31217Z" fill="#5157E1"/>
<path d="M5.31737 14.6561C5.07927 14.3915 4.62954 14.3915 4.36499 14.6561L2.90996 16.1111C2.64541 16.3757 2.64541 16.7989 2.90996 17.0635C3.17451 17.328 3.59779 17.328 3.86234 17.0635L5.31737 15.6085C5.58192 15.3439 5.58192 14.9206 5.31737 14.6561Z" fill="#5157E1"/>
<path d="M5.31737 4.39155L3.86234 2.93652C3.59779 2.67197 3.17451 2.67197 2.90996 2.93652C2.64541 3.20107 2.64541 3.62435 2.90996 3.8889L4.36499 5.34393C4.62954 5.60848 5.05282 5.60848 5.31737 5.34393C5.58192 5.07938 5.58192 4.6561 5.31737 4.39155Z" fill="#5157E1"/>
</g>
<defs>
<clipPath id="clip0">
<rect width="20" height="20" fill="white"/>
</clipPath>
</defs>
</svg>
