<svg viewBox="0 0 139 204" fill="none" xmlns="http://www.w3.org/2000/svg"><circle cx="135.278" cy="135" r="3" transform="rotate(90 135.278 135)" fill="#CAD2DD"/><circle cx="113.278" cy="135" r="3" transform="rotate(90 113.278 135)" fill="#CAD2DD"/><circle cx="91.278" cy="135" r="3" transform="rotate(90 91.278 135)" fill="#CAD2DD"/><circle cx="69.278" cy="135" r="3" transform="rotate(90 69.278 135)" fill="#CAD2DD"/><circle cx="47.278" cy="135" r="3" transform="rotate(90 47.278 135)" fill="#CAD2DD"/><circle cx="25.277" cy="135" r="3" transform="rotate(90 25.277 135)" fill="#CAD2DD"/><circle cx="135.278" cy="69" r="3" transform="rotate(90 135.278 69)" fill="#CAD2DD"/><circle cx="113.278" cy="69" r="3" transform="rotate(90 113.278 69)" fill="#CAD2DD"/><circle cx="91.278" cy="69" r="3" transform="rotate(90 91.278 69)" fill="#CAD2DD"/><circle cx="69.278" cy="69" r="3" transform="rotate(90 69.278 69)" fill="#CAD2DD"/><circle cx="47.278" cy="69" r="3" transform="rotate(90 47.278 69)" fill="#CAD2DD"/><circle cx="25.277" cy="69" r="3" transform="rotate(90 25.277 69)" fill="#CAD2DD"/><circle cx="135.278" cy="157" r="3" transform="rotate(90 135.278 157)" fill="#CAD2DD"/><circle cx="113.278" cy="157" r="3" transform="rotate(90 113.278 157)" fill="#CAD2DD"/><circle cx="91.278" cy="157" r="3" transform="rotate(90 91.278 157)" fill="#CAD2DD"/><circle cx="69.278" cy="157" r="3" transform="rotate(90 69.278 157)" fill="#CAD2DD"/><circle cx="47.278" cy="157" r="3" transform="rotate(90 47.278 157)" fill="#CAD2DD"/><circle cx="25.277" cy="157" r="3" transform="rotate(90 25.277 157)" fill="#CAD2DD"/><circle cx="135.278" cy="91" r="3" transform="rotate(90 135.278 91)" fill="#CAD2DD"/><circle cx="113.278" cy="91" r="3" transform="rotate(90 113.278 91)" fill="#CAD2DD"/><circle cx="91.278" cy="91" r="3" transform="rotate(90 91.278 91)" fill="#CAD2DD"/><circle cx="69.278" cy="91" r="3" transform="rotate(90 69.278 91)" fill="#CAD2DD"/><circle cx="47.278" cy="91" r="3" transform="rotate(90 47.278 91)" fill="#CAD2DD"/><circle cx="25.277" cy="91" r="3" transform="rotate(90 25.277 91)" fill="#CAD2DD"/><circle cx="135.278" cy="179" r="3" transform="rotate(90 135.278 179)" fill="#CAD2DD"/><circle cx="113.278" cy="179" r="3" transform="rotate(90 113.278 179)" fill="#CAD2DD"/><circle cx="91.278" cy="179" r="3" transform="rotate(90 91.278 179)" fill="#CAD2DD"/><circle cx="69.278" cy="179" r="3" transform="rotate(90 69.278 179)" fill="#CAD2DD"/><circle cx="47.278" cy="179" r="3" transform="rotate(90 47.278 179)" fill="#CAD2DD"/><circle cx="25.277" cy="179" r="3" transform="rotate(90 25.277 179)" fill="#CAD2DD"/><circle cx="135.278" cy="113" r="3" transform="rotate(90 135.278 113)" fill="#CAD2DD"/><circle cx="113.278" cy="113" r="3" transform="rotate(90 113.278 113)" fill="#CAD2DD"/><circle cx="91.278" cy="113" r="3" transform="rotate(90 91.278 113)" fill="#CAD2DD"/><circle cx="69.278" cy="113" r="3" transform="rotate(90 69.278 113)" fill="#CAD2DD"/><circle cx="47.278" cy="113" r="3" transform="rotate(90 47.278 113)" fill="#CAD2DD"/><circle cx="25.277" cy="113" r="3" transform="rotate(90 25.277 113)" fill="#CAD2DD"/><circle cx="135.278" cy="201" r="3" transform="rotate(90 135.278 201)" fill="#CAD2DD"/><circle cx="113.278" cy="201" r="3" transform="rotate(90 113.278 201)" fill="#CAD2DD"/><circle cx="91.278" cy="201" r="3" transform="rotate(90 91.278 201)" fill="#CAD2DD"/><circle cx="69.278" cy="201" r="3" transform="rotate(90 69.278 201)" fill="#CAD2DD"/><circle cx="47.278" cy="201" r="3" transform="rotate(90 47.278 201)" fill="#CAD2DD"/><circle cx="25.277" cy="201" r="3" transform="rotate(90 25.277 201)" fill="#CAD2DD"/><circle cx="3.278" cy="135" r="3" transform="rotate(90 3.278 135)" fill="#CAD2DD"/><circle cx="3.278" cy="69" r="3" transform="rotate(90 3.278 69)" fill="#CAD2DD"/><circle cx="3.278" cy="157" r="3" transform="rotate(90 3.278 157)" fill="#CAD2DD"/><circle cx="3.278" cy="91" r="3" transform="rotate(90 3.278 91)" fill="#CAD2DD"/><circle cx="3.278" cy="179" r="3" transform="rotate(90 3.278 179)" fill="#CAD2DD"/><circle cx="3.278" cy="113" r="3" transform="rotate(90 3.278 113)" fill="#CAD2DD"/><circle cx="3.278" cy="201" r="3" transform="rotate(90 3.278 201)" fill="#CAD2DD"/><circle cx="135.278" cy="3" r="3" transform="rotate(90 135.278 3)" fill="#CAD2DD"/><circle cx="113.278" cy="3" r="3" transform="rotate(90 113.278 3)" fill="#CAD2DD"/><circle cx="91.278" cy="3" r="3" transform="rotate(90 91.278 3)" fill="#CAD2DD"/><circle cx="69.278" cy="3" r="3" transform="rotate(90 69.278 3)" fill="#CAD2DD"/><circle cx="47.278" cy="3" r="3" transform="rotate(90 47.278 3)" fill="#CAD2DD"/><circle cx="25.277" cy="3" r="3" transform="rotate(90 25.277 3)" fill="#CAD2DD"/><circle cx="135.278" cy="25" r="3" transform="rotate(90 135.278 25)" fill="#CAD2DD"/><circle cx="113.278" cy="25" r="3" transform="rotate(90 113.278 25)" fill="#CAD2DD"/><circle cx="91.278" cy="25" r="3" transform="rotate(90 91.278 25)" fill="#CAD2DD"/><circle cx="69.278" cy="25" r="3" transform="rotate(90 69.278 25)" fill="#CAD2DD"/><circle cx="47.278" cy="25" r="3" transform="rotate(90 47.278 25)" fill="#CAD2DD"/><circle cx="25.277" cy="25" r="3" transform="rotate(90 25.277 25)" fill="#CAD2DD"/><circle cx="135.278" cy="47" r="3" transform="rotate(90 135.278 47)" fill="#CAD2DD"/><circle cx="113.278" cy="47" r="3" transform="rotate(90 113.278 47)" fill="#CAD2DD"/><circle cx="91.278" cy="47" r="3" transform="rotate(90 91.278 47)" fill="#CAD2DD"/><circle cx="69.278" cy="47" r="3" transform="rotate(90 69.278 47)" fill="#CAD2DD"/><circle cx="47.278" cy="47" r="3" transform="rotate(90 47.278 47)" fill="#CAD2DD"/><circle cx="25.277" cy="47" r="3" transform="rotate(90 25.277 47)" fill="#CAD2DD"/><circle cx="3.278" cy="3" r="3" transform="rotate(90 3.278 3)" fill="#CAD2DD"/><circle cx="3.278" cy="25" r="3" transform="rotate(90 3.278 25)" fill="#CAD2DD"/><circle cx="3.278" cy="47" r="3" transform="rotate(90 3.278 47)" fill="#CAD2DD"/></svg>