<svg width="474" height="522" viewBox="0 0 474 522" fill="none" xmlns="http://www.w3.org/2000/svg">
<path d="M470.108 509.058C470.108 509.058 421.498 531.884 388.947 516.908C356.397 501.931 255.848 495.223 193.255 509.058C100.548 529.518 73.0115 496.1 82.7334 474.066L157.64 464.323C157.64 464.323 254.344 467.817 326.771 468.68C399.199 469.543 466.737 496.963 470.108 509.058Z" fill="#B4A0CE"/>
<path d="M459 429.968C459 461.422 356.299 487 229.508 487C102.717 487 0 461.422 0 429.968C0 398.513 102.717 373 229.508 373C356.299 373 459 398.513 459 429.968Z" fill="#B4A0CE"/>
<path d="M148.672 435.498C148.672 435.498 77.9301 450.488 93.4741 489.21C104.617 516.88 235.473 486.217 300.811 487.818C347.54 488.918 383.921 498.577 397.153 504.757C474.929 541.029 509.972 486.788 423.45 467.177C380.509 457.434 346.078 456.487 297.914 458.826C222.492 462.486 143.31 477.783 139.131 471.269C132.473 460.593 190.791 444.058 190.791 444.058C190.791 444.058 183.66 422.248 148.672 435.498Z" fill="#3C2A34"/>
<path d="M139.575 160.843C139.575 160.843 126.092 198.02 90.3383 254.306C62.6349 297.983 17.5629 436.083 217.448 446.271C417.333 456.459 372.512 337.497 354.238 273.152C335.964 208.806 362.567 76.4826 284.722 64.5405C206.876 52.5984 211.041 62.9816 182.864 81.549C174.73 86.9215 139.575 160.843 139.575 160.843Z" fill="#FFFAEF"/>
<path d="M361.633 298.679C361.633 298.679 292.186 295.185 285.027 232.44C285.027 232.44 308.942 289.395 357.12 282.269C357.162 282.269 359.962 292.499 361.633 298.679Z" fill="#F4EFD7"/>
<path d="M180.119 288.629C180.119 288.629 156.065 322.757 127.387 304.691C98.7082 286.625 82.7324 268.085 82.7324 268.085L93.2762 247.597C93.2762 247.597 118.472 303.438 180.119 288.629Z" fill="#F4EFD7"/>
<path d="M79.6281 274.864C79.6281 274.864 30.4473 397.194 163.323 404.515C296.199 411.837 371.524 400.201 369.253 331.735C369.253 331.735 395.216 420.035 316.855 438.588C245.918 455.388 141.679 453.467 105.66 418.072C69.6415 382.677 47.0637 323.76 79.6281 274.864Z" fill="#F4EFD7"/>
<path d="M293.693 73.9491L393.448 73.0862C393.448 73.0862 385.996 103.178 295.253 117.626L293.693 73.9491Z" fill="#3C2A34"/>
<path d="M318.609 82.4114L373.933 84.7079C373.933 84.7079 354.767 99.9349 328.512 103.387L318.609 82.4114Z" fill="#9E93C3"/>
<path d="M219.874 78.3755L176.765 0C176.765 0 166.152 59.1957 172.587 98.1816L219.874 78.3755Z" fill="#3C2A34"/>
<path d="M201.433 65.5564L182.407 25.3875C182.407 25.3875 177.685 55.7717 175.693 84.9589C175.693 84.9589 198.647 75.4665 201.433 65.5564Z" fill="#9E93C3"/>
<path d="M249.037 60.1284C249.037 60.1284 274.303 154.246 220.581 172.743C166.86 191.241 139.574 160.843 139.574 160.843C139.574 160.843 152.346 131.614 162.222 107.465C180.064 63.7333 224.119 56.1894 249.037 60.1284Z" fill="#3C2A34"/>
<path d="M271.866 62.689C271.866 62.689 246.906 157.113 278.05 176.153C309.193 195.194 343.833 170.892 343.833 170.892C343.833 170.892 352.496 63.1483 271.866 62.689Z" fill="#3C2A34"/>
<path d="M256.824 179.118L257.674 194.248L260.697 195.027L257.925 179.397L256.824 179.118Z" fill="#3C2A34"/>
<path d="M243.928 213.066C243.928 213.066 257.717 174.469 287.913 187.261C287.913 187.261 265.029 183.739 243.928 213.066Z" fill="#3C2A34"/>
<path d="M180.329 126.074L232.922 126.408C232.922 126.408 242.435 158.491 209.132 161.121C175.83 163.752 180.329 126.074 180.329 126.074Z" fill="#FFD16D"/>
<path d="M186.239 120.855L227.299 121.119C227.299 121.119 234.737 146.173 208.733 148.219C182.729 150.265 186.239 120.855 186.239 120.855Z" fill="#3C2A34"/>
<path d="M230.095 131.085C230.092 131.678 229.913 132.256 229.581 132.747C229.249 133.238 228.779 133.619 228.23 133.842C227.681 134.066 227.078 134.122 226.497 134.002C225.916 133.883 225.384 133.594 224.968 133.172C224.552 132.75 224.27 132.215 224.159 131.633C224.047 131.051 224.112 130.449 224.343 129.903C224.574 129.358 224.962 128.893 225.458 128.569C225.954 128.244 226.535 128.073 227.128 128.079C227.521 128.081 227.909 128.16 228.271 128.312C228.633 128.464 228.961 128.687 229.236 128.966C229.512 129.245 229.73 129.576 229.877 129.94C230.024 130.304 230.098 130.693 230.095 131.085Z" fill="#FFFAEF"/>
<path d="M274.514 126.673L327.107 126.993C327.107 126.993 336.634 159.089 303.317 161.72C270.001 164.35 274.514 126.673 274.514 126.673Z" fill="#FFD16D"/>
<path d="M280.418 121.453L321.479 121.704C321.479 121.704 328.917 146.757 302.913 148.817C276.908 150.877 280.418 121.453 280.418 121.453Z" fill="#3C2A34"/>
<path d="M324.335 131.684C324.332 132.276 324.153 132.855 323.821 133.345C323.489 133.836 323.019 134.218 322.47 134.441C321.921 134.665 321.318 134.72 320.737 134.601C320.157 134.482 319.624 134.193 319.208 133.771C318.792 133.349 318.51 132.813 318.399 132.231C318.288 131.649 318.352 131.048 318.583 130.502C318.814 129.957 319.203 129.492 319.698 129.167C320.194 128.842 320.775 128.672 321.368 128.677C322.16 128.685 322.917 129.005 323.473 129.569C324.029 130.132 324.339 130.893 324.335 131.684Z" fill="#FFFAEF"/>
<path d="M235.473 154.705C235.473 154.705 219.887 180.524 178.812 166.772C188.516 169.626 198.779 170.018 208.672 167.911C218.566 165.804 227.777 161.265 235.473 154.705Z" fill="#6E7C7D"/>
<path d="M238.802 104.821L238.705 120.201L177.184 119.811L235.71 117.292L238.802 104.821Z" fill="#6E7C7D"/>
<path d="M273.289 108.036L274.362 123.332L329.991 122.734L277.927 120.437L273.289 108.036Z" fill="#6E7C7D"/>
<path d="M276.633 155.011C276.633 155.011 299.113 194.345 326.775 157.684C326.775 157.642 303.445 189.404 276.633 155.011Z" fill="#6E7C7D"/>
<path d="M315.977 79.1411C315.977 79.1411 340.574 78.5287 347.246 93.7695C347.246 93.7695 329.975 81.4098 315.448 81.549C315.448 81.549 337.12 84.6111 341.396 99.2117C341.396 99.2117 326.548 81.716 313.094 83.9012L315.977 79.1411Z" fill="#3C2A34"/>
<path d="M208.159 68.1731C208.159 68.1731 196.933 46.2931 180.302 47.7267C180.302 47.7267 199.426 56.9686 206.251 69.7876C206.251 69.7876 193.186 52.2363 178.311 55.4654C178.311 55.4654 200.791 60.1142 205.345 72.9471L208.159 68.1731Z" fill="#3C2A34"/>
<path d="M245.136 177.545L147.764 146.423C147.764 146.423 199.619 167.538 245.136 177.545Z" fill="#DBECCC"/>
<path d="M245.14 177.545L138.783 172.548C138.783 172.548 196.446 180.064 245.14 177.545Z" fill="#DBECCC"/>
<path d="M238.703 179.341L140.898 198.159C140.898 198.159 194.648 192.355 238.703 179.341Z" fill="#DBECCC"/>
<path d="M268.217 170.962L362.693 131.92C362.693 131.92 312.76 157.266 268.217 170.962Z" fill="#DBECCC"/>
<path d="M268.217 170.962L373.793 157.21C373.793 157.21 316.952 169.472 268.217 170.962Z" fill="#DBECCC"/>
<path d="M274.777 172.214L373.794 182.848C373.794 182.848 319.766 181.554 274.777 172.214Z" fill="#DBECCC"/>
<path d="M330.143 185.702C330.143 185.702 297.913 188.486 275.363 232.371C275.363 232.371 287.383 181.262 330.143 185.702Z" fill="#DBECCC"/>
<path d="M329.472 321.435C329.472 321.435 229.383 204.311 128.25 329.94C128.25 329.94 208.728 218.661 329.472 321.435Z" fill="#DBECCC"/>
<path d="M67.3568 360.867C67.3568 360.867 125.675 415.678 115.549 435.108C96.8291 471.06 51.4785 443.891 35.9066 411.906C16.2259 371.654 25.4465 322.73 67.3568 360.867Z" fill="#3C2A34"/>
<path d="M358.57 287.878C358.57 287.878 296.13 278.886 285.767 236.741C280.196 213.873 310.476 187.233 329.585 187.511C348.695 187.789 329.753 211.089 329.585 227.958C329.585 230.436 348.194 236.309 348.194 236.309C348.194 236.309 356.119 269.352 358.57 287.878Z" fill="#3C2A34"/>
<path d="M88.1232 410.988C88.1232 410.988 71.6042 380.492 60.0576 393.325C48.511 406.158 66.1164 431.295 82.5518 432.297C98.9872 433.299 88.1232 410.988 88.1232 410.988Z" fill="url(#paint0_linear)"/>
<path d="M68.0524 371.737C68.0524 371.737 73.9719 381.258 67.7181 382.677C59.6954 384.501 59.6954 361.632 68.0524 371.737Z" fill="#9E93C3"/>
<path d="M53.5087 377.179C53.5087 377.179 61.8657 384.64 56.2944 387.771C49.1074 391.78 42.6865 369.816 53.5087 377.179Z" fill="#9E93C3"/>
<path d="M43.1094 389.094C43.1094 389.094 53.8342 392.365 50.0736 397.556C45.2404 404.154 30.1979 386.95 43.1094 389.094Z" fill="#9E93C3"/>
<path d="M377.932 360.867C377.932 360.867 319.614 415.678 329.74 435.108C348.459 471.06 393.81 443.891 409.396 411.906C429.076 371.654 419.856 322.73 377.932 360.867Z" fill="#3C2A34"/>
<path d="M357.176 410.987C357.176 410.987 373.681 380.547 385.228 393.325C396.774 406.102 379.169 431.294 362.747 432.297C346.326 433.299 357.176 410.987 357.176 410.987Z" fill="url(#paint1_linear)"/>
<path d="M377.263 371.737C377.263 371.737 371.344 381.258 377.597 382.677C385.62 384.501 385.62 361.632 377.263 371.737Z" fill="#9E93C3"/>
<path d="M391.789 377.179C391.789 377.179 383.432 384.64 389.003 387.771C396.176 391.78 402.597 369.816 391.789 377.179Z" fill="#9E93C3"/>
<path d="M402.192 389.094C402.192 389.094 391.467 392.365 395.227 397.556C400.06 404.154 415.103 386.95 402.192 389.094Z" fill="#9E93C3"/>
<path d="M247.73 167.44C247.73 167.44 262.299 159.701 266.185 166.842C266.185 166.842 259.653 182.904 257.954 182.792C256.255 182.681 247.73 167.44 247.73 167.44Z" fill="#9E93C3"/>
<path d="M228.552 85.293C228.552 85.293 212.757 92.3775 190.514 90.0392C190.514 90.0392 212.493 97.1794 228.552 85.293Z" fill="#6E7C7D"/>
<path d="M316.94 91.6257C316.94 91.6257 299.627 91.236 280.545 79.5723C280.545 79.5723 297.329 95.4533 316.94 91.6257Z" fill="#6E7C7D"/>
<path d="M323.748 191.784L309.932 213.469C309.932 213.469 324.584 206.176 323.748 191.784Z" fill="#6E7C7D"/>
<path d="M333.36 195.486L319.543 217.185C319.543 217.185 334.196 209.878 333.36 195.486Z" fill="#6E7C7D"/>
<path d="M331.973 355.245L145.624 400.055L124.245 292.36L128.406 291.543L147.927 392.773L331.973 355.245Z" fill="#F4EFD7"/>
<path d="M123.768 265.157L361.606 228.78L388.405 354.724L149.075 391.627L123.768 265.157Z" fill="url(#paint2_linear)"/>
<path d="M205.493 329.002L218.965 326.791L220.619 336.854L207.147 339.066L210.851 361.593L198.446 363.629L194.742 341.103L150.524 348.362L149.33 341.098L181.758 266.712L194.897 264.555L205.493 329.002ZM162.876 335.999L193.088 331.039L185.264 283.453L184.235 286.36L162.876 335.999Z" fill="#FFFAEF"/>
<path d="M289.547 306.168C291.922 320.608 291.218 331.743 287.437 339.573C283.656 347.404 276.519 352.18 266.025 353.903C255.666 355.604 247.433 353.442 241.329 347.417C235.217 341.348 230.95 331.508 228.53 317.896L225.824 301.435C223.479 287.172 224.204 276.17 228 268.429C231.796 260.687 238.962 255.951 249.5 254.221C259.949 252.506 268.192 254.598 274.23 260.496C280.261 266.351 284.491 276.243 286.918 290.172L289.547 306.168ZM274.437 291.332C272.72 280.89 270.004 273.533 266.288 269.261C262.564 264.944 257.523 263.308 251.165 264.352C244.852 265.388 240.641 268.521 238.532 273.749C236.424 278.978 236.136 286.532 237.669 296.41L240.912 316.137C242.636 326.623 245.423 334.128 249.271 338.653C253.157 343.125 258.191 344.854 264.371 343.839C270.462 342.839 274.588 339.744 276.748 334.552C278.953 329.353 279.289 321.678 277.757 311.526L274.437 291.332Z" fill="#FFFAEF"/>
<path d="M358.888 303.818L372.36 301.606L374.014 311.67L360.542 313.882L364.246 336.408L351.841 338.445L348.137 315.918L303.92 323.178L302.725 315.914L335.153 241.528L348.292 239.371L358.888 303.818ZM316.271 310.815L346.483 305.855L338.659 258.269L337.63 261.176L316.271 310.815Z" fill="#FFFAEF"/>
<path opacity="0.2" d="M127.345 304.482C127.345 304.482 151.845 325.903 179.242 289.548C179.242 289.548 149.185 309.618 125.451 292.902L127.345 304.482Z" fill="#BC8611"/>
<path d="M119.074 204.951C119.074 204.951 131.985 237.785 140.9 251.272C149.814 264.759 189.105 277.801 180.122 288.671C180.122 288.671 154.925 316.174 117.18 287.349C99.449 273.792 90.3398 254.306 90.3398 254.306C90.3398 254.306 97.6383 232.44 119.074 204.951Z" fill="#3C2A34"/>
<path d="M145.969 284.301L169.299 295.157C169.299 295.157 160.148 281.67 145.969 284.301Z" fill="#6E7C7D"/>
<path d="M152.488 277.021L175.818 287.878C175.818 287.878 166.667 274.307 152.488 277.021Z" fill="#6E7C7D"/>
<defs>
<linearGradient id="paint0_linear" x1="73.9952" y1="390.173" x2="79.7319" y2="439.106" gradientUnits="userSpaceOnUse">
<stop stop-color="#B4A0CE"/>
<stop offset="1" stop-color="#5A69A2"/>
</linearGradient>
<linearGradient id="paint1_linear" x1="371.3" y1="390.192" x2="377.034" y2="439.102" gradientUnits="userSpaceOnUse">
<stop stop-color="#B4A0CE"/>
<stop offset="1" stop-color="#5A69A2"/>
</linearGradient>
<linearGradient id="paint2_linear" x1="256.086" y1="228.78" x2="267.619" y2="419.704" gradientUnits="userSpaceOnUse">
<stop stop-color="#B4A0CE"/>
<stop offset="1" stop-color="#5A69A2"/>
</linearGradient>
</defs>
</svg>
