<svg width="60" height="60" viewBox="0 0 60 60" fill="none" xmlns="http://www.w3.org/2000/svg">
<circle cx="30" cy="30" r="30" fill="white"/>
<g clip-path="url(#clip0)">
<path d="M30.5 11C26.6225 11.0044 22.9051 12.5466 20.1634 15.2884C17.4216 18.0301 15.8794 21.7475 15.875 25.625C15.875 35.9295 28.8007 48.9738 29.3509 49.5241C29.6577 49.825 30.0703 49.9936 30.5 49.9936C30.9297 49.9936 31.3423 49.825 31.6491 49.5241C32.1993 48.9738 45.125 35.9295 45.125 25.625C45.1206 21.7475 43.5784 18.0301 40.8366 15.2884C38.0949 12.5466 34.3775 11.0044 30.5 11V11ZM30.5 35.375C28.5716 35.375 26.6866 34.8032 25.0832 33.7318C23.4798 32.6605 22.2301 31.1377 21.4922 29.3562C20.7542 27.5746 20.5611 25.6142 20.9373 23.7229C21.3135 21.8316 22.2421 20.0943 23.6057 18.7307C24.9693 17.3671 26.7066 16.4385 28.5979 16.0623C30.4892 15.6861 32.4496 15.8792 34.2312 16.6172C36.0127 17.3551 37.5355 18.6048 38.6068 20.2082C39.6782 21.8116 40.25 23.6966 40.25 25.625C40.25 28.2109 39.2228 30.6908 37.3943 32.5193C35.5658 34.3478 33.0859 35.375 30.5 35.375Z" fill="url(#paint0_linear)"/>
<path d="M37.3635 23.2733L30.8635 20.0233C30.7507 19.9669 30.6263 19.9375 30.5001 19.9375C30.374 19.9375 30.2495 19.9669 30.1367 20.0233L23.6367 23.2733L24.3635 24.7269L26.4376 23.6897V28.8751C26.4376 29.0906 26.5232 29.2972 26.6756 29.4496C26.828 29.602 27.0346 29.6876 27.2501 29.6876H33.7501C33.9656 29.6876 34.1723 29.602 34.3246 29.4496C34.477 29.2972 34.5626 29.0906 34.5626 28.8751V23.6897L36.6367 24.7269L37.3635 23.2733Z" fill="url(#paint1_linear)"/>
</g>
<defs>
<linearGradient id="paint0_linear" x1="30.5" y1="11" x2="36.4034" y2="56.111" gradientUnits="userSpaceOnUse">
<stop stop-color="#B4A0CE"/>
<stop offset="1" stop-color="#5A69A2"/>
</linearGradient>
<linearGradient id="paint1_linear" x1="30.5001" y1="19.9375" x2="31.2962" y2="31.3549" gradientUnits="userSpaceOnUse">
<stop stop-color="#B4A0CE"/>
<stop offset="1" stop-color="#5A69A2"/>
</linearGradient>
<clipPath id="clip0">
<rect width="39" height="39" fill="white" transform="translate(11 11)"/>
</clipPath>
</defs>
</svg>
