<svg width="20" height="20" viewBox="0 0 20 20" fill="none" xmlns="http://www.w3.org/2000/svg">
<path d="M10.6987 5.21455H18.1129C18.1809 5.21455 18.2468 5.1908 18.2993 5.14737L19.8939 3.82659C19.961 3.77092 20 3.68811 20 3.60081C20 3.51346 19.9611 3.43065 19.8939 3.37503L18.2993 2.05425C18.2469 2.01081 18.181 1.98706 18.1129 1.98706H10.6987C10.5371 1.98706 10.4063 2.11823 10.4063 2.28003V4.92163C10.4062 5.08338 10.5372 5.21455 10.6987 5.21455Z" fill="white"/>
<path d="M19.8938 10.8013L18.2993 9.48052C18.2468 9.43708 18.1809 9.41333 18.1128 9.41333H10.6987C10.5371 9.41333 10.4062 9.5445 10.4062 9.7063V12.3479C10.4062 12.5097 10.5372 12.6409 10.6987 12.6409H18.1129C18.1809 12.6409 18.2468 12.6171 18.2993 12.5737L19.8939 11.2529C19.961 11.1972 20 11.1144 20 11.0271C19.9999 10.9398 19.961 10.857 19.8938 10.8013Z" fill="white"/>
<path d="M11.7516 1.98706H10.6987C10.5371 1.98706 10.4062 2.11823 10.4062 2.28003V4.92163C10.4062 5.08346 10.5372 5.21459 10.6987 5.21459H11.7516V1.98706Z" fill="#E3E3E3"/>
<path d="M10.6987 12.6409H11.7516V9.41333H10.6987C10.5371 9.41333 10.4063 9.5445 10.4063 9.7063V12.3479C10.4062 12.5097 10.5372 12.6409 10.6987 12.6409Z" fill="#E3E3E3"/>
<path d="M9.30119 5.7002H1.88703C1.81898 5.7002 1.75308 5.72395 1.70062 5.76738L0.106094 7.08816C0.0389062 7.14382 0 7.22664 0 7.31398C0 7.40132 0.0389062 7.48414 0.106094 7.53976L1.70066 8.86054C1.75308 8.90398 1.81898 8.92773 1.88707 8.92773H9.30123C9.46279 8.92773 9.59369 8.79652 9.59369 8.63476V5.99316C9.59369 5.83133 9.46272 5.7002 9.30119 5.7002Z" fill="white"/>
<path d="M9.30093 5.7002H8.24805V8.92777H9.30093C9.4625 8.92777 9.5934 8.79656 9.5934 8.6348V5.9932C9.59343 5.83133 9.46246 5.7002 9.30093 5.7002Z" fill="#E3E3E3"/>
<path d="M10 0.00390625C9.45348 0.00390625 9.00879 0.449374 9.00879 0.996912V18.192C9.00879 18.3538 9.13969 18.485 9.30125 18.485H10.6988C10.8603 18.485 10.9912 18.3538 10.9912 18.192V0.996873C10.9913 0.449335 10.5466 0.00390625 10 0.00390625Z" fill="#FFDB56"/>
<path d="M10.0034 18.4848H10.6987C10.8603 18.4848 10.9912 18.3537 10.9912 18.1919V0.996795C10.9912 0.450468 10.5483 0.00582031 10.0034 0.00390625V18.4848Z" fill="#FFBB24"/>
<path d="M13.7649 19.6377C13.5302 18.6139 12.6419 17.8989 11.6046 17.8989H8.39524C7.35798 17.8989 6.46962 18.6139 6.23497 19.6377C6.21501 19.7246 6.23575 19.816 6.29122 19.8858C6.34673 19.9556 6.43099 19.9962 6.52005 19.9962H13.4799C13.5689 19.9962 13.6532 19.9556 13.7087 19.8858C13.7641 19.816 13.7848 19.7246 13.7649 19.6377Z" fill="white"/>
<path d="M13.7648 19.6377C13.5302 18.6139 12.6419 17.8989 11.6046 17.8989H9.49707C10.5343 17.8989 11.4227 18.6139 11.6573 19.6377C11.6773 19.7246 11.6566 19.816 11.6011 19.8858C11.5456 19.9556 11.4614 19.9962 11.3723 19.9962H13.4798C13.5689 19.9962 13.6531 19.9556 13.7086 19.8858C13.764 19.816 13.7848 19.7246 13.7648 19.6377Z" fill="#E3E3E3"/>
</svg>
