<svg width="69" height="69" viewBox="0 0 69 69" fill="none" xmlns="http://www.w3.org/2000/svg">
<path d="M55.1986 39.0222L40.401 53.7871C40.0867 54.1007 39.8549 54.4871 39.7258 54.9119L36.5032 65.5213C36.2175 66.4617 36.4664 67.4832 37.1529 68.1868C37.6673 68.7139 38.3657 69 39.0823 69C39.3222 69 39.5641 68.9678 39.8017 68.902L50.6806 65.8884C51.1283 65.7643 51.5364 65.5268 51.8652 65.1986L66.6318 50.4598C69.7845 47.3069 69.7845 42.1772 66.6318 39.0244C63.4793 35.872 58.3494 35.872 55.1986 39.0222ZM48.5589 60.8827L43.0858 62.3988L44.6874 57.1257L54.6721 47.1631L58.4844 50.9755L48.5589 60.8827ZM62.8221 46.6462L62.2999 47.1673L58.4881 43.3555L59.0085 42.8362C60.0594 41.7852 61.7694 41.7852 62.8203 42.8362C63.8709 43.8871 63.8709 45.597 62.8221 46.6462Z" fill="white"/>
<rect x="14" y="49" width="17" height="5" rx="2.5" fill="white"/>
<rect x="14" y="37" width="29" height="5" rx="2.5" fill="white"/>
<rect x="14" y="25" width="41" height="5" rx="2.5" fill="white"/>
<path d="M58.2186 5.39061H54.7147V2.69531C54.7147 1.20669 53.5081 0 52.0194 0C50.5308 0 49.3241 1.20669 49.3241 2.69531V5.39061H37.0605V2.69531C37.0605 1.20669 35.8538 0 34.3652 0C32.8766 0 31.6699 1.20669 31.6699 2.69531V5.39061H19.541V2.69531C19.541 1.20669 18.3343 0 16.8457 0C15.3571 0 14.1504 1.20669 14.1504 2.69531V5.39061H10.7812C4.83646 5.39061 0 10.2271 0 16.1718V58.2186C0 64.1634 4.83646 68.9999 10.7812 68.9999H27.2226C28.7112 68.9999 29.9179 67.7932 29.9179 66.3046C29.9179 64.8159 28.7112 63.6093 27.2226 63.6093H10.7812C7.80884 63.6093 5.39061 61.191 5.39061 58.2186V16.1718C5.39061 13.1995 7.80884 10.7812 10.7812 10.7812H14.1504V13.4765C14.1504 14.9652 15.3571 16.1718 16.8457 16.1718C18.3343 16.1718 19.541 14.9652 19.541 13.4765V10.7812H31.6699V13.4765C31.6699 14.9652 32.8766 16.1718 34.3652 16.1718C35.8538 16.1718 37.0605 14.9652 37.0605 13.4765V10.7812H49.3241V13.4765C49.3241 14.9652 50.5308 16.1718 52.0194 16.1718C53.5081 16.1718 54.7147 14.9652 54.7147 13.4765V10.7812H58.2186C61.191 10.7812 63.6093 13.1995 63.6093 16.1718V28.3007C63.6093 29.7893 64.8159 30.996 66.3046 30.996C67.7932 30.996 68.9999 29.7893 68.9999 28.3007V16.1718C68.9999 10.2271 64.1637 5.39061 58.2186 5.39061Z" fill="white"/>
</svg>
