<svg width="69" height="69" viewBox="0 0 69 69" fill="none" xmlns="http://www.w3.org/2000/svg">
<path d="M52.0195 30.9961C53.5081 30.9961 54.7148 29.7894 54.7148 28.3008C54.7148 26.8122 53.5081 25.6055 52.0195 25.6055C50.531 25.6055 49.3242 26.8122 49.3242 28.3008C49.3242 29.7894 50.531 30.9961 52.0195 30.9961Z" fill="white"/>
<path d="M58.2188 5.39062H54.7148V2.69531C54.7148 1.20669 53.5082 0 52.0195 0C50.5309 0 49.3242 1.20669 49.3242 2.69531V5.39062H37.0605V2.69531C37.0605 1.20669 35.8539 0 34.3652 0C32.8766 0 31.6699 1.20669 31.6699 2.69531V5.39062H19.541V2.69531C19.541 1.20669 18.3343 0 16.8457 0C15.3571 0 14.1504 1.20669 14.1504 2.69531V5.39062H10.7812C4.83647 5.39062 0 10.2271 0 16.1719V58.2188C0 64.1635 4.83647 69 10.7812 69H31.4004C32.889 69 34.0957 67.7933 34.0957 66.3047C34.0957 64.8161 32.889 63.6094 31.4004 63.6094H10.7812C7.80886 63.6094 5.39062 61.1911 5.39062 58.2188V16.1719C5.39062 13.1995 7.80886 10.7812 10.7812 10.7812H14.1504V13.4766C14.1504 14.9652 15.3571 16.1719 16.8457 16.1719C18.3343 16.1719 19.541 14.9652 19.541 13.4766V10.7812H31.6699V13.4766C31.6699 14.9652 32.8766 16.1719 34.3652 16.1719C35.8539 16.1719 37.0605 14.9652 37.0605 13.4766V10.7812H49.3242V13.4766C49.3242 14.9652 50.5309 16.1719 52.0195 16.1719C53.5082 16.1719 54.7148 14.9652 54.7148 13.4766V10.7812H58.2188C61.1911 10.7812 63.6094 13.1995 63.6094 16.1719V31.5352C63.6094 33.0238 64.8161 34.2305 66.3047 34.2305C67.7933 34.2305 69 33.0238 69 31.5352V16.1719C69 10.2271 64.1635 5.39062 58.2188 5.39062Z" fill="white"/>
<path d="M52.6934 36.3867C43.7018 36.3867 36.3867 43.7018 36.3867 52.6934C36.3867 61.6849 43.7018 69 52.6934 69C61.6849 69 69 61.6849 69 52.6934C69 43.7018 61.6849 36.3867 52.6934 36.3867ZM52.6934 63.6094C46.6743 63.6094 41.7773 58.7125 41.7773 52.6934C41.7773 46.6742 46.6743 41.7773 52.6934 41.7773C58.7124 41.7773 63.6094 46.6742 63.6094 52.6934C63.6094 58.7125 58.7124 63.6094 52.6934 63.6094Z" fill="white"/>
<path d="M56.6016 49.998H55.3887V47.168C55.3887 45.6793 54.182 44.4727 52.6934 44.4727C51.2047 44.4727 49.998 45.6793 49.998 47.168V52.6934C49.998 54.182 51.2047 55.3887 52.6934 55.3887H56.6016C58.0902 55.3887 59.2969 54.182 59.2969 52.6934C59.2969 51.2047 58.0902 49.998 56.6016 49.998Z" fill="white"/>
<path d="M40.2949 30.9961C41.7835 30.9961 42.9902 29.7894 42.9902 28.3008C42.9902 26.8122 41.7835 25.6055 40.2949 25.6055C38.8063 25.6055 37.5996 26.8122 37.5996 28.3008C37.5996 29.7894 38.8063 30.9961 40.2949 30.9961Z" fill="white"/>
<path d="M28.5703 42.7207C30.0589 42.7207 31.2656 41.514 31.2656 40.0254C31.2656 38.5368 30.0589 37.3301 28.5703 37.3301C27.0817 37.3301 25.875 38.5368 25.875 40.0254C25.875 41.514 27.0817 42.7207 28.5703 42.7207Z" fill="white"/>
<path d="M16.8457 30.9961C18.3343 30.9961 19.541 29.7894 19.541 28.3008C19.541 26.8122 18.3343 25.6055 16.8457 25.6055C15.3571 25.6055 14.1504 26.8122 14.1504 28.3008C14.1504 29.7894 15.3571 30.9961 16.8457 30.9961Z" fill="white"/>
<path d="M16.8457 42.7207C18.3343 42.7207 19.541 41.514 19.541 40.0254C19.541 38.5368 18.3343 37.3301 16.8457 37.3301C15.3571 37.3301 14.1504 38.5368 14.1504 40.0254C14.1504 41.514 15.3571 42.7207 16.8457 42.7207Z" fill="white"/>
<path d="M16.8457 54.4453C18.3343 54.4453 19.541 53.2386 19.541 51.75C19.541 50.2614 18.3343 49.0547 16.8457 49.0547C15.3571 49.0547 14.1504 50.2614 14.1504 51.75C14.1504 53.2386 15.3571 54.4453 16.8457 54.4453Z" fill="white"/>
<path d="M28.5703 54.4453C30.0589 54.4453 31.2656 53.2386 31.2656 51.75C31.2656 50.2614 30.0589 49.0547 28.5703 49.0547C27.0817 49.0547 25.875 50.2614 25.875 51.75C25.875 53.2386 27.0817 54.4453 28.5703 54.4453Z" fill="white"/>
<path d="M28.5703 30.9961C30.0589 30.9961 31.2656 29.7894 31.2656 28.3008C31.2656 26.8122 30.0589 25.6055 28.5703 25.6055C27.0817 25.6055 25.875 26.8122 25.875 28.3008C25.875 29.7894 27.0817 30.9961 28.5703 30.9961Z" fill="white"/>
</svg>
