<svg width="69" height="69" viewBox="0 0 69 69" fill="none" xmlns="http://www.w3.org/2000/svg">
<path d="M66.3047 47.4375C67.7933 47.4375 69 46.2308 69 44.7422V16.1719C69 10.2271 64.1635 5.39062 58.2188 5.39062H54.7148V2.69531C54.7148 1.20669 53.5082 0 52.0195 0C50.5309 0 49.3242 1.20669 49.3242 2.69531V5.39062H37.0605V2.69531C37.0605 1.20669 35.8539 0 34.3652 0C32.8766 0 31.6699 1.20669 31.6699 2.69531V5.39062H19.541V2.69531C19.541 1.20669 18.3343 0 16.8457 0C15.3571 0 14.1504 1.20669 14.1504 2.69531V5.39062H10.7812C4.83647 5.39062 0 10.2271 0 16.1719V58.2188C0 64.1635 4.83647 69 10.7812 69H58.2188C64.1635 69 69 64.1635 69 58.2188C69 56.7301 67.7933 55.5234 66.3047 55.5234C64.8161 55.5234 63.6094 56.7301 63.6094 58.2188C63.6094 61.1911 61.1911 63.6094 58.2188 63.6094H10.7812C7.80886 63.6094 5.39062 61.1911 5.39062 58.2188V16.1719C5.39062 13.1995 7.80886 10.7812 10.7812 10.7812H14.1504V13.4766C14.1504 14.9652 15.3571 16.1719 16.8457 16.1719C18.3343 16.1719 19.541 14.9652 19.541 13.4766V10.7812H31.6699V13.4766C31.6699 14.9652 32.8766 16.1719 34.3652 16.1719C35.8539 16.1719 37.0605 14.9652 37.0605 13.4766V10.7812H49.3242V13.4766C49.3242 14.9652 50.5309 16.1719 52.0195 16.1719C53.5082 16.1719 54.7148 14.9652 54.7148 13.4766V10.7812H58.2188C61.1911 10.7812 63.6094 13.1995 63.6094 16.1719V44.7422C63.6094 46.2308 64.8161 47.4375 66.3047 47.4375Z" fill="white"/>
<path d="M21.9032 48.9747H26.6283V53.0252C26.6283 53.2223 26.6914 53.3836 26.8182 53.5097C26.9447 53.6367 27.1065 53.7001 27.3035 53.7001H30.826C31.0088 53.7001 31.167 53.6367 31.3006 53.5097C31.4342 53.3836 31.5008 53.2222 31.5008 53.0252V48.9747H42.1532C42.3498 48.9747 42.5116 48.912 42.6384 48.7851C42.7653 48.6583 42.8283 48.4968 42.8283 48.2998V45.5997C42.8283 45.4037 42.7653 45.2412 42.6384 45.1151C42.5119 44.9882 42.3498 44.9248 42.1532 44.9248H31.5005V42.4356H38.6724C41.4848 42.4356 43.7801 41.5786 45.5595 39.8623C47.3382 38.1477 48.228 35.9329 48.228 33.2178C48.228 30.5045 47.3382 28.2896 45.5595 26.5733C43.7805 24.8587 41.4847 24 38.6724 24H27.3032C27.1061 24 26.9447 24.0634 26.8179 24.1896C26.6914 24.3164 26.628 24.4789 26.628 24.6748V37.9432H21.9032C21.7062 37.9432 21.5447 38.0098 21.4179 38.1434C21.2915 38.277 21.228 38.4352 21.228 38.618V41.7606C21.228 41.9577 21.2911 42.1191 21.4179 42.2459C21.5448 42.3729 21.7058 42.4355 21.9032 42.4355H26.6283V44.9247H21.9032C21.7062 44.9247 21.5447 44.9882 21.4179 45.1151C21.2915 45.2412 21.228 45.4033 21.228 45.5996V48.2997C21.228 48.4968 21.2911 48.6582 21.4179 48.785C21.5447 48.912 21.7061 48.9747 21.9032 48.9747ZM31.5005 28.4934H38.2505C39.741 28.4934 40.9431 28.9292 41.8575 29.8011C42.7714 30.673 43.2285 31.8124 43.2285 33.2181C43.2285 34.6245 42.7714 35.7643 41.8575 36.6352C40.9431 37.5078 39.7409 37.9436 38.2505 37.9436H31.5005V28.4934Z" fill="white"/>
</svg>
