<svg width="48" height="48" viewBox="0 0 48 48" fill="none" xmlns="http://www.w3.org/2000/svg">
<g clip-path="url(#clip0)">
<path d="M32.0983 25.4392C29.9384 22.0697 26.2598 20.0577 22.2579 20.0577C18.2563 20.0577 14.5773 22.0697 12.4178 25.4392L7.21319 33.5585C6.34967 34.9058 5.95123 36.4618 6.06073 38.0581C6.17022 39.6548 6.77777 41.1416 7.81744 42.3585C8.85785 43.5751 10.2326 44.4064 11.793 44.7631C13.3535 45.1194 14.9531 44.9674 16.4186 44.3232L16.5142 44.2808C20.2023 42.691 24.4178 42.7053 28.0967 44.3232C29.0456 44.7404 30.0508 44.9513 31.0652 44.9513C31.6168 44.9513 32.1716 44.8887 32.7212 44.7634C34.2817 44.4071 35.6564 43.5758 36.6972 42.3593C37.7372 41.1427 38.3451 39.6555 38.455 38.0588C38.5649 36.4618 38.1664 34.9058 37.3029 33.5581L32.0983 25.4392ZM34.5589 40.5304C33.235 42.078 31.0934 42.5673 29.2294 41.7477C27.0139 40.7732 24.6357 40.2861 22.2568 40.2861C19.8801 40.2861 17.5023 40.7728 15.2881 41.7462L15.2252 41.774C13.3754 42.5563 11.2653 42.0608 9.95611 40.5304C8.63372 38.9824 8.48321 36.791 9.58184 35.0768L14.7868 26.9575C16.4267 24.3992 19.2194 22.8717 22.2579 22.8717C25.2963 22.8717 28.0894 24.3992 29.7297 26.9575L34.9339 35.0764C36.0329 36.7914 35.882 38.9832 34.5589 40.5304Z" fill="#D1BCED"/>
<path d="M8.61515 25.4286C10.1635 24.8338 11.3398 23.5862 11.9275 21.9151C12.4864 20.3251 12.4406 18.5299 11.7979 16.86C11.1548 15.1911 9.98515 13.8288 8.50456 13.0235C6.94853 12.178 5.23942 12.0403 3.69364 12.6361C0.58378 13.8318 -0.843345 17.6748 0.512735 21.2047C1.59599 24.0143 4.12248 25.7878 6.6768 25.7878C7.32902 25.7878 7.98307 25.6721 8.61515 25.4286ZM3.13847 20.194C2.33939 18.1139 3.04142 15.9012 4.70438 15.2618C5.00468 15.1461 5.32218 15.0886 5.64628 15.0886C6.14652 15.0886 6.66325 15.2252 7.16056 15.4958C8.05485 15.9818 8.76933 16.8255 9.17216 17.8711C9.57462 18.9173 9.61051 20.0218 9.27287 20.9817C8.96342 21.8613 8.37125 22.508 7.60587 22.8021L7.60441 22.8028C5.94364 23.443 3.9401 22.2722 3.13847 20.194Z" fill="#D1BCED"/>
<path d="M18.7135 19.0675C22.6012 19.0675 25.7642 15.464 25.7642 11.0347C25.7642 6.60425 22.6012 3 18.7135 3C14.8262 3 11.6636 6.60425 11.6636 11.0347C11.6636 15.464 14.8262 19.0675 18.7135 19.0675ZM18.7135 5.8136C21.0496 5.8136 22.9506 8.15588 22.9506 11.0347C22.9506 13.9124 21.0496 16.2539 18.7135 16.2539C16.3774 16.2539 14.4772 13.9124 14.4772 11.0347C14.4772 8.15588 16.3774 5.8136 18.7135 5.8136Z" fill="#D1BCED"/>
<path d="M30.8901 21.041H30.8905C31.4885 21.2395 32.0986 21.3343 32.7061 21.3343C35.5413 21.3343 38.3044 19.2707 39.3587 16.0994C39.9659 14.2738 39.926 12.3435 39.2463 10.6644C38.5351 8.90698 37.2171 7.6311 35.5347 7.07153C33.8524 6.51269 32.0319 6.7456 30.41 7.72778C28.8606 8.66638 27.6733 10.1884 27.0672 12.0139C25.7873 15.865 27.5023 19.9145 30.8901 21.041ZM29.7373 12.9012C30.1331 11.7092 30.8897 10.727 31.8679 10.1345C32.7728 9.5863 33.7601 9.44677 34.6474 9.74157C35.5344 10.0367 36.2412 10.7391 36.6381 11.7198C37.067 12.7797 37.0853 14.0197 36.6887 15.2117C35.898 17.5906 33.6949 19.0078 31.7778 18.371C29.8621 17.7338 28.9466 15.2801 29.7373 12.9012Z" fill="#D1BCED"/>
<path d="M45.7382 20.1035L45.7371 20.1024C43.0561 18.1219 39.0464 18.9803 36.7983 22.0169C34.5523 25.055 34.9035 29.1393 37.5805 31.1213C38.5568 31.8445 39.7104 32.1903 40.891 32.1903C42.9488 32.1903 45.0896 31.14 46.5204 29.2086C48.7664 26.1705 48.4156 22.0861 45.7382 20.1035ZM44.2591 27.5346C42.9316 29.3265 40.687 29.9208 39.2548 28.8599C37.8236 27.8005 37.7365 25.4809 39.0603 23.6901C39.9403 22.5014 41.2257 21.84 42.4104 21.84C43.0096 21.84 43.583 22.0092 44.065 22.3656C45.495 23.4261 45.5818 25.7449 44.2591 27.5346Z" fill="#D1BCED"/>
</g>
<defs>
<clipPath id="clip0">
<rect width="48" height="48" fill="white"/>
</clipPath>
</defs>
</svg>
