<svg width="40" height="40" viewBox="0 0 40 40" fill="none" xmlns="http://www.w3.org/2000/svg">
<circle cx="20" cy="20" r="20" fill="white"/>
<g clip-path="url(#clip0)">
<path d="M19.651 27.3125C23.2677 27.3125 21.9781 25.0229 22.2573 24.3646C22.2531 23.8729 22.249 23.4 22.2656 23.1125C22.4948 23.1771 23.0354 23.451 24.1521 24.5365C25.876 26.276 26.3167 27.3125 27.7094 27.3125H30.2729C31.0854 27.3125 31.5083 26.976 31.7198 26.6937C31.924 26.4208 32.124 25.9417 31.9052 25.1958C31.3333 23.4 27.9979 20.299 27.7906 19.9719C27.8219 19.9115 27.8719 19.8312 27.8979 19.7896H27.8958C28.5542 18.9198 31.0667 15.1552 31.4365 13.649C31.4375 13.6469 31.4385 13.6437 31.4385 13.6406C31.6385 12.9531 31.4552 12.5073 31.2656 12.2552C30.9802 11.8781 30.526 11.6875 29.9125 11.6875H27.349C26.4906 11.6875 25.8396 12.1198 25.5104 12.9083C24.9594 14.3094 23.4115 17.1906 22.251 18.2104C22.2156 16.7656 22.2396 15.6625 22.2583 14.8427C22.2958 13.2437 22.4167 11.6875 20.7573 11.6875H16.7281C15.6885 11.6875 14.6937 12.8229 15.7708 14.1708C16.7125 15.3521 16.1094 16.0104 16.3125 19.2875C15.5208 18.4385 14.1125 16.1458 13.1167 13.2156C12.8375 12.4229 12.4146 11.6885 11.224 11.6885H8.66042C7.62083 11.6885 7 12.2552 7 13.2042C7 15.3354 11.7177 27.3125 19.651 27.3125ZM11.224 13.251C11.45 13.251 11.4729 13.251 11.6406 13.7271C12.6604 16.7302 14.9479 21.174 16.6187 21.174C17.874 21.174 17.874 19.8875 17.874 19.4031L17.8729 15.5469C17.8042 14.2708 17.3396 13.6354 17.0344 13.25L20.6885 13.2542C20.6906 13.2719 20.6677 17.5198 20.699 18.549C20.699 20.0104 21.8594 20.8479 23.6708 19.0146C25.5823 16.8573 26.9042 13.6323 26.9573 13.501C27.0354 13.3135 27.1031 13.25 27.349 13.25H29.9125H29.9229C29.9219 13.2531 29.9219 13.2562 29.9208 13.2594C29.6865 14.3531 27.3729 17.8385 26.599 18.9208C26.5865 18.9375 26.575 18.9552 26.5635 18.9729C26.2229 19.5292 25.9458 20.1437 26.6104 21.0083H26.6115C26.6719 21.0812 26.8292 21.2521 27.0583 21.4896C27.7708 22.225 30.2146 24.7396 30.4312 25.7396C30.2875 25.7625 30.1312 25.7458 27.7094 25.751C27.1937 25.751 26.7906 24.9802 25.2521 23.4281C23.8687 22.0823 22.9708 21.5323 22.1531 21.5323C20.5656 21.5323 20.6812 22.8208 20.6958 24.3792C20.701 26.0687 20.6906 25.5344 20.7021 25.6406C20.6094 25.6771 20.3437 25.75 19.651 25.75C13.0417 25.75 8.7375 15.2594 8.57187 13.2542C8.62917 13.249 9.41771 13.2521 11.224 13.251Z" fill="url(#paint0_linear)"/>
</g>
<defs>
<linearGradient id="paint0_linear" x1="19.5001" y1="11.6875" x2="20.6239" y2="30.0044" gradientUnits="userSpaceOnUse">
<stop stop-color="#B4A0CE"/>
<stop offset="1" stop-color="#5A69A2"/>
</linearGradient>
<clipPath id="clip0">
<rect width="25" height="25" fill="white" transform="translate(7 7)"/>
</clipPath>
</defs>
</svg>
