<svg width="60" height="60" viewBox="0 0 60 60" fill="none" xmlns="http://www.w3.org/2000/svg">
<circle cx="30" cy="30" r="30" fill="white"/>
<path d="M42.0652 19.8914H17.9348C16.3164 19.8914 15 21.2095 15 22.8261V37.174C15 38.7925 16.3182 40.1088 17.9348 40.1088H42.0652C43.6811 40.1088 45 38.7932 45 37.174V22.8261C45 21.2101 43.6842 19.8914 42.0652 19.8914ZM41.9861 21.8479C41.4884 22.3456 31.0366 32.7974 30.6918 33.1423C30.3093 33.5247 29.6907 33.5247 29.3082 33.1423C28.9631 32.797 18.5113 22.3454 18.0139 21.8479H41.9861ZM16.9565 37.0949V23.5575L23.7252 30.3261L16.9565 37.0949ZM18.666 38.1522L25.1087 31.7096L27.9247 34.5257C29.0688 35.6699 30.9308 35.67 32.0752 34.5257L34.8912 31.7096L41.3339 38.1522H18.666ZM43.0435 37.0949L36.2747 30.3261L43.0434 23.5575V37.0949H43.0435Z" fill="url(#paint0_linear)"/>
<defs>
<linearGradient id="paint0_linear" x1="30" y1="19.8914" x2="31.5669" y2="43.5774" gradientUnits="userSpaceOnUse">
<stop stop-color="#B4A0CE"/>
<stop offset="1" stop-color="#5A69A2"/>
</linearGradient>
</defs>
</svg>
