<svg width="40" height="40" viewBox="0 0 40 40" fill="none" xmlns="http://www.w3.org/2000/svg">
<circle cx="20" cy="20" r="20" fill="white"/>
<path d="M25.2327 7H13.7673C10.0357 7 7 10.0357 7 13.7673V25.2329C7 28.9642 10.0357 32 13.7673 32H25.2329C28.9642 32 32 28.9642 32 25.2329V13.7673C32 10.0357 28.9642 7 25.2327 7V7ZM30.5343 25.2329C30.5343 28.1561 28.1561 30.5343 25.2327 30.5343H13.7673C10.8439 30.5343 8.4656 28.1561 8.4656 25.2329V13.7673C8.4656 10.8439 10.8439 8.4656 13.7673 8.4656H25.2329C28.1561 8.4656 30.5343 10.8439 30.5343 13.7673V25.2329Z" fill="url(#paint0_linear)"/>
<path d="M19.4998 12.6646C15.7305 12.6646 12.6641 15.731 12.6641 19.5003C12.6641 23.2696 15.7305 26.336 19.4998 26.336C23.2691 26.336 26.3355 23.2696 26.3355 19.5003C26.3355 15.731 23.2691 12.6646 19.4998 12.6646ZM19.4998 24.8704C16.5388 24.8704 14.1297 22.4614 14.1297 19.5003C14.1297 16.5393 16.5388 14.1302 19.4998 14.1302C22.4609 14.1302 24.8699 16.5393 24.8699 19.5003C24.8699 22.4614 22.4609 24.8704 19.4998 24.8704Z" fill="url(#paint1_linear)"/>
<path d="M26.4994 10.2368C25.3855 10.2368 24.4795 11.143 24.4795 12.2567C24.4795 13.3706 25.3855 14.2768 26.4994 14.2768C27.6133 14.2768 28.5194 13.3706 28.5194 12.2567C28.5194 11.1428 27.6133 10.2368 26.4994 10.2368ZM26.4994 12.811C26.1938 12.811 25.9451 12.5623 25.9451 12.2567C25.9451 11.9509 26.1938 11.7024 26.4994 11.7024C26.8051 11.7024 27.0538 11.9509 27.0538 12.2567C27.0538 12.5623 26.8051 12.811 26.4994 12.811Z" fill="url(#paint2_linear)"/>
<defs>
<linearGradient id="paint0_linear" x1="19.5" y1="7" x2="22.3601" y2="36.1365" gradientUnits="userSpaceOnUse">
<stop stop-color="#B4A0CE"/>
<stop offset="1" stop-color="#5A69A2"/>
</linearGradient>
<linearGradient id="paint1_linear" x1="19.4998" y1="12.6646" x2="21.0639" y2="28.5982" gradientUnits="userSpaceOnUse">
<stop stop-color="#B4A0CE"/>
<stop offset="1" stop-color="#5A69A2"/>
</linearGradient>
<linearGradient id="paint2_linear" x1="26.4995" y1="10.2368" x2="26.9617" y2="14.9452" gradientUnits="userSpaceOnUse">
<stop stop-color="#B4A0CE"/>
<stop offset="1" stop-color="#5A69A2"/>
</linearGradient>
</defs>
</svg>
