<svg width="60" height="60" viewBox="0 0 60 60" fill="none" xmlns="http://www.w3.org/2000/svg">
<circle cx="30" cy="30" r="30" fill="white"/>
<g clip-path="url(#clip0)">
<path d="M43.3942 37.3382L39.2245 33.168C38.3939 32.3408 37.0186 32.3659 36.1591 33.2257L34.0584 35.3259C33.9256 35.2528 33.7883 35.1764 33.6438 35.0953C32.3173 34.3603 30.5016 33.3528 28.591 31.4408C26.6747 29.5248 25.6663 27.7063 24.929 26.3789C24.8512 26.2383 24.7767 26.1027 24.7031 25.9739L26.113 24.5661L26.8061 23.8721C27.6669 23.0111 27.6906 21.6361 26.8621 20.8065L22.6923 16.6358C21.8637 15.8074 20.4877 15.8325 19.627 16.6935L18.4518 17.8755L18.4839 17.9073C18.0898 18.4101 17.7606 18.9901 17.5155 19.6154C17.2896 20.2107 17.149 20.7787 17.0847 21.3479C16.5341 25.9124 18.62 30.084 24.2806 35.7447C32.1054 43.569 38.4112 42.9779 38.6832 42.949C39.2757 42.8782 39.8435 42.7367 40.4205 42.5126C41.0404 42.2704 41.62 41.9416 42.1224 41.5484L42.1481 41.5712L43.3387 40.4054C44.1977 39.5445 44.2224 38.1691 43.3942 37.3382Z" fill="url(#paint0_linear)"/>
</g>
<defs>
<linearGradient id="paint0_linear" x1="30.4995" y1="16.0308" x2="33.5746" y2="47.4285" gradientUnits="userSpaceOnUse">
<stop stop-color="#B4A0CE"/>
<stop offset="1" stop-color="#5A69A2"/>
</linearGradient>
<clipPath id="clip0">
<rect width="27" height="27" fill="white" transform="translate(17 16)"/>
</clipPath>
</defs>
</svg>
