<svg width="42" height="50" viewBox="0 0 42 50" fill="none" xmlns="http://www.w3.org/2000/svg">
<path d="M36.7706 22.2019C36.461 21.4475 35.7203 20.916 34.8544 20.916C33.7105 20.916 32.7832 21.8433 32.7832 22.9872V31.7368V36.4352L37.2453 32.4836L36.7706 22.2019Z" fill="#FFCEBF"/>
<path d="M5.2301 22.2019C5.53966 21.4475 6.28039 20.916 7.14623 20.916C8.29016 20.916 9.21745 21.8433 9.21745 22.9872V31.7368V36.9679L5.0376 32.991L5.2301 22.2019Z" fill="#FFCEBF"/>
<path d="M31.0217 33.6898L36.7705 27.7338V20.9159C36.7705 19.5461 37.8808 18.4358 39.2516 18.4358C39.9365 18.4358 40.5561 18.7134 41.0056 19.1619C41.4542 19.6105 41.7318 20.231 41.7318 20.9159V29.3591C41.7318 29.696 41.6181 30.0219 41.4099 30.2864L32.4408 41.6392V48.9636C32.4408 49.5359 31.9768 49.9999 31.4045 49.9999H21.0005V45.2629V37.7892C21.0005 36.9213 21.3364 36.0855 21.9388 35.4599L27.1445 30.042C27.6665 29.4989 28.3645 29.2254 29.0645 29.2254C29.7082 29.2254 30.3529 29.4577 30.8638 29.9264C31.9479 30.921 32.0184 32.6077 31.0217 33.6898Z" fill="#FFDFCF"/>
<path d="M23.9263 46.1709V38.6973C23.9263 37.8293 24.2622 36.9936 24.8646 36.368L30.0703 30.9501C30.3858 30.6218 30.7671 30.3929 31.1728 30.2626C31.0812 30.1441 30.9778 30.031 30.8638 29.9263C30.3529 29.4577 29.7082 29.2253 29.0645 29.2253C28.3645 29.2253 27.6665 29.4989 27.1445 30.042L21.9388 35.4599C21.3364 36.0855 21.0005 36.9213 21.0005 37.7892V45.2629V49.9999H23.9263V46.1709Z" fill="#FFCEBF"/>
<path d="M10.9792 33.6898C10.5085 33.1779 10.2751 32.5322 10.2751 31.8875C10.2751 31.1684 10.5648 30.4513 11.1371 29.9264C12.2031 28.9478 13.8536 29.0001 14.8563 30.042L20.062 35.4599C20.6644 36.0855 21.0003 36.9213 21.0003 37.7892V45.2629V49.9999H10.5964C10.024 49.9999 9.56006 49.5359 9.56006 48.9636V41.6392L0.590879 30.2864C0.382692 30.0219 0.269043 29.696 0.269043 29.3591V20.9159C0.269043 20.231 0.546627 19.6105 0.995186 19.1619C1.44475 18.7134 2.06429 18.4358 2.74919 18.4358C4.12002 18.4358 5.23035 19.5461 5.23035 20.9159V27.7338L10.9792 33.6898Z" fill="#FFDFCF"/>
<path d="M12.6643 49.3426V40.8114L3.69509 29.4586C3.4869 29.1941 3.37326 28.8682 3.37326 28.5313V20.0881C3.37326 19.5632 3.53669 19.0765 3.81478 18.6758C3.49193 18.5221 3.13067 18.4358 2.74919 18.4358C2.06429 18.4358 1.44475 18.7134 0.995187 19.1619C0.546627 19.6105 0.269043 20.231 0.269043 20.9159V29.3591C0.269043 29.696 0.382692 30.0219 0.590879 30.2864L9.56006 41.6392V48.9636C9.56006 49.536 10.0241 50 10.5964 50H12.8995C12.7526 49.821 12.6643 49.5922 12.6643 49.3426Z" fill="#FFCEBF"/>
<path d="M21.0002 25.0501C27.9176 25.0501 33.5252 19.4425 33.5252 12.5251C33.5252 5.60766 27.9176 0 21.0002 0C14.0828 0 8.4751 5.60766 8.4751 12.5251C8.4751 19.4425 14.0828 25.0501 21.0002 25.0501Z" fill="white"/>
<path d="M14.6454 12.5251C14.6454 6.67237 18.6599 1.75773 24.0853 0.383287C23.0983 0.133361 22.0648 0 21.0002 0C14.0828 0 8.4751 5.6077 8.4751 12.5251C8.4751 19.4424 14.0828 25.0501 21.0002 25.0501C22.0648 25.0501 23.0984 24.9168 24.0854 24.6667C18.6599 23.2924 14.6454 18.3778 14.6454 12.5251Z" fill="#F3EAFF"/>
<path d="M21.0005 22.0328C26.2516 22.0328 30.5084 17.776 30.5084 12.5249C30.5084 7.2739 26.2516 3.01709 21.0005 3.01709C15.7495 3.01709 11.4927 7.2739 11.4927 12.5249C11.4927 17.776 15.7495 22.0328 21.0005 22.0328Z" fill="#B4A0CE"/>
<path d="M18.7005 3.29907C14.5655 4.33026 11.4927 8.07533 11.4927 12.525C11.4927 16.9747 14.5655 20.7197 18.7004 21.751C16.2081 19.4617 14.6459 16.1759 14.6459 12.5251C14.6458 8.87419 16.2081 5.58833 18.7005 3.29907Z" fill="#8B6EAF"/>
<path d="M25.0114 10.7248H22.8252V8.53866C22.8252 8.25444 22.5948 8.02393 22.3105 8.02393H19.8026C19.5183 8.02393 19.2878 8.25434 19.2878 8.53866V10.7248H17.1017C16.8174 10.7248 16.5869 10.9553 16.5869 11.2396V13.7475C16.5869 14.0317 16.8173 14.2622 17.1017 14.2622H19.2878V16.4484C19.2878 16.7326 19.5182 16.9631 19.8026 16.9631H22.3105C22.5947 16.9631 22.8252 16.7327 22.8252 16.4484V14.2622H25.0114C25.2956 14.2622 25.5261 14.0318 25.5261 13.7475V11.2396C25.526 10.9553 25.2956 10.7248 25.0114 10.7248Z" fill="#F9F7F8"/>
</svg>
