<svg width="40" height="40" viewBox="0 0 40 40" fill="none" xmlns="http://www.w3.org/2000/svg">
<circle cx="20" cy="20" r="20" fill="white"/>
<g clip-path="url(#clip0)">
<path d="M27.024 20.0042C26.3928 18.7719 24.8563 18.3042 23.3521 19.4865C23.3376 19.4979 21.848 20.6406 19.5032 20.6406C17.1584 20.6406 15.6688 19.4969 15.6542 19.4865C14.1563 18.3031 12.6074 18.7667 11.9803 20.0073C11.9782 20.0104 11.9771 20.0135 11.9751 20.0177C11.0428 21.925 12.5824 22.9187 13.8209 23.7177C14.5865 24.2104 15.5657 24.5823 16.7417 24.8281L13.4032 28.1739C11.3876 30.1854 14.5459 33.3594 16.5824 31.3687L19.5136 28.4229C20.6417 29.5531 21.6928 30.6083 22.4511 31.3802C24.4615 33.3542 27.6407 30.2354 25.6365 28.1781C23.2459 25.7896 22.7313 25.2739 22.2792 24.8292C24.7751 24.2948 28.2469 22.5437 27.024 20.0042ZM20.748 23.4989C20.2084 23.2396 19.4917 24.225 20.0813 24.8375L20.0876 24.8437C20.0886 24.8448 20.0907 24.8469 20.0917 24.8479C20.0938 24.85 20.0949 24.8521 20.0969 24.8531C20.3969 25.1521 24.4334 29.1844 24.523 29.275C25.0834 29.851 24.0959 30.8031 23.5532 30.2739C22.5844 29.2885 21.048 27.75 20.0636 26.7635C19.7594 26.4583 19.2626 26.4562 18.9574 26.7635L15.4803 30.2573C14.9292 30.7958 13.9469 29.8344 14.5053 29.2771L18.9261 24.8479C18.9282 24.8458 18.9303 24.8437 18.9313 24.8417C19.4803 24.3021 18.9261 23.3021 18.2803 23.4927C16.7417 23.3125 15.4949 22.9364 14.6646 22.4031C13.0605 21.3667 13.1407 21.1844 13.373 20.7083C14.048 19.4156 15.2438 22.2031 19.5011 22.2031C22.4167 22.2031 24.2459 20.7708 24.3178 20.7135C24.7928 20.3406 25.3501 20.1667 25.624 20.6989C25.8563 21.1812 25.9428 21.3614 24.3344 22.4062C23.2365 23.1052 21.6844 23.3875 20.748 23.4989Z" fill="url(#paint0_linear)"/>
<path d="M19.4992 17.4136C21.5346 17.4136 23.1898 15.7552 23.1898 13.7177C23.1898 11.6719 21.5346 10.0073 19.4992 10.0073C17.4648 10.0073 15.8096 11.6719 15.8096 13.7177C15.8085 15.7552 17.4637 17.4136 19.4992 17.4136ZM19.4992 11.5698C20.6721 11.5698 21.6273 12.5334 21.6273 13.7177C21.6273 14.8938 20.6721 15.8511 19.4992 15.8511C18.3262 15.8511 17.371 14.8938 17.371 13.7167C17.371 12.5334 18.3252 11.5698 19.4992 11.5698Z" fill="url(#paint1_linear)"/>
<path d="M19.4992 20.4198C23.196 20.4198 26.2044 17.4125 26.2044 13.7167C26.2033 10.0135 23.196 7 19.4992 7C15.8023 7 12.7939 10.0135 12.7939 13.7167C12.7939 17.4125 15.8012 20.4198 19.4992 20.4198ZM19.4992 8.5625C22.3346 8.5625 24.6419 10.875 24.6419 13.7167C24.6419 16.551 22.3356 18.8573 19.4992 18.8573C16.6627 18.8573 14.3564 16.551 14.3564 13.7167C14.3564 10.875 16.6627 8.5625 19.4992 8.5625Z" fill="url(#paint2_linear)"/>
</g>
<defs>
<linearGradient id="paint0_linear" x1="19.4831" y1="18.8013" x2="20.7669" y2="34.2363" gradientUnits="userSpaceOnUse">
<stop stop-color="#B4A0CE"/>
<stop offset="1" stop-color="#5A69A2"/>
</linearGradient>
<linearGradient id="paint1_linear" x1="19.4997" y1="10.0073" x2="20.3499" y2="18.6385" gradientUnits="userSpaceOnUse">
<stop stop-color="#B4A0CE"/>
<stop offset="1" stop-color="#5A69A2"/>
</linearGradient>
<linearGradient id="paint2_linear" x1="19.4992" y1="7" x2="21.0355" y2="22.6401" gradientUnits="userSpaceOnUse">
<stop stop-color="#B4A0CE"/>
<stop offset="1" stop-color="#5A69A2"/>
</linearGradient>
<clipPath id="clip0">
<rect width="25" height="25" fill="white" transform="translate(7 7)"/>
</clipPath>
</defs>
</svg>
