<svg width="80" height="80" viewBox="0 0 80 80" fill="none" xmlns="http://www.w3.org/2000/svg">
<path d="M63.75 22.5C60.2875 22.5 57.5 25.3 57.5 28.75C57.5 32.2125 60.2875 35 63.75 35C67.2 35 70 32.2125 70 28.75C70 25.3 67.2 22.5 63.75 22.5Z" fill="#A88DCA"/>
<path d="M63.75 26.25C65.1263 26.25 66.25 27.375 66.25 28.75C66.25 30.1363 65.1263 31.25 63.75 31.25C62.3637 31.25 61.25 30.1363 61.25 28.75C61.25 27.375 62.3637 26.25 63.75 26.25Z" fill="#8B6EAF"/>
<path d="M13.75 1.25H17.5V8.75H13.75V1.25Z" fill="#D1BCED"/>
<path d="M35 1.25H38.7375V8.75H35V1.25Z" fill="#D1BCED"/>
<path d="M26.25 43.75C33.15 43.75 38.7375 38.15 38.7375 31.25V8.75V1.25H42.5V31.25C42.5 40.225 35.225 47.5 26.25 47.5C17.275 47.5 10 40.225 10 31.25V1.25H13.75V8.75V31.25C13.75 38.15 19.35 43.75 26.25 43.75Z" fill="#8B6EAF"/>
<path d="M63.75 36.255C59.6137 36.255 56.25 32.8913 56.25 28.755C56.25 24.6188 59.6137 21.255 63.75 21.255C67.8862 21.255 71.25 24.6188 71.25 28.755C71.25 32.8913 67.8862 36.255 63.75 36.255ZM63.75 23.755C60.9925 23.755 58.75 25.9988 58.75 28.755C58.75 31.5113 60.9925 33.755 63.75 33.755C66.5075 33.755 68.75 31.5113 68.75 28.755C68.75 25.9988 66.5075 23.755 63.75 23.755Z" fill="#A88DCA"/>
<path d="M63.75 32.505C61.6825 32.505 60 30.8225 60 28.755C60 26.6875 61.6825 25.005 63.75 25.005C65.8175 25.005 67.5 26.6875 67.5 28.755C67.5 30.8225 65.8175 32.505 63.75 32.505ZM63.75 27.505C63.06 27.505 62.5 28.0663 62.5 28.755C62.5 29.4438 63.06 30.005 63.75 30.005C64.44 30.005 65 29.4438 65 28.755C65 28.0663 64.44 27.505 63.75 27.505Z" fill="#8B6EAF"/>
<path d="M63.75 61.25C63.0588 61.25 62.5 60.6913 62.5 60V28.7538C62.5 28.0638 63.0588 27.5038 63.75 27.5038C64.4412 27.5038 65 28.0638 65 28.7538V60C65 60.6913 64.4412 61.25 63.75 61.25Z" fill="#D1BCED"/>
<path d="M45 80C33.9725 80 25 71.0275 25 60C25 59.3088 25.5588 58.75 26.25 58.75C26.9412 58.75 27.5 59.3088 27.5 60C27.5 69.65 35.35 77.5 45 77.5C54.65 77.5 62.5 69.65 62.5 60C62.5 59.3088 63.0588 58.75 63.75 58.75C64.4412 58.75 65 59.3088 65 60C65 71.0275 56.0275 80 45 80Z" fill="#D1BCED"/>
<path d="M26.25 61.25C25.5588 61.25 25 60.6913 25 60V47.5038C25 46.8125 25.5588 46.2538 26.25 46.2538C26.9412 46.2538 27.5 46.8125 27.5 47.5038V60C27.5 60.6913 26.9412 61.25 26.25 61.25Z" fill="#D1BCED"/>
<path d="M18.7503 37.4975C15.3078 37.4975 12.5078 34.6975 12.5078 31.255C12.5078 30.5638 13.0666 30.005 13.7578 30.005C14.4491 30.005 15.0078 30.5638 15.0078 31.255C15.0078 33.3175 16.6866 34.9975 18.7503 34.9975C19.4416 34.9975 20.0003 35.5563 20.0003 36.2475C20.0003 36.9388 19.4416 37.4975 18.7503 37.4975Z" fill="#A88DCA"/>
<path d="M33.75 37.4975C33.0588 37.4975 32.5 36.9388 32.5 36.2475C32.5 35.5563 33.0588 34.9975 33.75 34.9975C35.8138 34.9975 37.4925 33.3175 37.4925 31.255C37.4925 30.5638 38.0512 30.005 38.7425 30.005C39.4338 30.005 39.9925 30.5638 39.9925 31.255C39.9925 34.6975 37.1925 37.4975 33.75 37.4975Z" fill="#A88DCA"/>
<path d="M33.75 37.4976H18.75C18.0588 37.4976 17.5 36.9388 17.5 36.2476C17.5 35.5563 18.0588 34.9976 18.75 34.9976H33.75C34.4412 34.9976 35 35.5563 35 36.2476C35 36.9388 34.4412 37.4976 33.75 37.4976Z" fill="#A88DCA"/>
<path d="M17.5002 10H13.7539C13.0627 10 12.5039 9.44125 12.5039 8.75V1.25C12.5039 0.56 13.0627 0 13.7539 0H17.5002C18.1914 0 18.7502 0.56 18.7502 1.25V8.75C18.7502 9.44125 18.1914 10 17.5002 10ZM15.0039 7.5H16.2502V2.5H15.0039V7.5Z" fill="#D1BCED"/>
<path d="M38.7463 10H35C34.3088 10 33.75 9.44125 33.75 8.75V1.25C33.75 0.56 34.3088 0 35 0H38.7463C39.4375 0 39.9963 0.56 39.9963 1.25V8.75C39.9963 9.44125 39.4375 10 38.7463 10ZM36.25 7.5H37.4962V2.5H36.25V7.5Z" fill="#D1BCED"/>
<path d="M26.25 48.7537C16.6 48.7537 8.75 40.9038 8.75 31.255C8.75 30.5638 9.30875 30.005 10 30.005C10.6912 30.005 11.25 30.5638 11.25 31.255C11.25 39.525 17.9788 46.2537 26.25 46.2537C34.5212 46.2537 41.25 39.525 41.25 31.255C41.25 30.5638 41.8088 30.005 42.5 30.005C43.1912 30.005 43.75 30.5638 43.75 31.255C43.75 40.9038 35.9 48.7537 26.25 48.7537Z" fill="#8B6EAF"/>
<path d="M26.2503 44.9962C18.6716 44.9962 12.5078 38.8312 12.5078 31.255C12.5078 30.5638 13.0666 30.005 13.7578 30.005C14.4491 30.005 15.0078 30.5638 15.0078 31.255C15.0078 37.4538 20.0516 42.4963 26.2503 42.4963C32.4491 42.4963 37.4928 37.4538 37.4928 31.255C37.4928 30.5638 38.0516 30.005 38.7428 30.005C39.4341 30.005 39.9928 30.5638 39.9928 31.255C39.9928 38.8312 33.8291 44.9962 26.2503 44.9962Z" fill="#8B6EAF"/>
<path d="M10 32.505C9.30875 32.505 8.75 31.9462 8.75 31.255V1.25C8.75 0.56 9.30875 0 10 0C10.6912 0 11.25 0.56 11.25 1.25V31.255C11.25 31.9462 10.6912 32.505 10 32.505Z" fill="#8B6EAF"/>
<path d="M13.7539 32.505C13.0627 32.505 12.5039 31.9462 12.5039 31.255V1.25C12.5039 0.56 13.0627 0 13.7539 0C14.4452 0 15.0039 0.56 15.0039 1.25V31.255C15.0039 31.9462 14.4452 32.505 13.7539 32.505Z" fill="#8B6EAF"/>
<path d="M42.5 32.505C41.8088 32.505 41.25 31.9462 41.25 31.255V1.25C41.25 0.56 41.8088 0 42.5 0C43.1912 0 43.75 0.56 43.75 1.25V31.255C43.75 31.9462 43.1912 32.505 42.5 32.505Z" fill="#8B6EAF"/>
<path d="M38.7461 32.505C38.0548 32.505 37.4961 31.9462 37.4961 31.255V1.25C37.4961 0.56 38.0548 0 38.7461 0C39.4373 0 39.9961 0.56 39.9961 1.25V31.255C39.9961 31.9462 39.4373 32.505 38.7461 32.505Z" fill="#8B6EAF"/>
<path d="M13.7537 2.5H10C9.30875 2.5 8.75 1.94 8.75 1.25C8.75 0.56 9.30875 0 10 0H13.7537C14.445 0 15.0037 0.56 15.0037 1.25C15.0037 1.94 14.445 2.5 13.7537 2.5Z" fill="#8B6EAF"/>
<path d="M42.4998 2.5H38.7461C38.0548 2.5 37.4961 1.94 37.4961 1.25C37.4961 0.56 38.0548 0 38.7461 0H42.4998C43.1911 0 43.7499 0.56 43.7499 1.25C43.7499 1.94 43.1911 2.5 42.4998 2.5Z" fill="#8B6EAF"/>
</svg>
