<svg width="80" height="80" viewBox="0 0 80 80" fill="none" xmlns="http://www.w3.org/2000/svg">
<g clip-path="url(#clip0)">
<path d="M58.1756 27.4648C59.888 25.7524 59.888 22.9759 58.1756 21.2635C56.4631 19.551 53.6867 19.551 51.9742 21.2635C50.2618 22.9759 50.2618 25.7524 51.9742 27.4648C53.6867 29.1773 56.4631 29.1773 58.1756 27.4648Z" fill="#FFCDBE"/>
<path d="M63.9928 54.1602L55.5877 51.0083L39.2817 50.9834L24.4118 51.0083L16.0068 54.1602C11.1117 55.9958 7.86865 60.6756 7.86865 65.9035V78.7361C7.86865 79.4341 8.43449 80 9.1325 80H70.8674C71.5654 80 72.1312 79.4341 72.1312 78.7361V65.9035C72.1311 60.6756 68.8881 55.9958 63.9928 54.1602Z" fill="#8B6EAF"/>
<path d="M63.9927 54.1601L55.5877 51.0083L47.7373 49.8821L59.1454 54.1601C64.0407 55.9958 67.2837 60.6756 67.2837 65.9037V78.7363C67.2837 79.4343 66.7179 80.0002 66.0199 80.0002H70.8672C71.5652 80.0002 72.131 79.4343 72.131 78.7363V65.9037C72.131 60.6756 68.888 55.9958 63.9927 54.1601Z" fill="#8B6EAF"/>
<path d="M55.5877 51.0082L48.8908 48.4968C48.0198 48.1701 47.4426 47.3373 47.4426 46.4069V33.2767H32.5569V46.4071C32.5569 47.3375 31.9797 48.1704 31.1085 48.4969L24.4116 51.0083L28.0524 53.7092C35.1476 58.9728 44.8516 58.9728 51.9466 53.7092L55.5877 51.0082Z" fill="#FFCDBE"/>
<path d="M25.5654 16.6545V28.025C25.5654 35.9968 32.028 42.4594 39.9999 42.4594C47.9719 42.4594 54.4343 35.9968 54.4343 28.025V16.6545C54.4343 13.4548 51.8404 10.8608 48.6407 10.8608H31.3591C28.1594 10.861 25.5654 13.4548 25.5654 16.6545Z" fill="#FFCDBE"/>
<path d="M47.4428 46.4071V39.4125L43.5518 41.3288V49.1909C43.5518 50.1213 44.1289 50.9541 45 51.2808L51.6968 53.7922L50.4546 54.7136C50.963 54.4028 51.4616 54.0696 51.9471 53.7094L55.5879 51.0085L48.8911 48.4971C48.02 48.1703 47.4428 47.3375 47.4428 46.4071Z" fill="#F5C1B3"/>
<path d="M48.6406 10.8611H43.7933C46.993 10.8611 49.587 13.4549 49.587 16.6547V28.0252C49.587 35.1711 44.3939 41.1032 37.5762 42.2561C38.3643 42.3894 39.1737 42.4597 39.9998 42.4597C47.9717 42.4597 54.4343 35.9971 54.4343 28.0252V16.6547C54.4343 13.4549 51.8403 10.8611 48.6406 10.8611Z" fill="#F5C1B3"/>
<path d="M25.8108 66.7951C26.2675 64.8633 25.0716 62.927 23.1398 62.4704C21.208 62.0137 19.2718 63.2096 18.8151 65.1414C18.3585 67.0732 19.5543 69.0095 21.4861 69.4661C23.4179 69.9228 25.3542 68.7269 25.8108 66.7951Z" fill="white"/>
<path d="M26.4255 28.4082C28.6635 27.4805 29.7258 24.9141 28.7981 22.6761C27.8704 20.438 25.3041 19.3758 23.066 20.3034C20.828 21.2311 19.7657 23.7975 20.6934 26.0355C21.6211 28.2736 24.1874 29.3358 26.4255 28.4082Z" fill="#FFCDBE"/>
<path d="M44.6305 0H35.3692C33.8063 0 32.2736 0.430763 30.9395 1.24479L27.9925 3.04313C26.485 3.96299 25.5654 5.60154 25.5654 7.36741V19.9893H39.9999H54.4343V7.36741C54.4343 5.60154 53.5146 3.96299 52.0073 3.04313L49.0603 1.24479C47.726 0.430763 46.1934 0 44.6305 0V0Z" fill="#D1BCED"/>
<path d="M52.0073 3.04313L49.0603 1.24479C47.726 0.430602 46.1933 0 44.6305 0H39.7832C41.3461 0 42.8788 0.430602 44.213 1.24479L47.16 3.04313C48.6675 3.96299 49.587 5.60138 49.587 7.36741V19.9893H54.4343V7.36741C54.4343 5.60138 53.5146 3.96299 52.0073 3.04313Z" fill="#D1BCED"/>
<path d="M43.7996 7.54034H42.7605C42.713 7.54034 42.6744 7.50172 42.6744 7.45422V6.41512C42.6744 5.51627 41.9458 4.78772 41.047 4.78772H38.9533C38.0544 4.78772 37.3259 5.51643 37.3259 6.41512V7.45422C37.3259 7.50172 37.2872 7.54034 37.2397 7.54034H36.2006C35.3018 7.54034 34.5732 8.26889 34.5732 9.16774V11.2614C34.5732 12.1603 35.302 12.889 36.2006 12.889H37.2397C37.2874 12.889 37.3259 12.9276 37.3259 12.9751V14.0142C37.3259 14.9131 38.0546 15.6416 38.9533 15.6416H41.047C41.9458 15.6416 42.6745 14.9129 42.6745 14.0141V12.975C42.6745 12.9275 42.7132 12.8888 42.7607 12.8888H43.7998C44.6986 12.8888 45.4272 12.1603 45.4272 11.2614V9.1679C45.4272 8.26905 44.6984 7.54034 43.7996 7.54034Z" fill="#8B6EAF"/>
<path d="M22.3236 62.917C21.6544 62.917 21.1118 62.3744 21.1118 61.7052V52.1952C21.1118 51.526 21.6544 50.9834 22.3236 50.9834C22.9929 50.9834 23.5355 51.526 23.5355 52.1952V61.7052C23.5355 62.3744 22.9929 62.917 22.3236 62.917Z" fill="#D1BCED"/>
<path d="M22.3238 70.7531C19.6733 70.7531 17.5171 68.5967 17.5171 65.9462C17.5171 63.2956 19.6733 61.1394 22.3238 61.1394C24.9743 61.1394 27.1306 63.2956 27.1306 65.9462C27.1306 68.5968 24.9743 70.7531 22.3238 70.7531ZM22.3238 63.5632C21.0097 63.5632 19.9407 64.6322 19.9407 65.9463C19.9407 67.2604 21.0097 68.3296 22.3238 68.3296C23.6379 68.3296 24.7069 67.2604 24.7069 65.9463C24.7069 64.6322 23.6379 63.5632 22.3238 63.5632Z" fill="#D1BCED"/>
<path d="M59.8727 60.2924V52.3568C59.8727 51.6876 59.3303 51.145 58.6609 51.145C57.9914 51.145 57.449 51.6876 57.449 52.3568V60.2819C54.4246 60.4851 52.0259 63.0088 52.0259 66.0839V75.6814C52.0259 76.3506 52.5683 76.8932 53.2377 76.8932H55.0832C55.7526 76.8932 56.2951 76.3506 56.2951 75.6814C56.2951 75.0121 55.7526 74.4696 55.0832 74.4696H54.4495V66.0839C54.4495 64.2129 55.9717 62.6906 57.8426 62.6906H59.3413C61.2122 62.6906 62.7344 64.2129 62.7344 66.0839V74.4696H62.107C61.4377 74.4696 60.8951 75.0121 60.8951 75.6814C60.8951 76.3506 61.4377 76.8932 62.107 76.8932H63.9462C64.6156 76.8932 65.158 76.3506 65.158 75.6814V66.0839C65.158 63.0556 62.8318 60.5617 59.8727 60.2924Z" fill="#D1BCED"/>
</g>
<defs>
<clipPath id="clip0">
<rect width="80" height="80" fill="white"/>
</clipPath>
</defs>
</svg>
