<svg width="80" height="80" viewBox="0 0 80 80" fill="none" xmlns="http://www.w3.org/2000/svg">
<path d="M59.395 60.0049C59.395 59.3136 59.955 58.7549 60.645 58.7549L61.895 58.7549C62.5863 58.7549 63.145 59.3136 63.145 60.0049C63.145 60.6961 62.5863 61.2549 61.895 61.2549L60.645 61.2549C59.955 61.2549 59.395 60.6961 59.395 60.0049Z" fill="#8B6EAF"/>
<path d="M59.395 63.86C59.395 63.1687 59.955 62.61 60.645 62.61L61.895 62.61C62.5863 62.61 63.145 63.1687 63.145 63.86C63.145 64.5512 62.5863 65.11 61.895 65.11L60.645 65.11C59.955 65.11 59.395 64.5512 59.395 63.86Z" fill="#8B6EAF"/>
<path d="M56.8723 56.2574C56.4473 56.2574 56.0348 56.3699 55.6848 56.5699L55.6348 56.2699L55.6348 47.1311L55.6223 47.1186C56.9723 46.2424 58.2348 45.2186 59.3848 44.0936L59.3848 56.2561L59.3723 56.2561L56.8723 56.2561L56.8723 56.2574Z" fill="#8B6EAF"/>
<path d="M59.3851 56.2576C60.7601 56.2701 61.8726 57.3801 61.8726 58.7576L61.8726 60.0076L61.8726 63.8576L61.8726 76.2576C61.8726 77.6326 60.7476 78.7576 59.3726 78.7576L56.8726 78.7576C55.4963 78.7576 54.3726 77.6326 54.3726 76.2576L54.3726 58.7576C54.3726 57.8051 54.9101 56.9826 55.6851 56.5701C56.0351 56.3701 56.4476 56.2576 56.8726 56.2576L59.3726 56.2576L59.3851 56.2576Z" fill="#A88DCA"/>
<path d="M41.8848 8.74243C51.5473 8.74243 59.3848 16.5812 59.3848 26.2424C59.3848 30.3312 57.9848 34.0812 55.6348 37.0549L55.6348 26.2424C55.6348 17.2187 48.7973 9.77993 40.0098 8.84243C40.6223 8.78118 41.2473 8.74243 41.8848 8.74243Z" fill="#8B6EAF"/>
<path d="M20.6348 26.2424C20.6348 14.5062 30.1598 4.99243 41.8848 4.99243C53.6223 4.99243 63.1348 14.5062 63.1348 26.2424C63.1348 37.9812 53.6223 47.4924 41.8848 47.4924C30.1598 47.4924 20.6348 37.9812 20.6348 26.2424ZM55.6348 37.0562C57.9848 34.0824 59.3848 30.3324 59.3848 26.2437C59.3848 16.5824 51.5473 8.74368 41.8848 8.74368C41.2473 8.74368 40.6223 8.78243 40.0098 8.84368C31.2223 9.78118 24.3848 17.2199 24.3848 26.2437C24.3848 35.9062 32.2235 43.7437 41.8848 43.7437C47.4598 43.7424 52.4348 41.1299 55.6348 37.0562Z" fill="#D1BCED"/>
<path d="M41.8848 1.24243C28.0848 1.24243 16.8848 12.4312 16.8848 26.2424L16.8848 62.5187L13.1348 62.5187L13.1348 26.2424C13.1348 12.4312 24.3223 1.24243 38.1348 1.24243L41.8848 1.24243Z" fill="#D1BCED"/>
<path d="M41.8848 4.99243C30.1598 4.99243 20.6348 14.5062 20.6348 26.2424C20.6348 37.9812 30.1598 47.4924 41.8848 47.4924C53.6223 47.4924 63.1348 37.9812 63.1348 26.2424C63.1348 14.5062 53.621 4.99243 41.8848 4.99243ZM41.8848 51.2424C28.0848 51.2424 16.8848 40.0562 16.8848 26.2424C16.8848 12.4312 28.0848 1.24243 41.8848 1.24243C55.6973 1.24243 66.8848 12.4312 66.8848 26.2424C66.8848 33.2449 64.0223 39.5549 59.3848 44.0937C58.2348 45.2187 56.9723 46.2424 55.6223 47.1187C51.6848 49.7312 46.9585 51.2424 41.8848 51.2424Z" fill="#8B6EAF"/>
<path d="M16.8848 62.52L16.8848 67.5075L13.1348 67.5075L13.1348 62.52L16.8848 62.52Z" fill="#8B6EAF"/>
<path d="M13.1151 67.51C13.1151 66.8188 13.6738 66.26 14.3651 66.26L15.6538 66.26C16.3451 66.26 16.9038 66.8188 16.9038 67.51C16.9038 68.2013 16.3451 68.76 15.6538 68.76L14.3651 68.76C13.6738 68.76 13.1151 68.2013 13.1151 67.51Z" fill="#8B6EAF"/>
<path d="M13.7598 75L13.7598 71.25C13.7598 70.5587 14.3185 70 15.0098 70C15.701 70 16.2598 70.5588 16.2598 71.25L16.2598 75C16.2598 75.6912 15.701 76.25 15.0098 76.25C14.3185 76.25 13.7598 75.6912 13.7598 75Z" fill="#A88DCA"/>
<path d="M56.8936 70.0862C56.8936 69.395 57.4536 68.83 58.1436 68.83C58.8336 68.83 59.3936 69.3825 59.3936 70.0725L59.3936 70.0862C59.3936 70.7762 58.8336 71.3362 58.1436 71.3362C57.4536 71.3362 56.8936 70.7762 56.8936 70.0862Z" fill="#8B6EAF"/>
<rect x="25" y="10" width="30" height="30" rx="15" fill="white"/>
</svg>
