<svg width="61" height="61" viewBox="0 0 61 61" fill="none" xmlns="http://www.w3.org/2000/svg">
<path fill-rule="evenodd" clip-rule="evenodd" d="M15.333 39.2723C15.7534 38.9983 16.3577 38.8769 16.915 39.1678C17.5071 39.4769 18.1568 39.7445 18.7354 39.9334C19.3365 40.1296 19.7849 40.2156 20 40.2156V41.8893C19.5321 41.8893 18.8923 41.7377 18.2596 41.5312C17.6102 41.3192 16.8879 41.0224 16.2199 40.6751C16.2162 40.6759 16.2114 40.6772 16.2058 40.6792C16.1965 40.6825 16.1869 40.6873 16.1779 40.6931C16.1768 40.6939 16.1758 40.6946 16.1748 40.6953C16.2488 41.7018 16.287 42.9075 16.1814 44.0091C16.1275 44.5712 16.0341 45.1297 15.878 45.6317C15.7237 46.1276 15.4922 46.621 15.1303 47L14 45.8165C14.1185 45.6925 14.247 45.4704 14.358 45.1135C14.4671 44.7628 14.544 44.3314 14.5909 43.8419C14.6849 42.8621 14.6505 41.7434 14.5768 40.7679C14.5248 40.0791 14.9109 39.5475 15.333 39.2723Z" fill="#616AA7"/>
<path fill-rule="evenodd" clip-rule="evenodd" d="M38.3758 15.1501C41.3326 13.4077 44.2821 11.3553 46.0903 10L47 11.3364C45.1563 12.7183 42.1586 14.8045 39.1421 16.582C37.6341 17.4707 36.1093 18.2894 34.7142 18.9048C33.347 19.508 32.0402 19.9453 30.9727 20.0256C29.8345 20.1846 28.3299 20.6326 27.3687 21.3979C26.8964 21.7739 26.6118 22.1807 26.5097 22.6118C26.4109 23.0289 26.4516 23.6003 26.8787 24.3845L26.9171 24.4551L26.9416 24.5322C27.2495 25.5013 27.1421 27.4753 25.0929 28.7466L20.0887 33.3413L20.0287 33.3791C19.5702 33.6678 19.0092 34.1663 18.7309 34.6968C18.5981 34.9501 18.552 35.1674 18.5683 35.3522C18.5824 35.5127 18.6496 35.7234 18.8741 35.9778C19.1928 36.185 19.496 36.2689 19.8691 36.3576C19.8969 36.3642 19.9256 36.3709 19.9551 36.3778C20.3296 36.4653 20.8316 36.5826 21.3119 36.9186L21.4422 37.0097L21.529 37.1464C22.0849 38.0214 22.6029 38.5218 23.5718 38.776C23.7097 38.8122 24.0452 38.8346 24.5736 38.7606C25.0815 38.6896 25.7101 38.5376 26.4048 38.2798C27.7947 37.7639 29.4132 36.8378 30.8394 35.3404C31.2864 34.871 31.9 34.8101 32.3728 34.9533C32.8452 35.0963 33.3298 35.4882 33.4774 36.1254C34.1314 38.9482 35.8586 41.0413 37.7435 43.3018C38.5677 44.2902 38.9422 45.721 39.0012 47.249C39.0609 48.7946 38.8031 50.5392 38.2618 52.266C37.1843 55.7034 34.9287 59.2311 31.5573 61L30.8574 59.5311C33.7463 58.0154 35.7841 54.9144 36.7751 51.7529C37.2681 50.1802 37.4883 48.6328 37.4374 47.3155C37.3859 45.9806 37.0614 44.9778 36.5657 44.3833L36.5155 44.3231C34.6885 42.1323 32.7198 39.7716 31.9632 36.5417C31.9632 36.5417 31.9633 36.5418 31.9632 36.5417C31.9568 36.5379 31.9483 36.534 31.939 36.5312C31.9326 36.5293 31.9267 36.5281 31.9215 36.5274C30.3128 38.2076 28.4948 39.2461 26.9267 39.8281C26.1383 40.1207 25.4042 40.3013 24.7805 40.3885C24.1773 40.4729 23.6125 40.4795 23.1922 40.3692C21.8011 40.0043 21.0016 39.2316 20.3274 38.2126C20.1276 38.1029 19.9007 38.0489 19.5303 37.9609L19.5235 37.9593C19.0928 37.857 18.5353 37.7163 17.9399 37.2997L17.8754 37.2546L17.8207 37.1971C17.3368 36.6893 17.0638 36.1151 17.0099 35.5035C16.957 34.9042 17.1223 34.3578 17.3598 33.9049C17.8062 33.0539 18.5819 32.3872 19.1613 32.0106L24.178 27.4044L24.2461 27.3636C25.5595 26.576 25.5664 25.5088 25.4736 25.113C24.936 24.0893 24.778 23.1138 24.9908 22.2156C25.2063 21.3061 25.7708 20.6085 26.4227 20.0895C27.7035 19.0698 29.5343 18.5662 30.7932 18.3939L30.8177 18.3905L30.8424 18.3888C31.6481 18.3324 32.7701 17.9809 34.1077 17.3909C35.4287 16.8081 36.8971 16.0214 38.3758 15.1501Z" fill="#616AA7"/>
<path fill-rule="evenodd" clip-rule="evenodd" d="M14.0769 0H46.9231V15.25H61V45.75H46.9231V61H14.0769V45.75H0V15.25H14.0769V0ZM15.641 1.65761V16.9076H1.5641V44.0924H15.641V59.3424H45.359V44.0924H59.4359V16.9076H45.359V1.65761H15.641Z" fill="#616AA7"/>
<path d="M30.6641 45.8059C30.8774 45.7921 31.0317 45.8004 31.13 45.8172C31.1996 46.0058 31.2301 46.2859 31.185 46.6677C31.1312 47.1231 30.9796 47.6358 30.7743 48.1266C30.5692 48.6166 30.3246 49.0511 30.1082 49.3503C30.0428 49.4407 29.9854 49.5112 29.9378 49.5639C29.8544 49.5314 29.751 49.4847 29.6305 49.4226C29.3366 49.271 28.9799 49.0481 28.6234 48.7775C27.9154 48.2399 27.3556 47.6265 27.1623 47.1238C27.206 47.0686 27.2908 46.9843 27.4377 46.8794C27.7911 46.627 28.3399 46.3709 28.9566 46.1679C29.5691 45.9663 30.1896 45.8366 30.6641 45.8059ZM29.8173 49.6767C29.8174 49.676 29.8229 49.6717 29.8336 49.6655C29.8226 49.6742 29.8173 49.6773 29.8173 49.6767ZM31.2063 45.8351C31.2131 45.8374 31.216 45.8388 31.2157 45.839C31.2155 45.8391 31.2121 45.838 31.2063 45.8351Z" stroke="#616AA7" stroke-width="1.5"/>
<path d="M11.7615 56.0781C11.6494 55.7295 11.8517 55.3586 12.2057 55.2648C13.4961 54.9231 16.4294 54.1327 18.4573 53.4829C20.5541 52.811 23.5054 51.8939 24.7588 51.5055C25.0927 51.4021 25.4456 51.5875 25.5525 51.9203C25.6612 52.2586 25.4748 52.6198 25.1355 52.725C23.8743 53.1158 20.9369 54.0287 18.8477 54.6981C16.7822 55.36 13.7773 56.1677 12.5261 56.4986C12.1995 56.5849 11.8648 56.3997 11.7615 56.0781Z" fill="#616AA7"/>
<path d="M12.671 57.5387C12.5569 57.1838 12.775 56.8078 13.139 56.7273C14.4559 56.4359 17.3931 55.7434 19.3599 54.9591C21.2955 54.1874 23.4302 52.726 24.5044 51.9441C24.8477 51.6943 25.3424 51.8494 25.4722 52.2536C25.5466 52.4849 25.4772 52.737 25.289 52.8907C24.4734 53.5567 22.1447 55.3485 19.7504 56.1743C17.688 56.8857 14.6513 57.6502 13.4088 57.9537C13.0918 58.0311 12.7708 57.8494 12.671 57.5387Z" fill="#616AA7"/>
<path d="M17.1085 57.4307C17.0271 57.1771 17.293 56.8667 17.559 56.853C18.0998 56.8252 19.0117 56.6661 20.4185 56.1051C22.2708 55.3665 23.8778 53.5683 24.717 52.4924C24.9771 52.1589 25.5313 52.2422 25.6606 52.6448C25.7035 52.7782 25.6898 52.9214 25.6159 53.0404C25.1626 53.7704 23.3653 56.4386 20.8089 57.3203C19.0848 57.915 18.1175 58.0322 17.6524 58.0416C17.4311 58.046 17.2569 57.8924 17.1892 57.6817L17.1085 57.4307Z" fill="#616AA7"/>
</svg>
