<svg width="27" height="27" viewBox="0 0 27 27" fill="none" xmlns="http://www.w3.org/2000/svg">
<g clip-path="url(#clip0)">
<path d="M13.5 0C10.8156 0.00301486 8.24203 1.07072 6.34387 2.96887C4.44572 4.86703 3.37801 7.44061 3.375 10.125C3.375 17.2589 12.3235 26.2896 12.7045 26.6705C12.9169 26.8789 13.2025 26.9956 13.5 26.9956C13.7975 26.9956 14.0831 26.8789 14.2955 26.6705C14.6765 26.2896 23.625 17.2589 23.625 10.125C23.622 7.44061 22.5543 4.86703 20.6561 2.96887C18.758 1.07072 16.1844 0.00301486 13.5 0V0ZM13.5 16.875C12.165 16.875 10.8599 16.4791 9.7499 15.7374C8.63987 14.9957 7.7747 13.9415 7.26381 12.7081C6.75292 11.4747 6.61925 10.1175 6.8797 8.80814C7.14015 7.49877 7.78302 6.29603 8.72703 5.35203C9.67103 4.40802 10.8738 3.76515 12.1831 3.5047C13.4925 3.24425 14.8497 3.37792 16.0831 3.88881C17.3165 4.3997 18.3707 5.26487 19.1124 6.3749C19.8541 7.48493 20.25 8.78998 20.25 10.125C20.25 11.9152 19.5388 13.6321 18.273 14.898C17.0071 16.1638 15.2902 16.875 13.5 16.875Z" fill="#B4A0CE"/>
<path d="M18.2517 8.4969L13.7517 6.24689C13.6736 6.20784 13.5874 6.1875 13.5001 6.1875C13.4128 6.1875 13.3266 6.20784 13.2485 6.24689L8.74854 8.4969L9.25169 9.50321L10.6876 8.78518V12.3751C10.6876 12.5242 10.7469 12.6673 10.8524 12.7728C10.9579 12.8783 11.1009 12.9376 11.2501 12.9376H15.7501C15.8993 12.9376 16.0424 12.8783 16.1479 12.7728C16.2534 12.6673 16.3126 12.5242 16.3126 12.3751V8.78518L17.7485 9.50321L18.2517 8.4969Z" fill="#B4A0CE"/>
<path d="M5.5 10C5.5 16.3513 12.5 26 12.5 26C11 26 3 16.3513 3 10C3 3.25754 9.5 0.5 10.5 0.5C10.5 0.5 5.5 3.64873 5.5 10Z" fill="#8B6EAF"/>
</g>
<defs>
<clipPath id="clip0">
<rect width="27" height="27" fill="white"/>
</clipPath>
</defs>
</svg>
