<svg width="13" height="13" viewBox="0 0 13 13" fill="none" xmlns="http://www.w3.org/2000/svg">
<path d="M12.1694 11.4909L8.82294 8.14445C9.45766 7.36084 9.83974 6.36463 9.83974 5.27999C9.83974 2.76561 7.7941 0.719971 5.27972 0.719971C2.76534 0.719971 0.719727 2.76561 0.719727 5.27999C0.719727 7.79437 2.76536 9.84 5.27974 9.84C6.36438 9.84 7.36059 9.45791 8.1442 8.8232L11.4907 12.1697C11.5844 12.2634 11.7364 12.2634 11.8301 12.1697L12.1694 11.8303C12.2631 11.7366 12.2631 11.5846 12.1694 11.4909ZM5.27974 8.88C3.29459 8.88 1.67974 7.26514 1.67974 5.27999C1.67974 3.29483 3.29459 1.67998 5.27974 1.67998C7.2649 1.67998 8.87975 3.29483 8.87975 5.27999C8.87975 7.26514 7.2649 8.88 5.27974 8.88Z" fill="white"/>
</svg>
