<svg version="1.0" xmlns="http://www.w3.org/2000/svg" viewBox="0 0 256 256"><path d="M11.1 24.8c-3.8.4-7.9 3.1-9.8 6.5C-.3 34.1-.6 219.4 1 223.5c1.5 4 4.2 6.3 8.5 7.2 2.2.5 56.4.8 120.5.7 108.5-.1 116.7-.2 119.8-1.8 6.5-3.4 6.2 1 6.2-102.2 0-92.1 0-93.7-2-96.9-1.1-1.8-3.4-3.8-5.1-4.5-2.4-1.1-27.3-1.3-118.7-1.4-63.7-.1-117.2 0-119.1.2zm217.4 37.8c.1 5.7-.2 10.5-.5 10.5-2.6.6-140 .2-140-.4 0-.4 2.9-5.2 6.5-10.6l6.5-9.9h127.5v10.4zm-189.6-4c2.6 3.3 2.6 4.5 0 7.8-3.8 4.9-11.1 2.3-11.1-4.1 0-3.1 3.3-6.3 6.7-6.3 1.3 0 3.3 1.1 4.4 2.6zM56 58c3.9 3.9 1.1 11-4.5 11-3 0-6.5-3.6-6.5-6.6 0-2.9 3.7-6.4 6.7-6.4 1.3 0 3.2.9 4.3 2zm17.6.5c1.9 1.9 2.3 3.1 1.8 4.8-1.7 5.6-6.2 7.3-10.4 3.9-4.3-3.5-1.7-11.2 3.7-11.2 1.3 0 3.5 1.1 4.9 2.5zm69.9 37.7c-.4 1.1-4.1 16.4-5 20.8-.2.8-2.7 10.9-5.5 22.5-2.8 11.5-5.4 22.1-5.6 23.5-1 5.5-3.8 14.5-4.7 15.1-.9.6-9.6.4-10.1-.3-.2-.1.6-3.9 1.6-8.3 3.3-13.2 12.4-51.2 15.3-63.3l2.7-11.2h5.9c4.2 0 5.7.3 5.4 1.2zm-36.7 18.5l-.3 7.7-4.5 1.7c-26.5 10.1-33.1 12.7-32.3 13.2.4.3 9 3.7 19.1 7.7l18.2 7.1v15.8l-6.2-2.8c-3.5-1.5-15.5-6.7-26.8-11.6-11.3-4.8-21-9.4-21.6-10.1-1-1.2-1.1-12-.2-13 .7-.6 53.2-23.4 54.1-23.4.4 0 .7 3.5.5 7.7zm69.9 3.9c14.7 6.3 26.9 11.7 27.1 11.9.3.2.5 3.3.6 6.8l.1 6.4L183 153c-11.8 5.1-24.2 10.5-27.5 12l-6 2.8-.3-7.5c-.2-4.2-.1-7.7.1-7.9.2-.2 8.9-3.7 19.3-7.8 10.6-4.2 18.2-7.7 17.4-8-.8-.4-9.4-3.7-19-7.5l-17.5-6.8-.3-7.7c-.2-4.2-.1-7.6.2-7.6.3 0 12.5 5.2 27.3 11.6zM57.4 203c.2.3-3.4 3.4-8 6.9l-8.5 6.4-15 .1c-8.3 0-15.3-.2-15.4-.5-.5-.7 13.7-11.7 16.5-12.7 2.2-.8 29.6-1 30.4-.2zm134.2 5.9c4.6 3.5 8.2 6.6 7.9 6.9-.7.7-141.5.8-142.7.1-.5-.3 2.9-3.5 7.7-7l8.5-6.4h55l55 .1 8.6 6.3zm37.5-6c1.1.2 16 11.9 16.2 12.7.1.5-6.7.8-15.1.7H215l-8.4-6.4c-4.6-3.5-8.2-6.6-8.1-6.9.3-.4 28.5-.5 30.6-.1z"/></svg>