<?xml version="1.0" standalone="no"?>
<!DOCTYPE svg PUBLIC "-//W3C//DTD SVG 20010904//EN"
 "http://www.w3.org/TR/2001/REC-SVG-20010904/DTD/svg10.dtd">
<svg version="1.0" xmlns="http://www.w3.org/2000/svg"
 width="260.000000pt" height="260.000000pt" viewBox="0 0 260.000000 260.000000"
 preserveAspectRatio="xMidYMid meet">
<metadata>
Created by potrace 1.11, written by Peter Selinger 2001-2013
</metadata>
<g transform="translate(0.000000,260.000000) scale(0.100000,-0.100000)"
fill="#000000" stroke="none">
<path d="M600 2275 l0 -325 -300 0 -300 0 0 -650 0 -650 300 0 300 0 0 -194 0
-193 -41 -9 c-46 -10 -71 -36 -53 -54 7 -7 24 -8 52 -1 49 10 56 1 11 -16 -40
-15 -37 -48 4 -48 27 1 27 0 27 -67 l0 -68 700 0 700 0 0 325 0 325 300 0 300
0 0 650 0 650 -300 0 -300 0 0 325 0 325 -700 0 -700 0 0 -325z m1335 75 c0
-96 -1 -182 -3 -190 -6 -30 -355 -249 -480 -301 -41 -17 -104 -36 -140 -44
-131 -26 -197 -63 -234 -132 -21 -39 -21 -45 -9 -95 20 -86 16 -109 -26 -147
-21 -18 -76 -68 -123 -110 -47 -43 -103 -93 -124 -112 -99 -86 -90 -193 19
-230 27 -10 60 -30 74 -47 57 -67 137 -81 247 -43 60 20 157 78 202 120 21 21
23 21 28 4 20 -63 48 -120 85 -175 23 -35 45 -65 49 -68 25 -21 74 -98 85
-133 23 -79 -1 -239 -52 -342 -32 -64 -99 -152 -147 -193 l-50 -42 -335 2
-335 3 -1 37 c0 33 4 39 29 48 36 13 36 13 36 -3 0 -29 20 -35 79 -22 84 17
149 52 207 110 68 68 87 103 70 136 -12 25 -38 28 -81 9 -11 -4 -89 -29 -174
-55 -102 -32 -156 -44 -160 -37 -11 18 -5 324 8 367 6 22 11 75 11 118 0 42 2
77 5 77 2 0 26 -8 52 -19 26 -10 60 -21 76 -25 26 -6 27 -5 27 31 0 38 -1 38
-68 61 -107 37 -108 37 -137 8 -22 -22 -25 -33 -24 -83 1 -32 1 -70 0 -85 l-1
-27 -277 2 -277 2 -1 560 c0 308 1 568 3 577 4 16 26 17 246 17 132 0 266 0
296 0 l56 1 -1 313 c0 171 1 318 3 325 3 10 135 12 635 10 l631 -3 1 -175z
m-1 -380 l-1 -90 66 -1 c36 0 170 0 298 0 174 0 232 -2 235 -12 3 -10 2 -1036
-1 -1119 l-1 -27 -242 0 c-134 0 -268 0 -299 0 l-55 -1 0 -320 c0 -176 -3
-322 -6 -325 -3 -3 -111 -4 -241 -3 l-235 3 45 50 c88 98 167 308 165 437 -1
112 -14 144 -104 257 -59 74 -128 199 -128 232 0 9 -8 26 -19 37 -27 32 -72
29 -112 -9 -91 -85 -209 -136 -301 -130 -9 1 -37 21 -62 45 -27 27 -61 49 -84
56 -55 14 -68 32 -52 70 7 16 15 30 19 30 3 0 26 18 51 41 25 23 82 75 128
117 45 41 91 82 102 89 48 33 62 97 40 180 -12 44 -12 56 0 78 19 36 66 62
146 81 132 32 177 48 268 94 90 47 254 147 330 202 21 15 42 28 45 28 3 0 6
-40 5 -90z m-1034 -1675 c0 -9 -89 -45 -160 -66 -76 -22 -70 -21 -70 -10 0 5
26 17 58 26 31 9 82 25 112 35 30 10 56 19 58 19 1 1 2 -1 2 -4z"/>
<path d="M1235 666 c-79 -25 -116 -54 -108 -86 7 -28 70 -87 117 -112 l40 -20
23 28 c44 56 68 165 41 192 -15 15 -61 14 -113 -2z m50 -93 c-9 -20 -17 -38
-19 -40 -1 -1 -17 8 -35 21 l-33 24 29 16 c15 8 38 15 51 16 22 0 22 -1 7 -37z"/>
</g>
</svg>
