<?xml version="1.0" standalone="no"?>
<!DOCTYPE svg PUBLIC "-//W3C//DTD SVG 20010904//EN"
 "http://www.w3.org/TR/2001/REC-SVG-20010904/DTD/svg10.dtd">
<svg version="1.0" xmlns="http://www.w3.org/2000/svg"
 width="512.000000pt" height="512.000000pt" viewBox="0 0 512.000000 512.000000"
 preserveAspectRatio="xMidYMid meet">
<metadata>
Created by potrace 1.11, written by Peter Selinger 2001-2013
</metadata>
<g transform="translate(0.000000,512.000000) scale(0.100000,-0.100000)"
fill="#000000" stroke="none">
<path d="M637 4788 c-25 -3 -68 -17 -94 -30 -64 -31 -162 -131 -194 -199 l-27
-54 -1 -530 c-2 -1296 -1 -3122 3 -3250 4 -170 18 -208 112 -303 91 -91 147
-114 295 -120 l118 -5 14 35 c18 44 68 85 112 94 77 14 134 -17 170 -93 l16
-33 1473 0 1474 0 12 31 c43 102 171 131 255 58 18 -17 37 -44 40 -61 7 -30 7
-31 61 -25 108 11 241 110 303 227 l31 58 1 1928 c1 1061 -1 1945 -5 1964 -29
149 -184 299 -324 315 l-49 5 -31 -49 c-41 -67 -82 -86 -170 -82 -28 1 -108
74 -116 105 l-6 23 -1475 -1 -1475 -1 -21 -39 c-32 -60 -54 -75 -135 -90 -49
-10 -129 50 -148 111 -6 20 -13 21 -89 20 -46 -1 -104 -5 -130 -9z"/>
</g>
</svg>
